if (_typeface_js && _typeface_js.loadFace) _typeface_js.loadFace({"glyphs":{"S":{"x_min":15,"x_max":824,"ha":883,"o":"m 786 693 l 599 694 q 581 722 581 694 q 545 894 581 850 q 467 939 512 939 q 352 752 352 939 l 352 709 l 347 673 q 363 573 347 610 l 377 548 q 409 517 389 528 q 478 491 435 501 l 546 480 q 714 423 653 463 q 799 330 775 382 q 824 232 824 278 l 819 174 q 817 152 818 163 q 805 111 815 140 q 731 2 787 49 q 568 -44 675 -44 q 402 -14 485 -44 l 352 2 l 304 19 l 270 24 q 209 -72 209 24 l 209 -104 l 213 -123 q 194 -132 213 -132 l 169 -132 l 118 -132 l 91 -137 l 73 -144 l 45 -154 q 24 -129 37 -154 q 17 -99 20 -113 q 15 -68 15 -84 q 34 21 15 -21 q 94 84 55 61 q 186 107 133 107 q 398 55 254 107 l 439 43 l 472 38 q 581 260 581 38 q 542 387 581 338 q 397 446 504 437 l 287 462 q 208 491 254 466 q 132 562 164 512 q 103 688 103 612 q 156 859 103 790 q 291 960 209 929 q 460 992 373 992 q 606 968 542 992 q 713 903 670 944 q 781 814 759 864 q 805 722 805 766 q 786 693 805 694 "},"¦":{"x_min":107,"x_max":276,"ha":385,"o":"m 107 576 q 115 646 107 634 q 140 660 119 657 l 166 660 l 187 660 l 243 660 l 258 660 q 276 639 273 660 l 276 606 l 276 575 l 276 545 l 276 512 q 258 492 276 496 l 243 492 l 186 492 l 139 492 q 113 504 117 492 q 107 539 108 516 q 107 576 107 563 m 107 84 q 111 140 107 121 q 121 163 115 159 q 140 168 127 168 l 165 168 l 187 168 l 243 168 l 258 168 q 276 147 273 168 l 276 114 l 276 83 l 276 53 l 276 20 q 258 0 276 1 l 243 0 l 186 0 l 139 0 q 112 12 119 0 l 107 47 l 107 84 "},"y":{"x_min":26,"x_max":702.453125,"ha":703,"o":"m 308 47 l 366 47 q 384 233 366 137 q 396 296 389 265 q 420 392 403 327 l 437 459 l 456 513 q 522 615 477 569 q 637 661 567 661 q 702 633 702 661 l 699 615 l 688 590 l 677 570 q 669 507 669 546 l 666 453 l 634 453 q 581 487 623 487 q 513 449 549 487 q 484 400 496 432 q 456 303 471 367 q 433 -3 433 189 q 437 -169 433 -128 l 451 -250 q 458 -292 455 -269 q 461 -346 461 -315 q 341 -378 461 -378 q 320 -370 324 -378 q 316 -346 316 -362 l 320 -234 l 329 -147 l 342 -69 l 352 0 l 271 0 l 189 0 l 156 -4 q 145 0 149 -4 l 142 23 l 142 54 q 138 139 142 107 q 128 207 134 171 q 109 311 123 243 q 41 570 78 466 q 30 606 35 590 q 26 631 26 623 q 35 644 26 643 l 76 647 l 137 645 l 171 645 q 205 638 196 645 q 223 590 214 630 l 232 543 l 242 490 l 256 417 l 287 238 l 299 149 q 308 70 308 101 l 308 47 "},"Á":{"x_min":54,"x_max":832,"ha":886,"o":"m 54 972 l 550 972 l 636 972 l 651 977 q 657 984 657 981 q 673 996 666 994 l 754 996 q 789 980 777 996 q 800 941 800 965 l 795 922 l 784 892 l 773 862 l 755 808 l 749 762 q 743 709 749 727 l 739 692 q 707 672 732 672 q 680 681 686 672 l 670 702 l 662 731 q 612 851 641 812 q 548 905 583 890 l 513 914 l 471 914 l 436 914 l 384 914 l 384 567 q 519 491 427 525 q 686 458 612 458 l 743 458 q 811 441 791 458 q 832 367 832 424 l 832 97 q 827 40 832 63 q 802 9 822 22 q 744 0 783 0 l 54 0 l 54 58 l 169 58 l 169 914 l 54 914 l 54 972 m 384 58 l 555 58 q 602 75 587 58 q 617 151 617 92 l 617 308 q 607 353 617 338 q 557 389 600 369 q 450 452 491 426 q 384 512 420 471 l 384 58 "},"g":{"x_min":54,"x_max":708.15625,"ha":729,"o":"m 156 808 l 299 808 l 345 693 l 365 751 q 395 806 377 784 q 448 829 413 829 q 529 795 504 829 l 522 784 l 512 770 q 485 687 485 735 l 459 687 q 426 712 451 712 q 397 699 413 712 q 379 660 385 688 l 428 656 q 450 652 441 653 q 482 642 459 650 q 565 584 532 624 q 598 488 598 545 q 423 308 598 339 q 557 256 512 287 q 622 182 602 226 q 643 90 643 138 q 599 -48 643 -1 q 493 -96 556 -96 q 338 -68 409 -96 l 291 -50 l 245 -33 l 223 -29 l 204 -28 q 114 -123 114 -28 q 169 -201 114 -172 q 228 -222 197 -215 q 297 -229 259 -229 l 325 -224 l 359 -206 l 386 -193 q 501 -157 458 -157 q 604 -189 555 -157 q 652 -229 624 -201 l 708 -288 l 680 -328 l 645 -304 l 606 -286 q 519 -261 565 -269 q 435 -252 474 -252 q 358 -262 401 -252 l 327 -269 l 285 -276 q 119 -225 184 -276 q 54 -94 54 -174 q 65 -47 54 -73 q 108 0 77 -22 q 186 18 140 18 q 236 13 215 18 q 291 -4 258 8 l 323 -15 l 380 -30 l 420 -35 q 475 110 475 -35 q 445 245 475 198 q 343 292 416 292 q 242 133 242 292 l 79 133 q 140 278 79 241 q 296 327 201 315 l 332 333 l 368 342 q 418 387 396 353 q 435 429 429 405 q 441 490 441 452 q 338 625 441 625 q 254 586 288 625 q 221 427 221 547 l 79 427 q 97 529 79 477 q 159 619 115 581 q 208 649 181 637 q 266 661 235 661 l 156 808 "},"е":{"x_min":54,"x_max":677.609375,"ha":692,"o":"m 641 583 l 677 540 q 548 492 601 492 q 428 563 492 492 l 391 602 q 356 615 375 615 q 272 526 294 615 q 250 330 250 437 q 339 383 281 352 q 434 409 396 409 q 483 401 458 409 q 508 390 496 398 l 537 375 q 579 357 562 359 q 631 379 608 357 l 659 341 q 583 271 622 300 l 547 247 q 511 241 533 241 q 445 264 481 241 l 413 284 l 390 297 q 343 307 368 307 q 250 267 295 307 q 302 87 250 158 q 442 17 354 17 q 622 89 523 17 l 648 59 q 398 -47 549 -47 q 326 -41 358 -47 q 251 -19 295 -35 q 116 82 174 7 q 69 169 88 118 q 54 281 54 219 l 54 329 q 60 390 54 361 q 74 438 67 419 q 90 477 81 458 q 189 611 124 558 q 351 665 254 665 q 559 595 449 665 q 610 572 590 575 q 641 583 629 572 "},"ë":{"x_min":23,"x_max":632.71875,"ha":654,"o":"m 298 538 l 289 511 q 276 476 281 490 q 257 436 271 462 q 195 275 211 330 q 179 172 179 221 q 203 68 179 119 l 223 36 q 232 13 229 26 q 206 -3 232 -3 l 170 -3 l 132 -3 l 99 -3 l 67 -3 q 32 5 42 -3 q 23 44 23 13 q 60 201 23 119 l 107 287 l 174 394 l 216 458 l 249 519 q 266 575 266 552 q 258 616 266 591 l 258 633 q 285 646 262 646 l 410 646 q 444 639 437 646 q 454 610 451 633 q 513 344 454 529 q 539 263 526 305 q 578 156 562 198 l 599 100 l 617 59 q 632 16 629 33 q 624 0 632 3 l 593 -3 l 536 1 l 481 -3 q 453 3 467 -3 q 431 36 443 12 l 406 106 l 364 257 l 353 297 l 346 326 l 317 442 l 307 491 l 298 538 "},"б":{"x_min":76,"x_max":668.828125,"ha":731,"o":"m 343 599 l 256 599 l 245 480 l 241 357 q 322 351 289 357 q 366 345 350 348 q 413 336 383 343 q 547 275 491 319 q 631 169 604 230 q 657 52 657 108 q 639 9 657 19 q 578 0 621 0 l 114 0 q 85 8 98 0 q 76 37 78 18 l 76 101 l 76 230 l 80 390 l 80 496 l 85 603 q 94 632 85 619 q 126 646 103 646 l 433 646 l 527 646 l 601 651 q 668 619 668 651 q 636 542 668 596 q 612 493 626 526 q 578 415 592 449 l 513 415 l 519 474 l 519 519 q 474 586 513 573 q 343 599 435 599 m 241 47 l 438 47 l 462 47 l 465 91 q 243 294 465 294 l 241 194 l 241 115 l 241 47 "},"Î":{"x_min":57,"x_max":827.78125,"ha":885,"o":"m 451 1010 q 473 1001 461 1010 l 509 962 q 641 840 559 909 l 719 764 q 779 684 750 729 q 827 493 827 607 q 793 324 827 398 q 715 205 759 251 l 626 115 l 537 30 l 479 -23 q 444 -37 459 -34 q 404 -19 431 -37 l 302 63 l 200 155 q 137 226 172 181 q 77 336 102 272 q 57 470 57 397 q 329 926 57 712 l 355 947 l 388 978 q 451 1010 418 1010 m 359 826 q 273 788 311 819 q 213 712 235 758 q 192 622 192 666 q 205 554 192 587 q 219 518 211 534 q 246 479 228 502 l 272 440 l 308 398 l 401 301 q 490 207 470 233 q 514 142 507 180 q 625 217 573 162 q 687 333 676 272 l 687 380 q 666 438 683 405 q 627 498 650 471 l 575 562 l 502 641 l 439 711 l 398 758 l 375 793 l 359 826 "},"e":{"x_min":54,"x_max":677.609375,"ha":692,"o":"m 641 583 l 677 540 q 548 492 601 492 q 428 563 492 492 l 391 602 q 356 615 375 615 q 272 526 294 615 q 250 330 250 437 q 339 383 281 352 q 434 409 396 409 q 483 401 458 409 q 508 390 496 398 l 537 375 q 579 357 562 359 q 631 379 608 357 l 659 341 q 583 271 622 300 l 547 247 q 511 241 533 241 q 445 264 481 241 l 413 284 l 390 297 q 343 307 368 307 q 250 267 295 307 q 302 87 250 158 q 442 17 354 17 q 622 89 523 17 l 648 59 q 398 -47 549 -47 q 326 -41 358 -47 q 251 -19 295 -35 q 116 82 174 7 q 69 169 88 118 q 54 281 54 219 l 54 329 q 60 390 54 361 q 74 438 67 419 q 90 477 81 458 q 189 611 124 558 q 351 665 254 665 q 559 595 449 665 q 610 572 590 575 q 641 583 629 572 "},"у":{"x_min":26,"x_max":702.453125,"ha":703,"o":"m 308 47 l 366 47 q 384 233 366 137 q 396 296 389 265 q 420 392 403 327 l 437 459 l 456 513 q 522 615 477 569 q 637 661 567 661 q 702 633 702 661 l 699 615 l 688 590 l 677 570 q 669 507 669 546 l 666 453 l 634 453 q 581 487 623 487 q 513 449 549 487 q 484 400 496 432 q 456 303 471 367 q 433 -3 433 189 q 437 -169 433 -128 l 451 -250 q 458 -292 455 -269 q 461 -346 461 -315 q 341 -378 461 -378 q 320 -370 324 -378 q 316 -346 316 -362 l 320 -234 l 329 -147 l 342 -69 l 352 0 l 271 0 l 189 0 l 156 -4 q 145 0 149 -4 l 142 23 l 142 54 q 138 139 142 107 q 128 207 134 171 q 109 311 123 243 q 41 570 78 466 q 30 606 35 590 q 26 631 26 623 q 35 644 26 643 l 76 647 l 137 645 l 171 645 q 205 638 196 645 q 223 590 214 630 l 232 543 l 242 490 l 256 417 l 287 238 l 299 149 q 308 70 308 101 l 308 47 "},"Ã":{"x_min":54,"x_max":826.21875,"ha":838,"o":"m 54 972 l 576 972 q 646 973 623 972 q 726 985 669 975 l 758 992 l 780 992 q 826 939 826 992 q 813 898 826 927 l 799 861 l 784 815 l 776 758 q 771 724 773 736 q 765 698 769 712 q 733 675 760 675 q 706 684 712 675 l 696 705 l 688 733 q 638 852 667 814 q 574 905 609 890 l 539 914 l 498 914 l 463 914 l 384 914 l 384 58 l 499 58 l 499 0 l 54 0 l 54 58 l 169 58 l 169 914 l 54 914 l 54 972 "},"J":{"x_min":19,"x_max":1316.234375,"ha":1317,"o":"m 793 276 l 838 276 l 848 313 l 863 370 l 888 459 l 936 634 q 967 731 954 699 l 1003 819 q 1086 942 1035 894 q 1203 990 1138 990 l 1228 990 l 1267 984 q 1316 963 1295 980 l 1303 923 q 1285 781 1285 869 l 1264 780 q 1181 805 1218 805 q 1081 755 1127 805 q 1009 633 1040 708 q 975 534 990 588 l 956 466 l 906 276 l 957 276 l 957 218 l 793 218 l 793 58 l 908 58 l 908 0 l 482 0 l 482 58 l 597 58 l 597 218 l 339 218 l 113 929 l 19 929 l 19 972 l 434 972 l 434 929 l 339 929 l 542 276 l 597 276 l 597 1139 l 793 1184 l 793 276 "},"ò":{"x_min":9,"x_max":867.34375,"ha":878,"o":"m 763 384 l 691 397 q 701 431 693 405 q 709 476 709 458 q 656 577 709 555 q 545 600 604 600 l 520 600 l 520 524 l 519 469 l 519 374 l 519 184 l 520 102 q 526 34 520 60 q 517 3 526 13 q 470 -6 508 -6 l 389 -6 q 360 5 371 -6 q 351 45 351 24 l 351 152 l 351 201 l 351 238 l 351 298 l 351 376 l 351 456 l 351 502 l 356 600 l 331 600 q 167 476 167 600 q 171 447 167 466 q 185 397 175 427 l 113 384 q 32 550 84 473 q 9 612 9 586 q 20 646 9 632 q 49 663 31 660 l 129 653 q 227 646 185 647 q 309 646 268 646 l 567 646 l 595 646 l 618 646 l 638 646 l 654 646 q 704 647 681 646 q 746 653 728 648 l 827 663 q 855 647 843 663 q 867 612 867 632 q 843 550 867 581 l 817 509 l 796 472 l 781 434 l 763 384 "},"D":{"x_min":11,"x_max":987.390625,"ha":999,"o":"m 651 0 l 534 0 q 481 -25 492 -25 q 401 0 437 -25 l 347 0 q 258 -13 287 0 q 209 -62 230 -26 q 172 -175 192 -98 q 158 -225 167 -203 l 147 -261 q 117 -274 142 -274 q 86 -258 94 -274 l 80 -235 l 79 -208 q 31 -39 79 -133 q 11 23 11 5 q 27 59 11 44 q 72 75 44 75 l 101 70 l 135 63 l 205 58 l 330 58 q 184 248 233 149 q 136 449 136 346 q 172 651 136 549 q 261 835 208 753 q 372 965 315 916 q 472 1015 430 1015 q 573 983 513 1015 q 630 944 598 969 q 690 890 656 923 q 781 748 742 833 q 820 566 820 663 q 772 324 820 456 q 598 58 723 192 l 792 58 l 839 58 l 865 64 l 887 71 l 926 73 q 972 58 956 73 q 987 22 987 45 q 980 -36 987 -20 q 956 -81 974 -55 l 931 -130 l 924 -157 l 920 -208 q 917 -235 920 -225 q 911 -260 917 -249 q 880 -274 906 -274 q 856 -265 867 -274 l 844 -236 q 798 -77 815 -119 q 749 -18 781 -36 q 651 0 717 0 m 330 816 q 289 738 304 787 l 279 693 l 274 648 q 317 444 274 544 q 367 352 340 393 q 432 276 394 312 q 581 210 503 210 l 620 214 q 644 348 644 287 l 640 426 q 626 508 636 466 q 569 659 608 589 q 471 773 530 730 q 330 816 411 816 "},"к":{"x_min":73,"x_max":626.171875,"ha":654,"o":"m 240 350 l 251 350 q 562 661 424 661 q 603 654 591 661 q 622 638 620 649 q 610 609 622 624 l 592 569 l 584 537 l 581 496 l 580 479 l 580 467 l 544 465 q 480 508 524 508 q 399 469 443 508 q 321 377 360 438 l 292 336 q 451 266 381 310 q 559 171 521 221 q 609 80 592 125 q 626 12 626 35 q 574 -6 626 -6 l 548 -2 l 524 0 q 478 -6 487 0 l 453 -6 q 434 5 441 -6 l 423 53 l 410 109 l 390 162 q 326 249 366 213 q 240 301 288 287 q 253 40 240 135 l 253 24 q 189 0 253 0 l 124 0 q 95 7 105 0 q 79 55 86 15 q 73 159 73 95 l 73 369 q 78 555 73 505 q 82 602 78 583 l 94 634 q 125 648 103 647 l 142 647 l 160 645 l 230 650 l 245 650 q 262 627 262 645 l 253 563 l 244 465 l 240 350 "},"ÿ":{"x_min":69,"x_max":659.546875,"ha":736,"o":"m 251 647 l 599 647 l 629 647 l 642 647 q 659 626 659 647 l 654 541 l 648 398 l 644 254 l 648 153 l 654 98 l 659 40 l 659 26 q 646 5 659 13 q 629 1 638 2 q 599 0 620 0 l 527 0 q 492 12 505 0 q 483 54 483 31 l 476 201 l 476 234 l 476 260 l 476 284 l 476 305 q 283 65 283 263 q 271 14 283 29 q 203 0 259 0 l 148 0 q 82 6 96 0 q 69 36 71 15 q 89 116 69 70 q 148 208 110 162 q 243 287 186 254 q 370 328 300 320 l 370 335 q 261 363 306 346 q 178 406 217 379 q 108 545 108 454 q 141 628 108 608 q 184 642 156 635 q 251 647 209 647 m 405 600 q 334 593 355 600 q 306 572 314 586 l 302 553 l 302 527 q 350 408 302 457 q 476 361 402 361 q 478 495 476 458 q 487 600 480 531 l 405 600 "},"ц":{"x_min":76,"x_max":789.890625,"ha":790,"o":"m 256 47 l 467 47 l 464 120 l 460 198 l 460 254 l 460 318 l 460 370 l 460 458 l 464 555 q 468 602 464 584 q 482 634 472 619 q 511 649 491 649 l 540 649 l 568 649 l 617 649 l 632 649 q 651 626 649 649 l 644 597 l 635 544 l 627 465 l 627 375 l 627 237 q 632 113 627 150 q 664 68 638 77 l 689 68 l 709 73 l 730 79 l 750 81 q 780 69 770 81 q 789 47 788 62 q 763 -44 789 25 l 726 -153 l 694 -258 l 617 -258 q 632 -156 632 -199 q 618 -69 632 -99 q 545 -18 603 -38 q 371 0 487 0 l 319 0 l 263 0 l 163 -4 l 120 -8 q 96 -2 102 -8 q 81 42 89 3 q 77 142 77 75 l 76 370 l 77 454 q 77 487 77 470 q 80 525 77 504 q 82 571 80 555 l 92 614 q 104 639 96 633 q 129 649 112 646 l 155 649 l 186 649 l 235 649 l 249 649 q 266 626 264 649 l 256 562 l 246 471 l 246 375 q 246 320 246 357 q 246 266 246 284 l 256 47 "},"Л":{"x_min":54,"x_max":902.609375,"ha":922,"o":"m 495 58 l 585 58 q 520 277 552 155 l 475 477 l 442 646 l 418 762 q 339 637 385 723 q 260 453 287 537 q 233 302 233 369 q 237 210 233 241 q 249 171 241 179 q 268 164 256 164 l 273 163 q 300 136 291 163 q 310 19 310 108 q 290 -9 310 1 l 259 -15 l 234 -15 l 212 -9 l 175 -8 l 130 -10 q 76 -1 94 -10 q 54 38 58 6 l 54 87 q 66 185 54 131 q 105 305 78 238 q 184 472 137 380 l 247 597 l 275 650 l 346 784 q 374 879 374 844 q 362 908 374 902 l 327 914 l 231 914 l 231 972 l 690 972 l 690 914 l 605 914 q 675 529 630 731 q 723 335 698 434 q 774 153 748 237 l 801 58 l 902 58 l 902 0 l 495 0 l 495 58 "},"í":{"x_min":71,"x_max":653.34375,"ha":725,"o":"m 465 313 l 238 435 l 238 348 q 247 151 238 220 l 257 40 q 246 6 257 13 q 183 0 235 0 l 118 0 q 90 12 103 0 q 76 66 82 25 q 71 169 71 108 l 71 369 l 71 478 q 71 516 71 497 q 71 560 71 535 q 75 609 71 593 q 86 636 79 625 q 116 649 93 647 l 139 649 l 160 649 l 220 649 l 235 649 q 253 626 252 649 q 249 575 253 586 l 241 543 l 238 492 l 464 368 l 465 430 q 470 579 465 539 q 485 633 475 619 q 516 649 494 647 l 534 649 l 556 649 l 620 649 l 635 649 q 653 626 651 649 l 648 596 l 637 546 l 630 466 l 630 375 l 630 301 q 630 258 630 279 q 635 225 634 236 l 639 162 l 645 113 l 651 40 q 640 9 651 18 q 579 0 629 0 l 514 0 q 486 7 494 0 q 470 48 478 15 l 465 126 l 465 313 "},"w":{"x_min":29,"x_max":931,"ha":960,"o":"m 498 190 q 413 67 471 133 q 306 -26 356 2 q 134 149 194 52 q 51 337 73 246 q 29 504 29 428 q 38 630 29 580 l 47 647 l 66 647 l 101 647 l 130 647 l 180 647 q 197 642 193 647 q 202 630 202 637 l 196 605 l 196 553 q 369 106 196 270 q 471 243 423 155 q 416 406 430 322 q 403 567 403 490 l 403 631 q 403 642 403 640 l 406 647 l 432 647 l 465 647 l 497 647 l 515 647 l 537 647 q 562 642 558 647 q 568 623 566 638 l 568 587 l 568 549 q 580 413 568 492 q 596 337 584 373 q 625 261 608 302 q 672 179 643 220 q 735 117 700 146 q 799 220 773 156 q 821 337 821 287 q 813 412 821 377 q 779 508 805 447 l 754 573 l 739 623 q 751 642 739 635 q 803 647 764 647 l 830 647 l 847 647 l 858 647 l 890 647 l 908 647 q 926 635 921 647 q 931 594 931 624 l 931 569 l 928 513 q 924 438 928 463 q 917 397 919 413 q 907 354 914 381 q 883 265 899 307 q 837 173 867 223 q 673 -26 782 74 q 575 74 621 20 q 498 190 539 119 "},"о":{"x_min":54.171875,"x_max":561.109375,"ha":615,"o":"m 54 281 q 100 483 54 387 q 207 637 145 580 q 302 694 269 694 q 372 673 326 694 q 456 614 412 656 q 531 508 501 573 q 561 362 561 444 q 536 229 561 299 q 509 162 526 197 l 472 93 q 389 -7 436 32 q 309 -47 343 -47 q 206 2 263 -47 q 97 133 148 51 q 80 168 88 150 q 65 207 72 186 q 56 245 59 229 q 54 281 54 261 m 195 538 q 163 484 175 511 q 152 427 152 456 q 181 302 152 373 q 273 178 209 231 q 423 125 337 125 q 447 226 447 172 q 418 369 447 302 q 331 483 388 436 q 195 538 273 530 "},"Д":{"x_min":11.109375,"x_max":950,"ha":961,"o":"m 725 972 l 725 914 l 647 914 l 676 702 q 686 639 680 677 q 700 564 691 600 l 731 408 q 761 270 747 328 q 793 158 775 212 q 845 58 825 58 l 866 67 q 909 76 879 76 q 939 62 929 76 q 950 28 950 48 q 932 -30 950 15 q 902 -131 915 -75 q 885 -224 894 -201 q 850 -247 876 -247 q 820 -233 827 -247 q 806 -185 813 -219 q 727 -32 787 -65 q 570 0 666 0 l 429 0 q 276 -12 330 0 q 202 -58 223 -27 q 162 -154 180 -90 l 150 -197 l 140 -226 q 106 -247 131 -247 q 77 -230 86 -247 l 70 -205 l 66 -181 q 25 -15 54 -80 l 11 36 q 27 66 11 57 q 65 76 44 76 q 91 73 84 76 l 115 71 q 151 94 143 71 l 158 125 l 166 180 l 180 255 l 204 341 q 214 376 209 359 q 227 409 219 393 l 270 508 q 301 568 284 537 q 348 651 318 600 l 404 757 q 423 851 423 808 q 341 914 423 914 l 266 914 l 266 972 l 725 972 m 361 58 l 602 58 l 587 117 l 575 162 q 522 379 547 267 q 473 609 497 490 l 459 686 q 375 554 418 631 q 337 477 355 516 q 304 397 319 438 q 281 326 294 370 q 260 252 268 283 q 248 194 252 221 q 244 148 244 167 q 254 92 244 112 q 291 64 263 73 q 361 58 322 58 "},"Ì":{"x_min":54,"x_max":1466.5,"ha":1499,"o":"m 603 58 l 451 764 q 362 608 402 687 q 311 468 330 539 q 292 319 292 398 q 302 191 292 265 l 312 89 l 312 19 q 295 -8 310 0 q 262 -15 287 -12 l 212 -9 l 176 -8 l 131 -10 l 102 -15 q 62 5 74 -15 l 54 35 l 54 87 q 81 270 54 191 q 112 347 94 309 q 151 417 130 385 l 270 586 q 384 756 351 695 q 417 878 417 817 l 415 914 l 312 914 l 312 972 l 709 972 l 709 914 l 631 914 l 808 99 l 963 914 l 901 914 l 901 972 l 1274 972 l 1274 914 l 1185 914 l 1370 58 l 1466 58 l 1466 0 l 1095 0 l 1095 58 l 1155 58 l 998 786 l 861 58 l 937 58 l 937 0 l 530 0 l 530 58 l 603 58 "},"Ç":{"x_min":18,"x_max":828,"ha":882,"o":"m 301 445 l 299 525 l 342 524 q 473 541 430 524 q 533 598 515 558 q 552 697 552 637 l 552 743 q 527 879 552 825 q 430 934 503 934 q 331 899 373 934 q 290 782 290 864 q 295 750 290 758 l 295 727 l 290 713 l 256 712 l 183 708 l 149 706 q 112 702 134 706 q 74 695 89 698 l 58 695 l 55 723 q 121 889 55 827 q 273 971 188 950 q 438 992 358 992 q 618 959 537 992 q 747 872 701 930 q 796 738 796 816 q 755 611 796 660 q 670 544 715 562 l 625 524 l 562 503 l 555 501 l 550 501 l 550 476 q 575 473 566 476 q 595 468 584 471 q 627 457 606 464 q 769 383 711 432 q 828 224 828 334 q 790 86 828 147 q 687 -8 752 26 q 623 -33 658 -23 q 551 -43 587 -43 q 480 -36 508 -43 l 411 -20 l 347 -2 l 306 6 l 266 15 q 211 -71 211 15 l 217 -100 l 217 -119 q 202 -139 217 -137 l 170 -136 l 119 -133 q 81 -144 97 -133 l 66 -153 q 58 -153 59 -153 q 18 -56 18 -153 q 60 69 18 22 q 160 117 103 117 q 211 110 191 117 l 282 86 l 346 64 l 421 43 l 472 38 q 558 89 536 38 q 577 151 570 117 q 584 225 584 185 l 584 303 q 534 408 578 372 q 422 445 490 445 l 301 445 "},"’":{"x_min":69,"x_max":259,"ha":346,"o":"m 95 628 l 69 658 q 155 795 155 742 q 149 857 155 840 q 102 863 112 857 q 91 891 92 870 l 91 941 q 95 996 91 976 q 104 1019 99 1015 q 122 1026 109 1024 l 146 1026 l 170 1026 l 196 1026 l 227 1026 l 240 1026 q 259 1006 257 1026 q 247 833 259 889 q 205 726 239 771 q 95 628 171 680 "},"ъ":{"x_min":15,"x_max":903,"ha":961,"o":"m 192 397 l 119 385 q 104 429 112 412 l 86 469 l 65 508 l 38 550 q 15 612 15 586 q 27 647 15 630 q 55 664 40 664 l 92 659 l 137 652 l 228 646 l 320 646 l 449 646 l 508 646 l 528 646 q 546 623 545 646 l 545 608 q 537 578 545 596 l 528 537 l 525 488 q 521 355 521 439 q 672 334 604 355 q 792 273 740 313 q 881 160 859 223 q 903 53 903 98 q 883 7 903 17 q 824 -3 864 -3 l 776 -3 l 760 -3 l 744 -3 l 400 -3 q 353 51 353 -3 l 353 235 l 357 436 q 359 514 357 487 q 367 599 361 541 l 337 599 q 205 564 240 599 q 174 476 174 529 q 192 397 174 451 m 523 44 l 684 44 l 709 44 l 709 89 q 696 169 709 127 q 642 248 683 210 q 523 294 600 285 l 521 219 l 521 122 q 521 85 521 102 q 523 44 521 67 "},"-":{"x_min":47.609375,"x_max":450.390625,"ha":500,"o":"m 47 342 l 450 342 l 450 261 l 47 261 l 47 342 "},"Q":{"x_min":57,"x_max":827.78125,"ha":885,"o":"m 451 1010 q 473 1001 461 1010 l 509 962 q 641 840 559 909 l 719 764 q 779 684 750 729 q 827 493 827 607 q 793 325 827 398 q 715 205 759 251 q 705 169 705 195 q 723 76 705 133 q 763 -27 737 33 q 769 -45 769 -38 q 756 -57 769 -57 q 640 -8 734 -57 q 537 31 547 39 l 479 -23 q 444 -38 459 -35 q 404 -19 431 -38 l 302 63 l 200 155 q 137 226 172 181 q 77 335 102 271 q 57 470 57 397 q 329 926 57 712 l 355 947 l 388 978 q 451 1010 418 1010 m 359 826 q 273 788 311 819 q 213 712 235 758 q 192 622 192 666 q 205 554 192 587 q 219 518 211 534 q 246 479 228 502 l 272 440 l 308 398 l 401 301 q 490 207 470 233 q 523 231 507 219 q 555 256 540 244 q 577 261 568 261 q 597 257 586 261 q 613 254 609 254 q 631 256 625 254 q 675 284 665 266 q 687 333 680 294 l 687 380 q 666 438 683 405 q 627 498 650 470 l 575 562 l 502 641 l 439 711 l 398 758 l 375 793 l 359 826 "},"Ш":{"x_min":95.828125,"x_max":1151.390625,"ha":1244,"o":"m 1147 1016 l 1136 962 q 1125 775 1125 888 q 1128 647 1125 704 q 1137 530 1131 591 l 1148 444 l 1150 405 q 1136 368 1150 376 q 1070 361 1122 361 l 709 361 l 716 208 l 733 65 l 733 51 q 688 22 733 22 l 616 22 q 580 38 593 25 q 554 129 568 51 l 541 223 q 536 301 536 276 q 536 361 536 326 l 154 361 q 122 370 134 361 q 106 412 111 383 l 100 469 q 97 504 97 490 q 97 534 97 519 l 95 769 l 97 891 l 101 972 q 106 1025 101 1005 q 120 1059 111 1045 q 154 1073 131 1073 l 176 1072 l 200 1072 l 222 1072 l 269 1075 l 287 1075 q 306 1050 306 1069 l 300 1016 l 291 962 l 281 863 l 280 775 l 287 627 q 290 525 287 601 q 294 413 294 448 l 533 413 q 519 769 519 526 q 527 980 519 913 q 545 1059 536 1047 q 579 1073 555 1070 l 598 1072 l 625 1072 l 694 1075 l 709 1075 q 730 1050 730 1069 l 720 977 q 712 922 715 944 q 708 875 709 901 l 704 775 l 706 694 l 711 561 l 715 484 l 718 413 l 955 413 l 950 483 l 944 606 l 940 769 q 944 801 940 780 q 944 831 944 816 l 944 868 l 945 972 q 954 1025 950 1001 q 962 1055 959 1048 q 998 1073 975 1073 l 1022 1072 l 1044 1072 l 1068 1072 l 1115 1075 l 1131 1075 q 1151 1050 1151 1069 l 1147 1016 "},"M":{"x_min":54,"x_max":1466.5,"ha":1499,"o":"m 603 58 l 451 764 q 362 608 402 687 q 311 468 330 539 q 292 319 292 398 q 302 191 292 265 l 312 89 l 312 19 q 295 -8 310 0 q 262 -15 287 -12 l 212 -9 l 176 -8 l 131 -10 l 102 -15 q 62 5 74 -15 l 54 35 l 54 87 q 81 270 54 191 q 112 347 94 309 q 151 417 130 385 l 270 586 q 384 756 351 695 q 417 878 417 817 l 415 914 l 312 914 l 312 972 l 709 972 l 709 914 l 631 914 l 808 99 l 963 914 l 901 914 l 901 972 l 1274 972 l 1274 914 l 1185 914 l 1370 58 l 1466 58 l 1466 0 l 1095 0 l 1095 58 l 1155 58 l 998 786 l 861 58 l 937 58 l 937 0 l 530 0 l 530 58 l 603 58 "},"C":{"x_min":58,"x_max":923,"ha":963,"o":"m 923 628 l 559 628 l 559 686 l 620 686 q 575 879 620 826 q 469 934 533 934 q 389 908 424 934 q 325 813 353 882 q 302 635 302 744 q 304 545 302 569 q 313 474 306 520 q 329 390 321 427 q 353 287 336 352 q 383 91 383 174 l 381 71 l 374 49 l 369 32 l 366 21 l 366 13 q 399 5 381 5 q 498 51 447 5 q 584 181 549 98 q 620 347 620 264 l 620 381 l 559 381 l 559 439 l 923 439 l 923 381 l 866 381 q 854 299 866 340 q 818 218 842 258 q 709 87 777 141 q 557 1 641 33 q 395 -31 473 -31 q 294 -14 338 -31 l 294 5 l 294 32 l 289 70 q 261 137 285 96 q 234 183 250 159 q 190 244 218 206 q 104 372 130 320 q 66 470 78 423 q 58 561 58 511 q 114 787 58 690 q 269 938 170 884 q 482 992 367 992 q 759 896 673 992 q 866 686 845 801 l 923 686 l 923 628 "},"!":{"x_min":69,"x_max":312,"ha":385,"o":"m 229 326 l 148 326 l 148 358 q 148 388 148 373 q 146 405 146 401 q 128 552 146 429 q 112 649 124 593 q 100 719 105 684 q 89 762 92 748 q 69 929 69 853 q 88 1022 69 982 q 139 1084 108 1062 q 189 1107 169 1107 q 240 1084 213 1107 q 291 1023 270 1065 q 312 929 312 981 q 310 886 312 909 q 304 829 309 863 q 280 727 299 796 l 263 652 l 247 556 l 234 433 l 229 326 m 109 86 l 109 127 q 115 157 111 147 q 139 168 120 168 l 165 168 l 186 168 l 244 168 l 259 168 q 277 147 274 168 l 277 116 l 277 83 l 277 51 l 277 20 q 259 0 277 4 l 244 0 l 187 0 l 141 0 q 115 8 126 0 q 109 58 109 19 l 109 70 l 109 86 "},"ç":{"x_min":-19,"x_max":673,"ha":731,"o":"m 276 275 l 276 333 q 412 369 366 333 q 459 490 459 405 q 434 578 459 543 q 363 614 410 614 q 283 575 312 614 q 262 537 269 555 q 256 497 256 519 l 256 487 l 256 477 l 256 466 l 256 458 q 202 421 256 439 q 93 404 148 404 l 91 427 q 134 558 91 507 q 244 634 172 608 q 393 661 315 661 q 511 644 456 661 q 607 587 567 627 q 642 492 642 549 q 583 363 642 401 q 425 311 525 324 l 425 302 l 445 298 l 458 295 q 673 116 673 266 q 621 -17 673 33 q 475 -68 569 -68 q 355 -42 431 -68 l 276 -15 l 247 -11 q 121 -34 196 -11 q 10 -81 47 -58 l -19 -47 l 35 8 l 83 51 q 128 76 104 68 q 182 85 153 85 q 217 79 204 85 q 243 65 232 75 l 269 47 q 376 15 317 15 q 445 46 414 15 q 477 149 477 78 q 436 239 477 204 q 338 275 396 275 l 276 275 "},"Й":{"x_min":54,"x_max":1022,"ha":1076,"o":"m 692 673 l 384 298 l 384 58 l 480 58 l 480 0 l 54 0 l 54 58 l 169 58 l 169 914 l 54 914 l 54 972 l 465 972 l 465 914 l 384 914 l 384 390 l 692 766 l 692 914 l 611 914 l 611 972 l 1022 972 l 1022 914 l 907 914 l 907 58 l 1022 58 l 1022 0 l 596 0 l 596 58 l 692 58 l 692 673 m 703 1238 l 763 1215 q 669 1071 734 1132 q 606 1026 637 1041 q 538 1012 574 1012 q 445 1042 485 1012 q 408 1080 424 1059 q 391 1102 397 1094 q 379 1124 385 1110 l 356 1176 l 342 1237 l 397 1253 q 529 1138 441 1138 q 636 1166 593 1138 q 703 1238 679 1194 "},"È":{"x_min":54,"x_max":1022,"ha":1076,"o":"m 692 673 l 384 298 l 384 58 l 480 58 l 480 0 l 54 0 l 54 58 l 169 58 l 169 914 l 54 914 l 54 972 l 480 972 l 480 914 l 384 914 l 384 390 l 692 766 l 692 914 l 596 914 l 596 972 l 1022 972 l 1022 914 l 907 914 l 907 58 l 1022 58 l 1022 0 l 596 0 l 596 58 l 692 58 l 692 673 "},"X":{"x_min":19.4375,"x_max":980.5625,"ha":1000,"o":"m 352 914 l 498 677 l 531 752 l 555 805 q 614 914 587 877 q 684 971 641 950 q 797 992 726 992 q 884 976 838 992 q 933 948 933 964 q 922 919 933 937 l 909 893 l 898 870 q 881 809 881 826 l 881 798 l 877 763 l 837 763 l 802 787 l 776 802 q 725 811 752 811 q 650 785 675 811 q 588 690 625 759 l 580 673 l 570 653 l 545 602 l 862 57 l 980 57 l 980 0 l 485 0 l 485 57 l 616 57 l 401 425 l 320 271 q 279 174 300 236 q 258 90 258 112 q 320 57 258 57 l 357 57 l 357 0 l 19 0 l 19 57 q 121 83 81 57 q 188 155 161 110 q 254 284 216 200 l 273 326 l 356 498 l 113 914 l 22 914 l 22 972 l 455 972 l 455 914 l 352 914 "},"ô":{"x_min":54,"x_max":975,"ha":1029,"o":"m 457 -357 l 457 32 q 294 -15 390 -15 q 125 47 197 -15 q 54 209 54 109 q 69 301 54 261 l 88 341 l 115 379 q 146 413 130 397 q 190 452 162 429 l 241 494 l 308 544 q 405 627 368 590 q 442 687 433 659 q 447 714 446 702 q 449 751 449 726 l 442 859 l 441 888 l 438 909 l 438 924 l 438 935 q 484 967 438 951 q 568 983 534 983 q 585 971 579 983 q 591 927 591 959 l 582 751 q 596 667 582 699 q 640 608 611 634 l 720 544 q 858 434 815 474 q 941 334 911 392 q 975 209 975 277 q 949 111 975 162 q 869 20 923 61 q 734 -15 816 -15 q 572 31 637 -15 l 572 -357 l 457 -357 m 457 80 l 449 584 l 394 534 l 299 449 q 250 381 273 424 q 228 279 228 337 q 252 160 228 208 q 317 90 276 112 q 357 72 339 77 q 399 68 376 68 q 457 80 427 68 m 581 584 l 572 80 q 629 68 599 68 q 706 88 666 68 q 775 161 746 109 q 801 279 801 209 q 783 375 801 337 q 739 438 766 413 q 701 474 721 458 q 672 499 676 495 l 616 551 l 581 584 "},"#":{"x_min":47.21875,"x_max":794.453125,"ha":843,"o":"m 97 511 l 86 512 q 61 526 75 516 l 54 544 l 58 563 l 47 580 q 52 626 52 604 q 74 646 58 645 q 115 655 90 647 l 255 650 l 256 786 l 406 784 l 405 651 l 519 652 l 611 652 l 629 608 q 608 537 633 558 l 575 506 q 562 561 559 491 l 543 598 l 413 598 q 415 352 415 437 q 565 331 498 352 q 684 270 633 311 q 772 158 751 220 q 794 51 794 95 q 775 4 794 15 q 715 -5 755 -5 l 668 -4 l 651 -2 l 636 -2 l 291 -2 q 244 51 244 -2 l 244 234 l 248 434 q 250 511 248 484 q 259 595 252 538 l 229 595 q 138 594 193 608 q 104 529 115 569 q 97 511 98 527 m 416 44 l 575 44 l 598 45 l 600 90 q 587 168 600 127 q 533 246 575 209 q 415 291 491 283 l 412 218 l 413 122 q 413 85 413 102 q 416 44 413 68 "},"Б":{"x_min":54,"x_max":832,"ha":886,"o":"m 54 972 l 550 972 l 636 972 l 651 977 q 657 984 657 981 q 673 996 666 994 l 754 996 q 789 980 777 996 q 800 941 800 965 l 795 922 l 784 892 l 773 862 l 755 808 l 749 762 q 743 709 749 727 l 739 692 q 707 672 732 672 q 680 681 686 672 l 670 702 l 662 731 q 612 851 641 812 q 548 905 583 890 l 513 914 l 471 914 l 436 914 l 384 914 l 384 567 q 519 491 427 525 q 686 458 612 458 l 743 458 q 811 441 791 458 q 832 367 832 424 l 832 97 q 827 40 832 63 q 802 9 822 22 q 744 0 783 0 l 54 0 l 54 58 l 169 58 l 169 914 l 54 914 l 54 972 m 384 58 l 555 58 q 602 75 587 58 q 617 151 617 92 l 617 308 q 607 353 617 338 q 557 389 600 369 q 450 452 491 426 q 384 512 420 471 l 384 58 "},"г":{"x_min":73,"x_max":598.390625,"ha":600,"o":"m 340 599 l 256 599 q 240 375 240 491 l 244 226 l 256 112 l 263 40 q 254 9 263 19 q 208 0 245 0 l 124 0 q 94 11 101 0 q 80 46 85 19 l 73 105 l 73 163 l 73 367 l 73 465 q 73 518 73 491 q 78 553 77 542 q 82 605 78 589 q 91 632 86 621 q 124 650 102 650 l 182 643 l 281 643 l 410 643 l 533 650 q 580 645 563 650 q 598 620 597 640 q 574 558 598 602 l 548 503 l 524 443 l 510 401 l 452 406 l 460 477 q 438 567 460 536 q 340 599 416 599 "},"Ê":{"x_min":54,"x_max":963,"ha":999,"o":"m 384 543 l 435 543 l 454 581 l 477 631 l 492 665 l 506 691 l 559 797 q 618 897 588 854 q 691 966 645 933 q 783 992 731 992 q 905 966 847 992 l 875 888 l 870 842 l 866 776 l 838 776 l 793 794 q 718 810 760 810 q 646 783 675 810 q 609 738 628 769 l 584 701 q 543 626 566 669 q 492 527 521 584 q 683 456 599 502 q 823 310 767 410 q 880 58 880 210 l 963 58 l 963 0 l 585 0 l 585 58 l 640 58 l 642 132 q 629 267 642 207 q 587 373 617 327 q 508 448 558 419 q 384 494 458 477 l 384 58 l 470 58 l 470 0 l 54 0 l 54 58 l 169 58 l 169 914 l 54 914 l 54 972 l 480 972 l 480 914 l 384 914 l 384 543 "},")":{"x_min":170.828125,"x_max":576,"ha":768,"o":"m 202 -291 l 170 -245 q 241 -142 212 -197 q 295 -8 270 -87 l 315 76 l 332 180 q 345 436 345 291 q 332 691 345 579 q 327 737 329 716 q 321 769 324 758 q 295 880 313 829 q 285 919 289 900 q 271 951 281 930 l 242 1011 q 208 1068 228 1039 q 170 1118 191 1096 l 202 1164 q 340 1038 280 1104 q 455 885 401 972 q 502 793 477 848 q 539 690 521 748 q 566 576 557 632 q 573 521 570 550 q 576 461 576 491 l 576 411 q 562 270 576 336 q 546 202 555 233 q 521 129 538 172 q 393 -104 476 1 q 202 -291 310 -211 "},"э":{"x_min":29,"x_max":628,"ha":686,"o":"m 29 81 l 55 111 q 152 59 99 79 q 239 42 209 42 q 376 113 337 42 q 432 318 415 184 q 261 243 353 243 q 215 249 235 243 l 181 262 l 157 276 q 112 292 128 292 q 58 272 87 292 l 29 306 q 181 404 126 404 q 224 394 205 404 l 281 361 q 355 340 318 340 q 432 377 398 340 q 375 543 432 490 q 248 596 318 596 q 63 527 169 596 l 37 555 q 163 636 102 611 q 294 657 220 657 q 444 627 377 657 q 548 554 511 597 q 583 505 568 533 q 608 454 600 480 q 628 346 628 398 q 615 241 628 304 q 598 183 609 208 q 568 123 590 160 q 464 24 534 67 q 286 -19 393 -19 q 29 81 131 -19 "},"х":{"x_min":19.4375,"x_max":637.5,"ha":653,"o":"m 57 645 l 147 645 l 166 648 l 182 650 q 200 641 188 650 l 227 579 l 308 384 l 333 327 q 405 541 375 477 q 434 597 420 576 q 466 633 448 619 q 541 661 498 661 q 569 658 554 661 q 609 644 584 656 q 637 616 634 631 q 629 587 637 598 l 615 567 l 606 540 l 604 499 l 605 442 l 579 426 q 506 465 544 465 q 458 445 477 465 q 418 380 438 426 l 369 252 l 421 129 l 489 -21 l 532 -111 q 582 -209 560 -168 q 619 -274 603 -251 q 637 -320 634 -297 q 619 -340 637 -338 l 490 -340 q 459 -326 469 -340 l 445 -301 l 431 -270 l 383 -162 l 355 -102 l 319 -20 l 277 74 q 201 -165 234 -77 q 145 -284 167 -252 q 108 -330 124 -321 q 70 -340 91 -338 q 19 -308 19 -340 q 49 -248 19 -295 q 154 -61 97 -187 q 237 166 210 65 l 196 261 l 157 346 l 128 408 l 111 443 l 74 523 l 48 576 l 33 605 l 30 617 q 34 640 30 634 q 57 645 39 645 "},"Å":{"x_min":58,"x_max":984.390625,"ha":1004,"o":"m 502 486 l 553 486 q 515 548 543 523 q 465 569 487 569 q 380 552 425 569 q 309 505 335 535 q 343 347 324 405 l 362 282 l 376 232 q 384 122 384 187 q 371 48 384 82 q 422 39 395 39 q 601 101 542 39 q 680 247 660 163 l 610 247 l 610 305 l 974 305 l 974 248 l 923 247 q 818 113 883 173 q 677 17 758 53 q 519 -19 595 -19 l 463 -19 q 429 -17 449 -19 q 381 -11 409 -15 q 337 -6 359 -11 q 293 7 315 -1 l 293 43 q 271 135 293 94 q 208 226 249 176 q 112 355 145 305 q 69 447 84 402 q 60 490 63 468 q 58 544 58 512 q 130 807 58 707 q 311 950 203 908 q 533 992 419 992 q 602 987 567 992 q 677 973 637 983 q 817 908 751 957 q 917 774 884 860 l 984 774 l 984 716 l 639 716 l 639 774 l 683 774 q 627 883 671 835 q 499 934 585 934 q 387 891 430 934 q 320 775 345 849 q 301 628 301 699 l 305 559 q 537 647 405 647 q 642 627 594 647 q 733 573 690 612 q 789 486 767 540 l 846 486 l 846 428 l 502 428 l 502 486 "},"ø":{"x_min":78,"x_max":1035,"ha":1115,"o":"m 643 47 l 860 47 l 854 110 l 849 223 l 849 370 l 849 474 q 849 512 849 493 q 849 556 849 531 q 853 603 849 584 q 864 632 857 622 q 897 649 872 649 l 917 649 l 938 649 l 1001 649 l 1017 649 q 1035 626 1033 649 l 1035 596 l 1024 544 q 1017 473 1020 515 q 1014 375 1014 432 q 1015 300 1014 331 q 1018 240 1016 269 l 1029 137 l 1035 88 l 1035 40 q 1023 7 1035 15 q 962 0 1011 0 l 130 0 q 102 9 111 0 q 87 45 93 18 l 82 98 l 82 158 l 78 370 l 78 467 q 78 520 78 493 q 82 556 81 545 q 86 602 82 584 q 98 635 90 621 q 129 649 107 649 l 150 649 l 171 649 l 236 649 l 251 649 q 269 626 268 649 l 264 596 l 255 544 l 249 471 l 249 375 q 249 321 249 357 q 249 267 249 285 l 258 47 l 475 47 q 462 371 462 147 l 464 483 q 465 529 464 505 q 471 576 466 552 q 486 635 475 623 q 516 649 494 647 l 534 649 l 558 649 l 622 649 l 636 649 q 654 626 653 649 l 643 561 l 636 469 l 636 375 l 636 272 l 641 180 l 641 112 l 643 47 "},"â":{"x_min":75,"x_max":670,"ha":732,"o":"m 133 646 l 466 646 q 569 632 540 646 q 599 566 599 619 q 536 447 599 490 q 350 363 473 404 l 350 355 q 567 266 465 329 q 670 93 670 202 q 667 63 670 77 q 653 31 665 48 q 614 5 640 13 l 545 0 l 120 0 q 96 7 105 0 q 79 52 87 15 q 75 152 75 86 l 75 238 l 82 483 l 88 586 q 103 635 95 627 q 133 646 111 643 m 249 390 q 337 412 299 390 q 395 473 374 435 q 417 542 417 511 q 394 586 417 573 q 327 600 372 600 l 255 600 l 249 498 l 249 390 m 249 47 l 283 47 l 334 47 q 411 51 383 47 q 453 73 439 55 q 467 128 467 91 q 440 217 467 170 q 364 301 415 267 q 244 336 314 336 l 243 289 l 243 219 l 249 47 "},"Ä":{"x_min":11.109375,"x_max":950,"ha":961,"o":"m 725 972 l 725 914 l 647 914 l 676 702 q 686 639 680 677 q 700 564 691 600 l 731 408 q 761 270 747 328 q 793 158 775 212 q 845 58 825 58 l 866 67 q 909 76 879 76 q 939 62 929 76 q 950 28 950 48 q 932 -30 950 15 q 902 -131 915 -75 q 885 -224 894 -201 q 850 -247 876 -247 q 820 -233 827 -247 q 806 -185 813 -219 q 727 -32 787 -65 q 570 0 666 0 l 429 0 q 276 -12 330 0 q 202 -58 223 -27 q 162 -154 180 -90 l 150 -197 l 140 -226 q 106 -247 131 -247 q 77 -230 86 -247 l 70 -205 l 66 -181 q 25 -15 54 -80 l 11 36 q 27 66 11 57 q 65 76 44 76 q 91 73 84 76 l 115 71 q 151 94 143 71 l 158 125 l 166 180 l 180 255 l 204 341 q 214 376 209 359 q 227 409 219 393 l 270 508 q 301 568 284 537 q 348 651 318 600 l 404 757 q 423 851 423 808 q 341 914 423 914 l 266 914 l 266 972 l 725 972 m 361 58 l 602 58 l 587 117 l 575 162 q 522 379 547 267 q 473 609 497 490 l 459 686 q 375 554 418 631 q 337 477 355 516 q 304 397 319 438 q 281 326 294 370 q 260 252 268 283 q 248 194 252 221 q 244 148 244 167 q 254 92 244 112 q 291 64 263 73 q 361 58 322 58 "},"ш":{"x_min":78,"x_max":1035,"ha":1115,"o":"m 643 47 l 860 47 l 854 110 l 849 223 l 849 370 l 849 474 q 849 512 849 493 q 849 556 849 531 q 853 603 849 584 q 864 632 857 622 q 897 649 872 649 l 917 649 l 938 649 l 1001 649 l 1017 649 q 1035 626 1033 649 l 1035 596 l 1024 544 q 1017 473 1020 515 q 1014 375 1014 432 q 1015 300 1014 331 q 1018 240 1016 269 l 1029 137 l 1035 88 l 1035 40 q 1023 7 1035 15 q 962 0 1011 0 l 130 0 q 102 9 111 0 q 87 45 93 18 l 82 98 l 82 158 l 78 370 l 78 467 q 78 520 78 493 q 82 556 81 545 q 86 602 82 584 q 98 635 90 621 q 129 649 107 649 l 150 649 l 171 649 l 236 649 l 251 649 q 269 626 268 649 l 264 596 l 255 544 l 249 471 l 249 375 q 249 321 249 357 q 249 267 249 285 l 258 47 l 475 47 q 462 371 462 147 l 464 483 q 465 529 464 505 q 471 576 466 552 q 486 635 475 623 q 516 649 494 647 l 534 649 l 558 649 l 622 649 l 636 649 q 654 626 653 649 l 643 561 l 636 469 l 636 375 l 636 272 l 641 180 l 641 112 l 643 47 "},"Я":{"x_min":50,"x_max":1019.453125,"ha":1065,"o":"m 701 526 l 543 836 q 448 686 500 776 l 386 583 q 294 402 316 444 q 259 323 272 359 q 201 193 247 287 q 166 98 184 148 q 130 12 137 15 l 90 8 l 50 13 l 68 62 l 83 108 l 105 169 l 125 211 l 154 279 q 209 391 184 343 q 277 533 234 440 q 359 690 311 611 l 388 745 l 411 798 l 431 837 l 455 863 l 470 904 l 491 934 l 395 934 l 395 993 l 686 993 l 851 605 l 950 316 l 1019 1 l 852 2 l 791 270 l 701 526 m 462 1 l 462 370 l 261 370 l 272 430 l 356 430 l 466 429 l 568 429 l 716 430 l 777 430 l 787 370 l 573 370 l 573 1 l 462 1 "},"Ч":{"x_min":54,"x_max":1022,"ha":1076,"o":"m 692 58 l 692 429 q 470 443 564 429 q 299 506 377 458 q 177 666 214 561 q 161 721 169 691 q 146 783 153 751 q 139 844 142 812 q 137 914 137 876 l 54 914 l 54 972 l 470 972 l 470 914 l 377 914 l 376 850 q 439 579 376 673 q 646 485 502 485 l 692 485 l 692 914 l 605 914 l 605 972 l 1022 972 l 1022 914 l 907 914 l 907 58 l 1022 58 l 1022 0 l 596 0 l 596 58 l 692 58 "},"¸":{"x_min":54,"x_max":677.609375,"ha":692,"o":"m 641 583 l 677 540 q 548 492 601 492 q 428 563 492 492 l 391 602 q 356 615 375 615 q 272 526 294 615 q 250 330 250 437 q 339 383 281 352 q 434 409 396 409 q 483 401 458 409 q 508 390 496 398 l 537 375 q 579 357 562 359 q 631 379 608 357 l 659 341 q 583 271 622 300 l 547 247 q 511 241 533 241 q 445 264 481 241 l 413 284 l 390 297 q 343 307 368 307 q 250 267 295 307 q 302 87 250 158 q 442 17 354 17 q 622 89 523 17 l 648 59 q 398 -47 549 -47 q 326 -41 358 -47 q 251 -19 295 -35 q 116 82 174 7 q 69 169 88 118 q 54 281 54 219 l 54 329 q 60 390 54 361 q 74 438 67 419 q 90 477 81 458 q 189 611 124 558 q 351 665 254 665 q 559 595 449 665 q 610 572 590 575 q 641 583 629 572 m 184 904 l 231 904 l 287 904 l 306 904 q 322 884 319 904 l 322 851 l 322 818 l 322 783 l 322 754 q 304 735 322 739 l 289 735 l 230 735 l 210 735 l 184 735 q 159 745 166 735 q 153 800 153 756 l 153 833 l 153 855 q 153 884 153 873 l 160 901 l 184 904 m 439 904 l 487 904 l 541 904 l 560 904 q 576 884 573 904 l 576 851 l 576 818 l 576 783 l 576 754 q 558 735 576 739 l 543 735 l 485 735 l 465 735 l 439 735 q 414 745 421 735 q 408 800 408 756 l 408 830 l 408 854 q 408 884 408 873 l 415 900 l 439 904 "},"a":{"x_min":55,"x_max":661,"ha":692,"o":"m 325 646 l 467 646 q 484 637 480 646 l 485 622 l 488 601 l 494 572 l 505 534 l 514 493 l 526 451 q 595 193 572 265 q 641 66 624 105 q 661 12 658 27 q 633 0 661 0 l 491 0 q 476 22 484 0 q 476 41 476 36 l 460 94 l 443 147 l 436 175 q 425 210 434 191 q 204 -15 355 -15 q 117 12 148 -15 q 68 83 85 40 q 55 165 55 129 q 71 241 55 201 q 91 280 80 259 q 118 325 102 300 l 167 389 l 228 458 l 271 504 l 303 540 q 311 562 311 552 q 302 609 311 580 l 298 637 q 325 646 298 646 m 336 508 q 227 354 256 419 q 198 254 198 288 q 218 189 198 218 q 279 160 238 160 q 343 178 314 160 q 384 223 371 197 l 393 248 l 398 272 q 375 373 398 298 l 357 434 l 348 474 q 336 508 345 491 "},"—":{"x_min":131.9375,"x_max":1327.78125,"ha":1460,"o":"m 131 335 l 1327 335 l 1327 259 l 131 259 l 131 335 "},"N":{"x_min":54,"x_max":1022,"ha":1076,"o":"m 1022 0 l 596 0 l 596 58 l 692 58 l 692 298 l 384 673 l 384 58 l 480 58 l 480 0 l 54 0 l 54 58 l 169 58 l 169 914 l 54 914 l 54 972 l 480 972 l 480 914 l 384 914 l 384 766 l 692 390 l 692 914 l 596 914 l 596 972 l 1022 972 l 1022 914 l 907 914 l 907 58 l 1022 58 l 1022 0 "},"ú":{"x_min":15,"x_max":903,"ha":961,"o":"m 192 397 l 119 385 q 104 429 112 412 l 86 469 l 65 508 l 38 550 q 15 612 15 586 q 27 647 15 630 q 55 664 40 664 l 92 659 l 137 652 l 228 646 l 320 646 l 449 646 l 508 646 l 528 646 q 546 623 545 646 l 545 608 q 537 578 545 596 l 528 537 l 525 488 q 521 355 521 439 q 672 334 604 355 q 792 273 740 313 q 881 160 859 223 q 903 53 903 98 q 883 7 903 17 q 824 -3 864 -3 l 776 -3 l 760 -3 l 744 -3 l 400 -3 q 353 51 353 -3 l 353 235 l 357 436 q 359 514 357 487 q 367 599 361 541 l 337 599 q 205 564 240 599 q 174 476 174 529 q 192 397 174 451 m 523 44 l 684 44 l 709 44 l 709 89 q 696 169 709 127 q 642 248 683 210 q 523 294 600 285 l 521 219 l 521 122 q 521 85 521 102 q 523 44 521 67 "},"д":{"x_min":0,"x_max":768.0625,"ha":768,"o":"m 426 -1 l 320 -1 q 217 -28 255 -1 q 179 -108 179 -55 q 182 -140 179 -123 q 190 -173 186 -156 l 216 -251 l 145 -261 q 94 -151 120 -198 q 38 -65 68 -104 q 0 20 0 -10 q 8 37 0 27 q 38 51 16 46 l 65 51 q 118 58 101 51 q 145 83 134 66 q 172 135 156 100 l 205 217 l 237 311 l 266 409 q 286 492 279 459 q 293 547 293 525 q 291 579 293 569 q 282 601 290 589 q 271 634 273 618 q 302 646 271 646 l 344 646 l 385 646 l 441 646 l 487 650 q 507 645 502 650 q 515 618 512 641 q 576 329 515 520 q 630 170 608 229 q 640 139 635 152 q 649 118 645 126 l 666 87 q 691 55 677 65 l 715 50 l 727 51 q 755 43 745 51 q 768 20 765 34 q 731 -59 768 -6 q 620 -261 672 -140 l 550 -251 q 587 -108 587 -159 q 534 -22 587 -44 q 426 -1 481 -1 m 190 46 l 505 46 l 481 91 l 458 151 q 373 460 393 327 l 369 487 l 363 522 l 343 522 q 268 241 326 422 q 243 170 255 204 q 223 119 230 136 q 190 46 208 77 "},"2":{"x_min":65.671875,"x_max":680.953125,"ha":768,"o":"m 649 211 l 680 183 l 586 -15 l 546 -15 l 474 -2 l 371 12 q 258 21 297 21 q 104 -15 158 21 l 67 23 l 132 93 l 196 160 l 260 239 q 394 428 349 350 q 457 551 440 505 q 471 622 468 595 q 433 750 471 701 q 324 796 393 796 q 237 773 271 796 q 149 688 203 750 l 65 769 q 390 985 182 985 q 509 959 453 985 q 602 883 565 933 q 639 766 639 833 q 621 664 639 719 q 562 535 604 608 q 447 363 521 462 q 366 259 411 315 q 267 143 321 204 q 375 168 315 168 l 457 159 q 560 150 514 150 q 607 168 590 150 l 628 184 l 649 211 "},"М":{"x_min":54,"x_max":1466.5,"ha":1499,"o":"m 603 58 l 451 764 q 362 608 402 687 q 311 468 330 539 q 292 319 292 398 q 302 191 292 265 l 312 89 l 312 19 q 295 -8 310 0 q 262 -15 287 -12 l 212 -9 l 176 -8 l 131 -10 l 102 -15 q 62 5 74 -15 l 54 35 l 54 87 q 81 270 54 191 q 112 347 94 309 q 151 417 130 385 l 270 586 q 384 756 351 695 q 417 878 417 817 l 415 914 l 312 914 l 312 972 l 709 972 l 709 914 l 631 914 l 808 99 l 963 914 l 901 914 l 901 972 l 1274 972 l 1274 914 l 1185 914 l 1370 58 l 1466 58 l 1466 0 l 1095 0 l 1095 58 l 1155 58 l 998 786 l 861 58 l 937 58 l 937 0 l 530 0 l 530 58 l 603 58 "},"ü":{"x_min":76,"x_max":640,"ha":718,"o":"m 482 -3 l 124 -3 q 76 51 76 -3 l 76 237 l 76 462 q 76 493 76 478 q 76 527 76 509 l 81 588 q 98 634 86 621 q 130 649 110 647 l 150 649 l 173 649 l 237 649 l 252 649 q 270 626 269 649 l 263 582 l 251 490 q 247 357 247 441 q 332 351 291 357 q 409 333 373 345 q 530 273 481 312 q 640 53 640 184 q 620 6 640 17 q 561 -3 598 -3 l 537 -3 l 513 -3 l 497 -3 l 482 -3 m 247 44 l 406 44 l 430 44 l 430 89 q 417 169 430 127 q 363 248 405 210 q 245 294 321 285 l 243 219 l 247 122 q 247 85 247 102 q 247 44 247 67 "},"Z":{"x_min":38.890625,"x_max":835,"ha":846,"o":"m 44 47 l 543 913 l 480 912 l 431 912 q 298 896 340 912 q 234 857 252 884 l 225 835 l 205 782 l 176 683 q 138 655 165 655 q 100 713 111 655 q 58 878 91 800 q 38 942 41 915 q 94 981 38 981 l 150 976 l 200 972 l 783 972 l 780 933 l 263 58 l 318 58 l 379 57 l 477 56 q 727 17 619 56 q 835 -152 835 -20 q 809 -248 835 -203 q 723 -324 783 -293 q 576 -355 664 -355 q 469 -342 531 -355 l 483 -306 l 495 -306 q 583 -266 559 -306 q 610 -177 610 -226 q 564 -56 610 -97 q 447 -9 519 -20 q 364 -2 412 -5 q 254 0 315 0 l 44 0 l 44 47 "},"ь":{"x_min":76,"x_max":640,"ha":718,"o":"m 482 -3 l 124 -3 q 76 51 76 -3 l 76 237 l 76 462 q 76 493 76 478 q 76 527 76 509 l 81 588 q 98 634 86 621 q 130 649 110 647 l 150 649 l 173 649 l 237 649 l 252 649 q 270 626 269 649 l 263 582 l 251 490 q 247 357 247 441 q 332 351 291 357 q 409 333 373 345 q 530 273 481 312 q 640 53 640 184 q 620 6 640 17 q 561 -3 598 -3 l 537 -3 l 513 -3 l 497 -3 l 482 -3 m 247 44 l 406 44 l 430 44 l 430 89 q 417 169 430 127 q 363 248 405 210 q 245 294 321 285 l 243 219 l 247 122 q 247 85 247 102 q 247 44 247 67 "},"u":{"x_min":23,"x_max":783,"ha":729,"o":"m 156 898 l 191 865 q 124 745 124 805 q 145 677 124 711 q 196 626 170 644 l 228 602 l 273 572 q 329 534 299 555 q 385 490 359 513 l 416 513 l 450 540 l 516 590 l 564 630 q 628 705 603 662 q 653 800 653 748 q 645 866 653 834 q 623 921 638 898 q 580 976 607 944 l 610 1024 l 652 1011 l 694 1001 l 732 997 l 766 1000 l 777 1000 q 783 987 783 993 l 783 973 l 778 895 l 770 840 q 733 744 762 800 q 634 615 705 688 q 436 448 568 550 q 520 368 492 401 q 571 291 552 334 q 590 200 590 248 q 559 91 590 140 q 477 15 532 46 q 350 -15 421 -15 q 230 9 281 -15 q 144 80 179 33 q 117 182 117 128 q 144 283 117 241 q 215 362 172 325 l 246 390 l 184 434 l 141 465 l 102 497 q 45 568 71 523 q 23 661 23 612 q 60 791 23 729 q 103 848 77 818 q 128 875 120 868 q 156 898 136 883 m 303 355 q 191 183 191 276 q 235 83 191 123 q 352 43 280 43 q 447 77 408 43 q 482 156 482 116 q 438 254 482 205 q 410 283 420 273 q 390 299 408 286 q 333 337 363 322 l 317 347 l 303 355 "},"Ó":{"x_min":29,"x_max":934.546875,"ha":950,"o":"m 594 0 l 522 0 l 515 -106 l 515 -169 q 532 -312 515 -237 l 532 -347 l 403 -357 q 407 -229 403 -291 q 422 -90 411 -166 l 433 0 l 306 0 l 85 914 l 29 914 l 29 972 l 402 972 l 402 914 l 306 914 l 480 174 l 538 437 q 563 543 549 486 q 591 654 576 601 q 613 731 606 708 q 635 807 619 754 q 672 899 652 861 q 726 964 692 937 q 815 992 760 992 q 849 989 838 992 q 892 978 860 987 q 934 952 923 969 q 922 914 934 937 l 913 891 l 909 865 q 905 762 905 837 l 884 762 l 873 768 l 859 775 q 802 796 822 796 q 713 737 755 796 q 647 595 676 679 q 601 415 622 505 l 570 265 l 524 58 l 594 58 l 594 0 "},"k":{"x_min":73,"x_max":626.171875,"ha":654,"o":"m 240 350 l 251 350 q 562 661 424 661 q 603 654 591 661 q 622 638 620 649 q 610 609 622 624 l 592 569 l 584 537 l 581 496 l 580 479 l 580 467 l 544 465 q 480 508 524 508 q 399 469 443 508 q 321 377 360 438 l 292 336 q 451 266 381 310 q 559 171 521 221 q 609 80 592 125 q 626 12 626 35 q 574 -6 626 -6 l 548 -2 l 524 0 q 478 -6 487 0 l 453 -6 q 434 5 441 -6 l 423 53 l 410 109 l 390 162 q 326 249 366 213 q 240 301 288 287 q 253 40 240 135 l 253 24 q 189 0 253 0 l 124 0 q 95 7 105 0 q 79 55 86 15 q 73 159 73 95 l 73 369 q 78 555 73 505 q 82 602 78 583 l 94 634 q 125 648 103 647 l 142 647 l 160 645 l 230 650 l 245 650 q 262 627 262 645 l 253 563 l 244 465 l 240 350 "},"Ù":{"x_min":54,"x_max":1608.15625,"ha":1615,"o":"m 384 58 l 665 58 l 665 914 l 569 914 l 569 972 l 976 972 l 976 914 l 880 914 l 880 58 l 1161 58 l 1161 914 l 1065 914 l 1065 972 l 1491 972 l 1491 914 l 1376 914 l 1376 58 l 1423 58 l 1459 58 l 1488 63 l 1544 71 q 1585 53 1562 71 q 1608 -4 1608 36 q 1584 -102 1608 -36 q 1541 -252 1548 -207 q 1529 -314 1537 -297 q 1498 -330 1522 -330 q 1470 -314 1483 -330 l 1456 -279 l 1444 -233 q 1403 -100 1420 -141 q 1346 -29 1385 -58 q 1231 0 1306 0 l 54 0 l 54 58 l 169 58 l 169 914 l 54 914 l 54 972 l 480 972 l 480 914 l 384 914 l 384 58 "},"З":{"x_min":18,"x_max":828,"ha":882,"o":"m 301 445 l 299 525 l 342 524 q 473 541 430 524 q 533 598 515 558 q 552 697 552 637 l 552 743 q 527 879 552 825 q 430 934 503 934 q 331 899 373 934 q 290 782 290 864 q 295 750 290 758 l 295 727 l 290 713 l 256 712 l 183 708 l 149 706 q 112 702 134 706 q 74 695 89 698 l 58 695 l 55 723 q 121 889 55 827 q 273 971 188 950 q 438 992 358 992 q 618 959 537 992 q 747 872 701 930 q 796 738 796 816 q 755 611 796 660 q 670 544 715 562 l 625 524 l 562 503 l 555 501 l 550 501 l 550 476 q 575 473 566 476 q 595 468 584 471 q 627 457 606 464 q 769 383 711 432 q 828 224 828 334 q 790 86 828 147 q 687 -8 752 26 q 623 -33 658 -23 q 551 -43 587 -43 q 480 -36 508 -43 l 411 -20 l 347 -2 l 306 6 l 266 15 q 211 -71 211 15 l 217 -100 l 217 -119 q 202 -139 217 -137 l 170 -136 l 119 -133 q 81 -144 97 -133 l 66 -153 q 58 -153 59 -153 q 18 -56 18 -153 q 60 69 18 22 q 160 117 103 117 q 211 110 191 117 l 282 86 l 346 64 l 421 43 l 472 38 q 558 89 536 38 q 577 151 570 117 q 584 225 584 185 l 584 303 q 534 408 578 372 q 422 445 490 445 l 301 445 "},"в":{"x_min":75,"x_max":670,"ha":732,"o":"m 133 646 l 466 646 q 569 632 540 646 q 599 566 599 619 q 536 447 599 490 q 350 363 473 404 l 350 355 q 567 266 465 329 q 670 93 670 202 q 667 63 670 77 q 653 31 665 48 q 614 5 640 13 l 545 0 l 120 0 q 96 7 105 0 q 79 52 87 15 q 75 152 75 86 l 75 238 l 82 483 l 88 586 q 103 635 95 627 q 133 646 111 643 m 249 390 q 337 412 299 390 q 395 473 374 435 q 417 542 417 511 q 394 586 417 573 q 327 600 372 600 l 255 600 l 249 498 l 249 390 m 249 47 l 283 47 l 334 47 q 411 51 383 47 q 453 73 439 55 q 467 128 467 91 q 440 217 467 170 q 364 301 415 267 q 244 336 314 336 l 243 289 l 243 219 l 249 47 "},"С":{"x_min":58,"x_max":923,"ha":963,"o":"m 923 628 l 559 628 l 559 686 l 620 686 q 575 879 620 826 q 469 934 533 934 q 389 908 424 934 q 325 813 353 882 q 302 635 302 744 q 304 545 302 569 q 313 474 306 520 q 329 390 321 427 q 353 287 336 352 q 383 91 383 174 l 381 71 l 374 49 l 369 32 l 366 21 l 366 13 q 399 5 381 5 q 498 51 447 5 q 584 181 549 98 q 620 347 620 264 l 620 381 l 559 381 l 559 439 l 923 439 l 923 381 l 866 381 q 854 299 866 340 q 818 218 842 258 q 709 87 777 141 q 557 1 641 33 q 395 -31 473 -31 q 294 -14 338 -31 l 294 5 l 294 32 l 289 70 q 261 137 285 96 q 234 183 250 159 q 190 244 218 206 q 104 372 130 320 q 66 470 78 423 q 58 561 58 511 q 114 787 58 690 q 269 938 170 884 q 482 992 367 992 q 759 896 673 992 q 866 686 845 801 l 923 686 l 923 628 "},"ß":{"x_min":50,"x_max":1019.453125,"ha":1065,"o":"m 701 526 l 543 836 q 448 686 500 776 l 386 583 q 294 402 316 444 q 259 323 272 359 q 201 193 247 287 q 166 98 184 148 q 130 12 137 15 l 90 8 l 50 13 l 68 62 l 83 108 l 105 169 l 125 211 l 154 279 q 209 391 184 343 q 277 533 234 440 q 359 690 311 611 l 388 745 l 411 798 l 431 837 l 455 863 l 470 904 l 491 934 l 395 934 l 395 993 l 686 993 l 851 605 l 950 316 l 1019 1 l 852 2 l 791 270 l 701 526 m 462 1 l 462 370 l 261 370 l 272 430 l 356 430 l 466 429 l 568 429 l 716 430 l 777 430 l 787 370 l 573 370 l 573 1 l 462 1 "},"é":{"x_min":71,"x_max":658.28125,"ha":733,"o":"m 236 375 l 470 515 l 477 611 q 487 638 479 630 q 517 645 495 645 l 640 645 q 658 623 656 645 l 651 566 q 635 375 635 470 q 656 40 635 197 q 648 9 656 19 q 602 0 639 0 l 521 0 q 493 12 504 0 q 472 79 483 25 q 466 221 466 135 l 466 354 l 470 459 l 236 317 l 240 186 q 244 129 240 165 q 258 40 249 94 q 249 9 258 19 q 202 0 240 0 l 120 0 q 93 9 102 0 q 80 54 84 18 l 75 141 l 71 263 l 71 369 l 71 450 q 71 483 71 466 q 71 520 71 500 q 73 569 71 552 q 75 594 73 581 q 82 617 79 604 q 92 636 84 630 q 117 645 100 643 l 241 645 q 259 623 258 645 l 252 566 q 236 375 236 459 m 521 888 l 551 869 q 461 738 509 776 q 377 701 413 701 q 315 746 348 701 q 262 878 283 792 l 254 916 l 291 926 q 396 826 327 826 q 508 870 478 826 l 521 888 "},"s":{"x_min":16,"x_max":749,"ha":808,"o":"m 52 -125 l 16 -94 q 107 25 59 -23 q 147 54 128 42 q 182 74 166 67 q 214 81 199 78 q 252 84 229 84 q 286 84 279 84 l 306 75 q 329 68 316 75 l 361 58 q 428 46 403 46 q 525 98 495 46 q 555 211 555 150 q 520 289 555 254 q 424 320 485 320 q 359 310 402 320 q 207 292 261 292 q 93 329 150 292 q 41 458 41 366 q 90 584 41 538 q 204 645 139 629 q 265 656 232 652 q 331 661 299 661 q 472 638 407 661 q 579 584 536 619 q 621 537 621 555 q 559 497 621 529 q 475 469 502 472 l 470 477 l 456 504 l 438 543 q 418 573 431 559 q 354 600 396 600 q 265 568 300 600 q 230 487 230 536 q 270 401 230 437 q 375 368 310 368 l 410 372 l 467 383 l 503 393 l 542 402 l 573 405 q 708 344 668 405 q 749 221 749 283 q 725 116 749 168 q 637 18 704 62 q 458 -26 571 -26 l 432 -26 q 400 -20 417 -26 l 349 -12 l 289 -8 q 174 -28 215 -8 q 93 -87 134 -49 l 79 -99 l 66 -113 l 52 -125 "},"B":{"x_min":39,"x_max":817,"ha":903,"o":"m 154 58 l 154 498 q 160 643 154 580 q 184 766 167 707 q 296 933 213 875 q 527 992 379 992 q 646 975 593 992 q 739 923 700 958 q 797 850 779 889 q 811 811 805 832 q 817 768 817 790 q 753 618 817 666 q 601 570 689 570 q 475 615 542 570 l 414 538 q 512 473 464 498 q 605 440 560 452 q 655 433 630 435 q 707 430 679 430 l 719 430 q 785 419 764 430 q 811 392 805 410 l 817 366 l 817 333 l 817 112 l 817 97 l 817 74 q 812 36 817 51 q 783 8 807 20 q 709 0 759 0 l 39 0 l 39 58 l 154 58 m 369 58 l 540 58 q 588 75 574 58 q 602 151 602 92 l 602 307 q 593 353 602 339 q 542 389 585 366 q 435 452 476 425 q 369 512 405 471 l 369 58 m 369 561 l 449 671 q 514 647 490 649 q 573 679 544 647 q 602 790 602 712 q 571 899 602 864 q 492 934 540 934 q 395 855 421 934 q 369 655 369 776 l 369 609 l 369 561 "},"В":{"x_min":39,"x_max":817,"ha":903,"o":"m 154 58 l 154 498 q 160 643 154 580 q 184 766 167 707 q 296 933 213 875 q 527 992 379 992 q 646 975 593 992 q 739 923 700 958 q 797 850 779 889 q 811 811 805 832 q 817 768 817 790 q 753 618 817 666 q 601 570 689 570 q 475 615 542 570 l 414 538 q 512 473 464 498 q 605 440 560 452 q 655 433 630 435 q 707 430 679 430 l 719 430 q 785 419 764 430 q 811 392 805 410 l 817 366 l 817 333 l 817 112 l 817 97 l 817 74 q 812 36 817 51 q 783 8 807 20 q 709 0 759 0 l 39 0 l 39 58 l 154 58 m 369 58 l 540 58 q 588 75 574 58 q 602 151 602 92 l 602 307 q 593 353 602 339 q 542 389 585 366 q 435 452 476 425 q 369 512 405 471 l 369 58 m 369 561 l 449 671 q 514 647 490 649 q 573 679 544 647 q 602 790 602 712 q 571 899 602 864 q 492 934 540 934 q 395 855 421 934 q 369 655 369 776 l 369 609 l 369 561 "},"?":{"x_min":61,"x_max":649.890625,"ha":731,"o":"m 340 267 l 276 267 q 352 502 276 380 l 383 549 q 412 599 402 574 l 422 620 l 430 652 l 437 685 l 438 723 q 409 861 438 798 q 340 956 383 924 q 261 991 298 991 q 189 940 227 991 q 136 818 151 890 l 61 818 q 81 898 66 858 q 98 935 90 919 q 122 973 106 952 q 232 1091 169 1045 q 337 1138 295 1138 q 427 1106 377 1138 q 531 1018 477 1075 q 615 902 581 965 q 649 785 649 839 q 641 696 649 740 q 613 604 633 651 q 449 421 580 512 l 393 378 q 357 334 375 367 q 340 267 340 301 m 225 66 q 225 111 225 97 l 230 140 q 255 150 235 148 l 303 150 l 360 150 l 375 150 q 393 130 390 150 l 393 97 l 393 64 l 393 28 l 393 0 q 375 -19 393 -14 l 360 -19 l 302 -19 l 256 -19 q 233 -6 240 -19 q 226 18 227 5 q 225 66 225 31 "},"H":{"x_min":26,"x_max":1021.828125,"ha":1076,"o":"m 447 909 l 447 667 q 609 575 540 601 q 764 548 677 548 l 821 550 l 865 550 q 898 521 893 541 q 907 459 907 500 l 907 58 l 1021 58 l 1021 0 l 615 0 l 615 58 l 692 58 l 692 191 l 692 388 l 692 405 l 692 421 q 676 475 692 463 q 619 499 661 486 q 573 516 595 506 q 529 535 550 525 l 489 556 l 447 584 l 447 58 l 525 58 l 525 0 l 116 0 l 116 58 l 232 58 l 232 909 l 26 909 l 26 967 l 232 967 l 232 1183 l 447 1242 l 447 967 l 819 967 l 819 909 l 447 909 "},"î":{"x_min":54.171875,"x_max":561.109375,"ha":615,"o":"m 54 281 q 100 483 54 387 q 207 637 145 580 q 302 694 269 694 q 372 673 326 694 q 456 614 412 656 q 531 508 501 573 q 561 362 561 444 q 536 229 561 299 q 509 162 526 197 l 472 93 q 389 -7 436 32 q 309 -47 343 -47 q 206 2 263 -47 q 97 133 148 51 q 80 168 88 150 q 65 207 72 186 q 56 245 59 229 q 54 281 54 261 m 195 538 q 163 484 175 511 q 152 427 152 456 q 181 302 152 373 q 273 178 209 231 q 423 125 337 125 q 447 226 447 172 q 418 369 447 302 q 331 483 388 436 q 195 538 273 530 "},"c":{"x_min":58.328125,"x_max":519.4375,"ha":578,"o":"m 473 228 l 519 191 q 407 25 475 97 q 297 -47 340 -47 q 275 -42 286 -47 q 225 -10 252 -34 q 144 84 183 22 q 81 212 105 145 q 58 334 58 279 q 97 496 58 410 q 191 637 137 581 q 283 694 245 694 q 331 680 295 694 l 409 645 q 477 605 447 627 q 506 564 506 582 q 468 510 506 551 l 434 473 l 419 448 l 411 438 l 406 434 l 398 441 q 377 464 386 451 q 315 528 352 501 q 213 569 279 555 q 190 448 190 517 q 218 317 190 384 q 293 195 247 249 q 394 122 337 146 q 454 198 422 152 l 462 211 l 473 228 "},"•":{"x_min":211.109375,"x_max":519.4375,"ha":731,"o":"m 211 337 q 234 417 211 380 q 290 473 256 454 q 365 492 325 492 q 438 472 405 492 q 497 418 475 455 q 519 337 519 381 q 497 258 519 292 q 439 204 476 224 q 365 184 402 184 q 292 203 326 184 q 233 257 258 223 q 211 337 211 298 "},"н":{"x_min":71,"x_max":653.34375,"ha":725,"o":"m 465 313 l 238 435 l 238 348 q 247 151 238 220 l 257 40 q 246 6 257 13 q 183 0 235 0 l 118 0 q 90 12 103 0 q 76 66 82 25 q 71 169 71 108 l 71 369 l 71 478 q 71 516 71 497 q 71 560 71 535 q 75 609 71 593 q 86 636 79 625 q 116 649 93 647 l 139 649 l 160 649 l 220 649 l 235 649 q 253 626 252 649 q 249 575 253 586 l 241 543 l 238 492 l 464 368 l 465 430 q 470 579 465 539 q 485 633 475 619 q 516 649 494 647 l 534 649 l 556 649 l 620 649 l 635 649 q 653 626 651 649 l 648 596 l 637 546 l 630 466 l 630 375 l 630 301 q 630 258 630 279 q 635 225 634 236 l 639 162 l 645 113 l 651 40 q 640 9 651 18 q 579 0 629 0 l 514 0 q 486 7 494 0 q 470 48 478 15 l 465 126 l 465 313 "},"(":{"x_min":171,"x_max":576.390625,"ha":768,"o":"m 576 -245 l 544 -291 q 357 -108 443 -219 q 225 130 276 -2 q 204 193 214 159 q 186 262 194 226 q 175 338 179 298 q 171 411 171 379 l 171 461 q 200 679 171 579 q 284 869 229 779 q 544 1164 387 1043 l 576 1118 q 505 1015 533 1068 q 451 879 471 954 q 440 834 447 865 q 431 793 433 804 l 414 690 q 402 436 402 582 q 413 201 402 284 q 423 123 418 157 q 432 66 428 90 q 451 -6 436 43 q 505 -144 475 -86 l 539 -197 l 576 -245 "},"U":{"x_min":48,"x_max":920.21875,"ha":960,"o":"m 231 1018 l 281 977 q 214 908 238 947 q 191 834 191 869 q 241 729 191 781 q 370 629 284 688 q 509 525 456 569 q 680 648 600 569 q 760 845 760 727 q 686 1018 760 930 l 721 1061 l 779 1048 q 860 1040 824 1040 l 920 1044 q 910 983 916 1015 q 896 920 904 951 q 871 834 885 868 q 838 758 863 806 q 733 603 800 675 q 563 482 666 532 l 563 476 q 674 408 627 447 q 743 334 717 376 q 768 254 768 293 q 766 208 768 228 q 753 161 763 189 q 703 72 741 117 q 616 7 675 37 q 482 -19 559 -19 q 282 43 353 -19 q 212 210 212 105 q 242 325 212 268 q 334 416 274 379 q 225 453 273 429 q 135 512 178 476 q 48 695 48 582 q 50 738 48 725 q 60 780 52 751 q 109 869 68 809 q 231 1018 149 929 m 394 391 q 319 315 351 366 q 293 215 293 262 q 338 99 293 148 q 469 50 384 50 q 577 91 535 50 q 614 184 614 133 q 595 252 614 215 q 528 324 575 288 q 394 391 480 359 "},"Ñ":{"x_min":58,"x_max":923,"ha":963,"o":"m 923 628 l 559 628 l 559 686 l 620 686 q 575 879 620 826 q 469 934 533 934 q 389 908 424 934 q 325 813 353 882 q 302 635 302 744 q 304 545 302 569 q 313 474 306 520 q 329 390 321 427 q 353 287 336 352 q 383 91 383 174 l 381 71 l 374 49 l 369 32 l 366 21 l 366 13 q 399 5 381 5 q 498 51 447 5 q 584 181 549 98 q 620 347 620 264 l 620 381 l 559 381 l 559 439 l 923 439 l 923 381 l 866 381 q 854 299 866 340 q 818 218 842 258 q 709 87 777 141 q 557 1 641 33 q 395 -31 473 -31 q 294 -14 338 -31 l 294 5 l 294 32 l 289 70 q 261 137 285 96 q 234 183 250 159 q 190 244 218 206 q 104 372 130 320 q 66 470 78 423 q 58 561 58 511 q 114 787 58 690 q 269 938 170 884 q 482 992 367 992 q 759 896 673 992 q 866 686 845 801 l 923 686 l 923 628 "},"F":{"x_min":11.109375,"x_max":1294.453125,"ha":1306,"o":"m 990 520 l 1016 520 l 1031 520 l 1047 520 q 1158 528 1104 520 l 1233 538 q 1277 524 1263 538 q 1294 488 1291 511 l 1290 467 l 1273 428 l 1252 373 l 1234 311 q 1227 254 1227 279 q 1225 229 1227 237 l 1219 206 q 1187 190 1212 190 q 1159 202 1170 190 l 1143 259 q 1108 376 1120 347 q 1093 407 1104 391 q 1065 437 1081 422 q 981 463 1033 463 q 926 289 969 376 q 836 130 888 201 q 733 17 784 59 q 653 -25 683 -25 q 560 15 617 -25 q 540 29 546 23 q 502 59 520 43 l 442 123 q 346 280 385 194 q 308 463 308 365 q 237 437 266 463 q 195 375 208 412 l 162 259 q 147 206 154 220 q 118 190 140 191 q 86 210 95 190 q 77 253 77 230 q 76 279 77 266 q 71 307 75 293 q 66 332 68 321 q 52 372 62 346 l 29 430 l 15 464 l 11 485 q 27 520 11 504 q 72 535 44 535 l 97 533 q 126 528 111 533 l 173 520 l 237 520 l 261 520 l 283 520 l 312 520 q 348 679 312 590 q 438 841 384 767 q 550 965 493 916 q 644 1015 608 1015 q 740 983 686 1015 q 856 897 802 952 q 952 757 911 842 q 993 574 993 672 l 990 520 m 461 520 l 798 520 q 791 547 794 538 q 780 578 788 557 q 754 642 772 610 q 661 760 726 705 q 501 816 595 816 q 448 648 448 755 q 461 520 448 570 m 809 463 l 479 463 q 540 347 499 403 q 633 249 576 289 q 749 209 686 209 q 793 214 776 209 q 816 367 816 278 q 815 416 816 392 q 809 463 813 440 "},"м":{"x_min":23,"x_max":938.28125,"ha":960,"o":"m 263 646 l 372 646 q 402 637 395 646 q 418 576 409 629 q 429 490 418 546 q 444 417 434 465 q 469 309 455 369 q 502 179 484 249 q 528 292 510 240 q 551 361 540 334 q 572 405 557 376 q 610 511 610 487 l 610 550 l 605 598 l 600 637 q 632 646 600 646 l 745 646 q 777 641 773 646 q 785 608 781 637 l 792 539 l 808 424 q 846 265 820 347 q 925 62 871 184 q 938 16 938 34 q 931 0 938 4 l 907 0 l 813 0 q 746 67 781 0 q 686 222 711 134 l 666 298 l 652 367 l 641 424 q 609 344 625 389 q 575 239 593 298 l 552 143 q 543 63 543 97 l 543 33 q 532 0 543 0 l 425 0 q 392 11 403 0 q 364 65 381 19 l 335 166 l 317 236 l 267 477 q 179 321 216 412 q 142 158 142 229 l 146 116 l 155 81 l 167 48 l 177 20 l 181 9 q 166 0 181 1 l 45 0 q 23 62 23 0 q 143 375 23 179 l 195 461 l 211 495 q 230 590 230 541 l 230 627 q 263 646 234 646 "},"з":{"x_min":-19,"x_max":673,"ha":731,"o":"m 276 275 l 276 333 q 412 369 366 333 q 459 490 459 405 q 434 578 459 543 q 363 614 410 614 q 283 575 312 614 q 262 537 269 555 q 256 497 256 519 l 256 487 l 256 477 l 256 466 l 256 458 q 202 421 256 439 q 93 404 148 404 l 91 427 q 134 558 91 507 q 244 634 172 608 q 393 661 315 661 q 511 644 456 661 q 607 587 567 627 q 642 492 642 549 q 583 363 642 401 q 425 311 525 324 l 425 302 l 445 298 l 458 295 q 673 116 673 266 q 621 -17 673 33 q 475 -68 569 -68 q 355 -42 431 -68 l 276 -15 l 247 -11 q 121 -34 196 -11 q 10 -81 47 -58 l -19 -47 l 35 8 l 83 51 q 128 76 104 68 q 182 85 153 85 q 217 79 204 85 q 243 65 232 75 l 269 47 q 376 15 317 15 q 445 46 414 15 q 477 149 477 78 q 436 239 477 204 q 338 275 396 275 l 276 275 "},":":{"x_min":107,"x_max":276,"ha":385,"o":"m 107 576 q 115 646 107 634 q 140 660 119 657 l 166 660 l 187 660 l 243 660 l 258 660 q 276 639 273 660 l 276 606 l 276 575 l 276 545 l 276 512 q 258 492 276 496 l 243 492 l 186 492 l 139 492 q 113 504 117 492 q 107 539 108 516 q 107 576 107 563 m 107 84 q 111 140 107 121 q 121 163 115 159 q 140 168 127 168 l 165 168 l 187 168 l 243 168 l 258 168 q 276 147 273 168 l 276 114 l 276 83 l 276 53 l 276 20 q 258 0 276 1 l 243 0 l 186 0 l 139 0 q 112 12 119 0 l 107 47 l 107 84 "},"Û":{"x_min":54,"x_max":1329,"ha":1383,"o":"m 499 972 l 499 914 l 384 914 l 384 570 q 477 509 418 537 q 529 488 503 497 q 594 469 555 479 l 644 459 l 686 455 l 743 458 q 808 441 788 458 q 829 368 829 425 l 829 97 q 819 31 829 50 q 794 5 810 12 l 744 0 l 54 0 l 54 58 l 169 58 l 169 914 l 54 914 l 54 972 l 499 972 m 999 58 l 999 914 l 884 914 l 884 972 l 1329 972 l 1329 914 l 1214 914 l 1214 58 l 1329 58 l 1329 0 l 884 0 l 884 58 l 999 58 m 384 58 l 509 58 q 584 70 555 58 q 614 135 614 83 l 614 301 l 614 317 l 614 334 q 603 381 614 367 q 541 411 592 394 q 384 494 454 440 l 384 58 "},"*":{"x_min":130,"x_max":664,"ha":769,"o":"m 373 798 q 369 823 373 815 l 349 872 q 317 954 317 933 q 342 1010 317 989 q 395 1031 367 1031 q 431 1021 411 1031 q 461 997 450 1012 q 473 954 473 977 q 442 871 473 937 l 427 840 l 417 819 l 417 798 q 443 781 430 794 l 461 791 l 482 812 q 512 844 496 827 q 540 869 523 855 q 596 890 565 890 q 645 861 627 890 q 664 806 664 833 q 643 750 664 774 q 583 726 622 726 q 520 733 545 726 l 476 737 l 456 737 q 450 706 456 714 q 523 657 463 690 q 578 623 561 640 q 595 584 595 611 q 573 515 595 545 q 515 485 551 485 q 468 501 489 485 q 444 545 455 515 l 432 610 q 415 679 426 659 l 383 676 l 376 652 l 367 597 q 346 523 362 562 q 283 485 329 485 q 228 515 254 485 q 205 583 205 545 q 214 620 205 615 l 245 637 l 278 654 q 349 702 324 670 q 336 733 340 714 q 303 731 312 733 q 274 726 293 730 l 242 722 l 209 722 q 151 743 172 722 q 130 802 130 764 q 150 861 130 833 q 196 885 171 882 q 282 838 239 885 q 350 776 325 791 q 373 798 359 788 "},"V":{"x_min":29.171875,"x_max":1041.671875,"ha":1042,"o":"m 368 914 l 554 160 q 633 429 605 325 l 691 659 q 749 839 719 766 q 819 952 779 912 q 920 993 859 993 q 1002 976 941 993 q 1041 954 1040 967 l 1036 940 l 1023 906 l 1013 837 l 1012 763 l 990 763 l 943 787 l 908 793 q 815 746 845 793 q 756 585 786 699 q 673 296 737 506 l 659 249 l 643 194 l 631 155 l 623 128 l 612 88 l 602 58 l 668 58 l 668 0 l 377 0 l 144 914 l 29 914 l 29 972 l 465 972 l 465 914 l 368 914 "},"å":{"x_min":54,"x_max":677.609375,"ha":692,"o":"m 641 583 l 677 540 q 548 492 601 492 q 428 563 492 492 l 391 602 q 356 615 375 615 q 272 526 294 615 q 250 330 250 437 q 339 383 281 352 q 434 409 396 409 q 483 401 458 409 q 508 390 496 398 l 537 375 q 579 357 562 359 q 631 379 608 357 l 659 341 q 583 271 622 300 l 547 247 q 511 241 533 241 q 445 264 481 241 l 413 284 l 390 297 q 343 307 368 307 q 250 267 295 307 q 302 87 250 158 q 442 17 354 17 q 622 89 523 17 l 648 59 q 398 -47 549 -47 q 326 -41 358 -47 q 251 -19 295 -35 q 116 82 174 7 q 69 169 88 118 q 54 281 54 219 l 54 329 q 60 390 54 361 q 74 438 67 419 q 90 477 81 458 q 189 611 124 558 q 351 665 254 665 q 559 595 449 665 q 610 572 590 575 q 641 583 629 572 "}," ":{"x_min":0,"x_max":0,"ha":975},"У":{"x_min":29,"x_max":934.546875,"ha":950,"o":"m 594 0 l 522 0 l 515 -106 l 515 -169 q 532 -312 515 -237 l 532 -347 l 403 -357 q 407 -229 403 -291 q 422 -90 411 -166 l 433 0 l 306 0 l 85 914 l 29 914 l 29 972 l 402 972 l 402 914 l 306 914 l 480 174 l 538 437 q 563 543 549 486 q 591 654 576 601 q 613 731 606 708 q 635 807 619 754 q 672 899 652 861 q 726 964 692 937 q 815 992 760 992 q 849 989 838 992 q 892 978 860 987 q 934 952 923 969 q 922 914 934 937 l 913 891 l 909 865 q 905 762 905 837 l 884 762 l 873 768 l 859 775 q 802 796 822 796 q 713 737 755 796 q 647 595 676 679 q 601 415 622 505 l 570 265 l 524 58 l 594 58 l 594 0 "},"0":{"x_min":61.109375,"x_max":706.953125,"ha":768,"o":"m 409 -19 q 319 24 376 -19 q 259 72 286 46 l 201 139 q 100 308 141 214 q 70 403 80 357 q 61 500 61 448 q 93 665 61 593 q 169 787 126 737 l 211 832 l 261 880 l 298 915 l 358 968 q 398 985 379 985 q 490 932 438 985 q 542 871 516 905 q 594 791 568 837 l 640 707 l 676 618 q 706 467 706 522 q 677 304 706 387 q 597 144 648 221 q 498 28 552 75 q 409 -19 444 -19 m 501 149 q 547 173 522 149 q 590 232 572 197 q 601 262 594 242 q 608 301 608 282 q 569 449 608 365 q 527 531 550 492 q 475 611 504 571 q 363 745 420 690 q 280 800 306 800 q 229 774 259 800 q 173 701 198 749 q 152 610 152 655 q 191 468 152 546 q 293 315 230 390 l 354 247 l 412 194 q 501 149 470 149 "},"@":{"x_min":29,"x_max":970,"ha":1000,"o":"m 374 386 l 200 566 l 186 577 l 171 591 q 164 611 167 598 q 220 646 164 646 l 236 646 l 249 646 l 764 646 l 790 646 q 847 612 847 646 q 837 578 847 589 l 821 559 l 799 541 l 610 388 q 789 313 710 372 q 917 179 868 255 q 970 39 961 108 l 970 20 q 960 0 967 4 q 935 -4 953 -4 l 894 -4 l 878 0 l 861 0 l 835 0 l 801 -4 q 779 4 786 -4 l 769 30 l 767 70 q 750 179 767 112 q 694 287 733 235 q 585 344 654 333 q 598 40 585 138 l 597 29 q 584 6 597 18 q 527 0 570 0 l 495 0 l 461 0 q 432 6 439 0 q 421 31 425 13 l 417 105 l 417 209 l 417 275 l 417 344 q 283 256 329 334 q 246 168 259 212 q 233 70 233 124 q 224 12 233 26 q 198 -4 216 -1 l 166 0 l 137 0 l 99 -4 l 63 -4 q 37 3 45 -4 q 29 39 29 11 q 49 118 29 64 q 76 168 59 143 l 113 225 q 162 277 136 254 l 222 325 q 374 386 285 366 m 539 406 l 702 539 q 727 568 727 560 q 715 591 727 586 q 691 597 702 596 q 654 599 680 599 l 365 599 l 539 406 "},"ö":{"x_min":76,"x_max":789.890625,"ha":790,"o":"m 256 47 l 467 47 l 464 120 l 460 198 l 460 254 l 460 318 l 460 370 l 460 458 l 464 555 q 468 602 464 584 q 482 634 472 619 q 511 649 491 649 l 540 649 l 568 649 l 617 649 l 632 649 q 651 626 649 649 l 644 597 l 635 544 l 627 465 l 627 375 l 627 237 q 632 113 627 150 q 664 68 638 77 l 689 68 l 709 73 l 730 79 l 750 81 q 780 69 770 81 q 789 47 788 62 q 763 -44 789 25 l 726 -153 l 694 -258 l 617 -258 q 632 -156 632 -199 q 618 -69 632 -99 q 545 -18 603 -38 q 371 0 487 0 l 319 0 l 263 0 l 163 -4 l 120 -8 q 96 -2 102 -8 q 81 42 89 3 q 77 142 77 75 l 76 370 l 77 454 q 77 487 77 470 q 80 525 77 504 q 82 571 80 555 l 92 614 q 104 639 96 633 q 129 649 112 646 l 155 649 l 186 649 l 235 649 l 249 649 q 266 626 264 649 l 256 562 l 246 471 l 246 375 q 246 320 246 357 q 246 266 246 284 l 256 47 "},"i":{"x_min":96,"x_max":282,"ha":364,"o":"m 211 0 l 145 0 q 120 4 127 0 q 107 32 114 8 l 101 72 l 100 103 l 96 270 l 96 374 l 96 473 q 96 529 96 501 q 101 570 100 557 q 116 636 108 623 q 147 653 124 650 l 172 653 l 193 653 l 250 653 l 265 653 q 282 630 280 653 l 276 588 l 264 511 q 261 378 261 465 l 261 274 q 261 234 261 253 q 264 194 261 216 l 282 40 q 268 9 282 18 q 211 0 255 0 m 147 904 l 193 904 l 245 904 l 264 904 q 282 884 279 904 l 282 819 l 282 754 q 264 735 282 736 l 248 735 l 192 735 l 145 735 q 123 735 131 735 l 115 756 l 115 819 q 122 886 115 872 q 147 904 129 901 "},"ё":{"x_min":54,"x_max":677.609375,"ha":692,"o":"m 641 583 l 677 540 q 548 492 601 492 q 428 563 492 492 l 391 602 q 356 615 375 615 q 272 526 294 615 q 250 330 250 437 q 339 383 281 352 q 434 409 396 409 q 483 401 458 409 q 508 390 496 398 l 537 375 q 579 357 562 359 q 631 379 608 357 l 659 341 q 583 271 622 300 l 547 247 q 511 241 533 241 q 445 264 481 241 l 413 284 l 390 297 q 343 307 368 307 q 250 267 295 307 q 302 87 250 158 q 442 17 354 17 q 622 89 523 17 l 648 59 q 398 -47 549 -47 q 326 -41 358 -47 q 251 -19 295 -35 q 116 82 174 7 q 69 169 88 118 q 54 281 54 219 l 54 329 q 60 390 54 361 q 74 438 67 419 q 90 477 81 458 q 189 611 124 558 q 351 665 254 665 q 559 595 449 665 q 610 572 590 575 q 641 583 629 572 m 184 904 l 231 904 l 287 904 l 306 904 q 322 884 319 904 l 322 851 l 322 818 l 322 783 l 322 754 q 304 735 322 739 l 289 735 l 230 735 l 210 735 l 184 735 q 159 745 166 735 q 153 800 153 756 l 153 833 l 153 855 q 153 884 153 873 l 160 901 l 184 904 m 439 904 l 487 904 l 541 904 l 560 904 q 576 884 573 904 l 576 851 l 576 818 l 576 783 l 576 754 q 558 735 576 739 l 543 735 l 485 735 l 465 735 l 439 735 q 414 745 421 735 q 408 800 408 756 l 408 830 l 408 854 q 408 884 408 873 l 415 900 l 439 904 "},"Õ":{"x_min":19.4375,"x_max":980.5625,"ha":1000,"o":"m 352 914 l 498 677 l 531 752 l 555 805 q 614 914 587 877 q 684 971 641 950 q 797 992 726 992 q 884 976 838 992 q 933 948 933 964 q 922 919 933 937 l 909 893 l 898 870 q 881 809 881 826 l 881 798 l 877 763 l 837 763 l 802 787 l 776 802 q 725 811 752 811 q 650 785 675 811 q 588 690 625 759 l 580 673 l 570 653 l 545 602 l 862 57 l 980 57 l 980 0 l 485 0 l 485 57 l 616 57 l 401 425 l 320 271 q 279 174 300 236 q 258 90 258 112 q 320 57 258 57 l 357 57 l 357 0 l 19 0 l 19 57 q 121 83 81 57 q 188 155 161 110 q 254 284 216 200 l 273 326 l 356 498 l 113 914 l 22 914 l 22 972 l 455 972 l 455 914 l 352 914 "},"№":{"x_min":80.5625,"x_max":1020.828125,"ha":1108,"o":"m 425 386 l 251 565 l 237 576 l 222 590 q 215 609 218 597 q 270 645 215 645 l 287 645 l 300 644 l 815 644 l 841 644 q 898 611 898 644 q 888 577 898 588 l 872 559 l 850 541 l 661 388 q 840 313 761 372 q 968 179 919 255 q 1020 38 1012 108 l 1020 20 q 1011 0 1018 4 q 986 -4 1004 -4 l 945 -1 l 929 0 l 912 0 l 886 0 l 852 -1 q 830 6 837 -1 l 820 33 l 818 72 q 801 180 818 113 q 745 287 784 236 q 636 344 705 333 q 650 40 636 138 l 648 29 q 636 6 648 18 q 579 0 622 0 l 547 0 l 513 0 q 484 6 491 0 q 473 31 477 13 l 469 105 l 468 209 l 466 275 l 465 344 q 334 256 379 334 q 297 170 311 213 q 284 72 284 126 q 276 15 284 29 q 250 -1 268 1 l 218 0 l 188 0 l 151 -1 l 115 -4 q 88 3 97 -4 q 80 38 80 11 q 101 118 80 63 q 127 168 111 143 l 165 225 q 213 277 187 254 l 273 325 q 425 386 336 366 m 590 405 l 754 540 q 779 568 779 559 q 766 589 779 584 q 743 595 754 594 q 705 597 731 597 l 416 597 l 590 405 "},"þ":{"x_min":71,"x_max":890.84375,"ha":950,"o":"m 238 365 l 389 365 q 448 528 401 453 q 548 648 494 602 q 632 694 601 694 q 699 673 653 694 l 740 648 q 763 632 753 639 q 786 612 774 624 q 859 506 828 571 q 890 362 890 441 q 867 229 890 302 q 804 93 843 155 q 719 -7 764 32 q 640 -47 674 -47 q 536 2 599 -47 q 479 58 511 22 q 429 132 453 91 q 384 307 384 214 l 238 307 q 247 153 238 222 l 257 40 q 245 6 257 13 q 182 0 234 0 l 116 0 q 88 13 101 0 q 76 61 80 26 l 71 166 l 71 369 l 71 473 q 71 511 71 493 q 76 552 71 530 l 76 595 q 87 629 78 613 q 118 647 96 645 l 139 647 l 160 645 l 223 648 l 238 648 q 257 624 255 644 l 257 593 l 251 566 l 242 491 q 238 365 238 451 m 532 538 q 489 427 495 498 l 489 384 q 498 330 489 356 q 528 268 507 304 q 620 167 560 209 q 758 125 679 125 q 783 226 783 173 q 778 290 783 261 q 756 356 772 319 q 674 474 731 422 q 532 538 618 526 "},"]":{"x_min":122.609375,"x_max":549,"ha":769,"o":"m 549 1088 l 549 -276 l 122 -276 l 122 -218 l 334 -218 l 334 1030 l 122 1030 l 122 1088 l 549 1088 "},"А":{"x_min":50,"x_max":950,"ha":960,"o":"m 383 934 l 276 934 l 276 992 l 708 992 l 708 934 l 598 934 l 854 58 l 950 58 l 950 0 l 533 0 l 533 58 l 638 58 l 534 417 q 488 273 522 353 q 416 130 461 199 q 316 20 372 60 q 262 -9 291 1 q 236 -16 250 -13 q 205 -19 222 -19 q 97 22 144 -19 q 50 147 50 64 q 83 310 50 218 q 118 396 97 350 q 165 489 138 442 q 284 680 225 596 l 326 743 q 362 804 341 766 q 376 829 375 825 q 387 891 387 859 l 383 934 m 494 550 l 431 771 q 298 561 351 658 l 262 493 l 233 429 q 200 300 208 369 l 200 264 q 279 196 211 196 q 378 259 331 196 q 454 402 425 323 q 494 550 483 480 "},"m":{"x_min":78,"x_max":1037.71875,"ha":1115,"o":"m 1037 44 q 1019 22 1037 27 l 1004 22 l 961 22 l 940 22 l 919 22 l 898 22 q 864 38 876 22 q 857 65 861 44 q 849 113 853 87 l 849 208 l 849 242 q 849 270 849 256 q 849 299 849 289 l 849 447 l 854 559 l 859 624 l 643 624 l 638 558 l 638 489 l 634 368 l 634 294 l 638 204 q 640 160 639 180 q 647 110 642 140 l 654 44 q 638 22 654 27 l 623 22 l 559 22 l 535 22 l 516 22 q 487 35 496 24 q 470 106 478 45 q 463 299 463 166 q 475 624 463 520 l 258 624 q 255 522 258 592 q 251 429 251 453 l 246 294 l 247 213 l 255 124 l 264 74 l 269 44 q 251 22 269 27 l 236 22 l 193 22 l 172 22 l 151 22 l 130 22 q 100 34 111 22 q 87 65 91 47 q 83 113 83 83 l 79 187 l 78 299 l 79 513 q 79 540 79 527 q 82 572 79 554 l 87 625 q 101 662 91 651 q 130 671 112 671 l 475 671 q 475 725 475 702 q 480 795 475 748 l 491 881 q 515 964 504 952 q 549 979 527 976 l 616 979 q 657 952 657 979 l 657 940 l 643 809 l 638 671 l 964 671 q 1023 664 1011 671 q 1036 630 1036 657 l 1034 595 l 1025 516 q 1016 410 1019 461 q 1014 294 1014 359 q 1023 124 1014 191 l 1033 74 l 1037 44 "},"Ы":{"x_min":54,"x_max":1329,"ha":1383,"o":"m 499 972 l 499 914 l 384 914 l 384 570 q 477 509 418 537 q 529 488 503 497 q 594 469 555 479 l 644 459 l 686 455 l 743 458 q 808 441 788 458 q 829 368 829 425 l 829 97 q 819 31 829 50 q 794 5 810 12 l 744 0 l 54 0 l 54 58 l 169 58 l 169 914 l 54 914 l 54 972 l 499 972 m 999 58 l 999 914 l 884 914 l 884 972 l 1329 972 l 1329 914 l 1214 914 l 1214 58 l 1329 58 l 1329 0 l 884 0 l 884 58 l 999 58 m 384 58 l 509 58 q 584 70 555 58 q 614 135 614 83 l 614 301 l 614 317 l 614 334 q 603 381 614 367 q 541 411 592 394 q 384 494 454 440 l 384 58 "},"Е":{"x_min":58,"x_max":984.390625,"ha":1004,"o":"m 502 486 l 553 486 q 515 548 543 523 q 465 569 487 569 q 380 552 425 569 q 309 505 335 535 q 343 347 324 405 l 362 282 l 376 232 q 384 122 384 187 q 371 48 384 82 q 422 39 395 39 q 601 101 542 39 q 680 247 660 163 l 610 247 l 610 305 l 974 305 l 974 248 l 923 247 q 818 113 883 173 q 677 17 758 53 q 519 -19 595 -19 l 463 -19 q 429 -17 449 -19 q 381 -11 409 -15 q 337 -6 359 -11 q 293 7 315 -1 l 293 43 q 271 135 293 94 q 208 226 249 176 q 112 355 145 305 q 69 447 84 402 q 60 490 63 468 q 58 544 58 512 q 130 807 58 707 q 311 950 203 908 q 533 992 419 992 q 602 987 567 992 q 677 973 637 983 q 817 908 751 957 q 917 774 884 860 l 984 774 l 984 716 l 639 716 l 639 774 l 683 774 q 627 883 671 835 q 499 934 585 934 q 387 891 430 934 q 320 775 345 849 q 301 628 301 699 l 305 559 q 537 647 405 647 q 642 627 594 647 q 733 573 690 612 q 789 486 767 540 l 846 486 l 846 428 l 502 428 l 502 486 "},"8":{"x_min":54.171875,"x_max":715,"ha":769,"o":"m 213 507 q 86 689 86 590 q 138 828 86 760 q 267 940 191 896 q 393 985 343 985 q 502 944 440 985 q 621 846 570 907 q 672 728 672 786 q 636 626 672 671 q 522 526 597 583 q 672 408 631 461 q 703 348 692 385 q 715 264 715 312 q 648 139 715 205 q 577 79 617 108 l 492 26 q 365 -19 406 -19 q 315 -7 342 -19 q 245 29 287 3 q 112 151 170 78 q 54 293 54 224 q 87 401 54 347 q 133 452 102 425 q 213 507 163 479 m 477 558 q 529 594 508 570 q 552 652 552 615 q 501 752 552 702 q 378 836 450 801 q 277 870 306 870 q 226 845 255 870 q 200 790 200 819 q 272 672 200 726 q 477 558 333 629 m 495 100 q 552 143 526 112 q 579 205 579 173 q 551 286 579 252 q 481 350 526 322 q 373 416 440 379 q 252 473 280 473 q 202 445 226 473 q 177 383 177 418 q 223 279 177 325 l 270 238 l 327 198 l 362 175 l 387 158 q 495 100 449 116 "},"Э":{"x_min":19,"x_max":955,"ha":1014,"o":"m 19 716 l 19 774 l 85 774 q 184 906 118 858 q 326 973 249 954 q 470 992 403 992 q 691 953 585 992 q 876 803 798 915 q 955 484 955 691 q 916 227 955 327 q 811 66 878 126 q 666 -17 745 7 q 505 -43 587 -43 q 444 -34 484 -43 l 355 -5 q 280 15 296 15 q 226 -70 226 15 l 230 -119 l 230 -133 q 220 -140 224 -140 l 185 -137 l 133 -133 q 95 -143 109 -133 l 77 -153 l 73 -153 q 44 -126 56 -153 q 32 -56 32 -100 q 52 32 32 -8 q 105 94 73 72 q 140 112 125 107 q 176 117 155 117 q 215 110 201 117 l 271 87 l 326 63 q 432 36 403 36 l 478 40 q 527 54 502 44 q 616 112 574 71 q 684 226 657 153 q 712 402 712 299 l 712 434 l 645 397 q 599 386 622 386 l 571 384 l 543 383 l 508 386 l 453 406 l 390 429 q 352 435 363 434 q 333 436 340 436 q 188 386 272 436 l 156 427 q 263 544 213 505 q 386 583 313 583 q 531 542 464 583 q 663 484 631 484 q 712 506 688 484 l 712 532 l 712 555 q 645 851 712 768 q 484 934 578 934 q 369 885 407 934 q 320 774 331 836 l 363 774 l 363 716 l 19 716 "},"R":{"x_min":54,"x_max":909.546875,"ha":921,"o":"m 384 371 l 384 58 l 499 58 l 499 0 l 54 0 l 54 58 l 169 58 l 169 566 l 173 777 q 306 934 213 876 q 508 992 399 992 q 610 982 561 992 q 697 955 659 973 q 816 854 773 921 q 848 788 837 822 q 860 713 860 754 q 831 579 860 638 q 746 480 803 520 q 625 444 690 444 q 579 455 590 452 q 571 452 575 454 l 909 0 l 666 0 l 384 371 m 384 454 l 471 566 l 499 550 l 523 543 q 585 579 554 543 q 616 716 616 616 q 590 875 616 821 q 498 934 567 934 q 423 900 446 934 q 393 818 399 867 q 385 747 386 769 q 384 675 384 725 l 384 641 l 384 454 "},"ю":{"x_min":71,"x_max":890.84375,"ha":950,"o":"m 238 365 l 389 365 q 448 528 401 453 q 548 648 494 602 q 632 694 601 694 q 699 673 653 694 l 740 648 q 763 632 753 639 q 786 612 774 624 q 859 506 828 571 q 890 362 890 441 q 867 229 890 302 q 804 93 843 155 q 719 -7 764 32 q 640 -47 674 -47 q 536 2 599 -47 q 479 58 511 22 q 429 132 453 91 q 384 307 384 214 l 238 307 q 247 153 238 222 l 257 40 q 245 6 257 13 q 182 0 234 0 l 116 0 q 88 13 101 0 q 76 61 80 26 l 71 166 l 71 369 l 71 473 q 71 511 71 493 q 76 552 71 530 l 76 595 q 87 629 78 613 q 118 647 96 645 l 139 647 l 160 645 l 223 648 l 238 648 q 257 624 255 644 l 257 593 l 251 566 l 242 491 q 238 365 238 451 m 532 538 q 489 427 495 498 l 489 384 q 498 330 489 356 q 528 268 507 304 q 620 167 560 209 q 758 125 679 125 q 783 226 783 173 q 778 290 783 261 q 756 356 772 319 q 674 474 731 422 q 532 538 618 526 "},"á":{"x_min":76,"x_max":668.828125,"ha":731,"o":"m 343 599 l 256 599 l 245 480 l 241 357 q 322 351 289 357 q 366 345 350 348 q 413 336 383 343 q 547 275 491 319 q 631 169 604 230 q 657 52 657 108 q 639 9 657 19 q 578 0 621 0 l 114 0 q 85 8 98 0 q 76 37 78 18 l 76 101 l 76 230 l 80 390 l 80 496 l 85 603 q 94 632 85 619 q 126 646 103 646 l 433 646 l 527 646 l 601 651 q 668 619 668 651 q 636 542 668 596 q 612 493 626 526 q 578 415 592 449 l 513 415 l 519 474 l 519 519 q 474 586 513 573 q 343 599 435 599 m 241 47 l 438 47 l 462 47 l 465 91 q 243 294 465 294 l 241 194 l 241 115 l 241 47 "},"×":{"x_min":54,"x_max":1022,"ha":1076,"o":"m 692 58 l 692 429 q 470 443 564 429 q 299 506 377 458 q 177 666 214 561 q 161 721 169 691 q 146 783 153 751 q 139 844 142 812 q 137 914 137 876 l 54 914 l 54 972 l 470 972 l 470 914 l 377 914 l 376 850 q 439 579 376 673 q 646 485 502 485 l 692 485 l 692 914 l 605 914 l 605 972 l 1022 972 l 1022 914 l 907 914 l 907 58 l 1022 58 l 1022 0 l 596 0 l 596 58 l 692 58 "},"o":{"x_min":54.171875,"x_max":561.109375,"ha":615,"o":"m 54 281 q 100 483 54 387 q 207 637 145 580 q 302 694 269 694 q 372 673 326 694 q 456 614 412 656 q 531 508 501 573 q 561 362 561 444 q 536 229 561 299 q 509 162 526 197 l 472 93 q 389 -7 436 32 q 309 -47 343 -47 q 206 2 263 -47 q 97 133 148 51 q 80 168 88 150 q 65 207 72 186 q 56 245 59 229 q 54 281 54 261 m 195 538 q 163 484 175 511 q 152 427 152 456 q 181 302 152 373 q 273 178 209 231 q 423 125 337 125 q 447 226 447 172 q 418 369 447 302 q 331 483 388 436 q 195 538 273 530 "},"5":{"x_min":100,"x_max":651.390625,"ha":768,"o":"m 615 992 l 651 982 q 580 805 625 930 l 498 801 l 447 798 q 361 803 416 798 q 226 822 305 809 q 205 766 205 785 q 238 688 205 708 q 340 660 270 669 q 470 629 411 651 q 584 557 534 608 q 633 413 633 506 q 599 263 633 339 q 499 119 565 187 q 349 7 433 50 q 166 -51 265 -35 l 143 15 q 302 76 236 32 q 411 180 369 119 q 452 307 452 241 q 429 388 452 354 q 372 441 405 422 l 280 483 l 179 526 q 123 573 150 543 q 100 652 100 605 q 126 767 100 705 l 161 846 q 183 893 168 862 q 218 958 198 924 l 315 949 l 380 942 l 494 931 q 565 942 537 931 q 615 992 594 952 "},"õ":{"x_min":19.4375,"x_max":637.5,"ha":653,"o":"m 57 645 l 147 645 l 166 648 l 182 650 q 200 641 188 650 l 227 579 l 308 384 l 333 327 q 405 541 375 477 q 434 597 420 576 q 466 633 448 619 q 541 661 498 661 q 569 658 554 661 q 609 644 584 656 q 637 616 634 631 q 629 587 637 598 l 615 567 l 606 540 l 604 499 l 605 442 l 579 426 q 506 465 544 465 q 458 445 477 465 q 418 380 438 426 l 369 252 l 421 129 l 489 -21 l 532 -111 q 582 -209 560 -168 q 619 -274 603 -251 q 637 -320 634 -297 q 619 -340 637 -338 l 490 -340 q 459 -326 469 -340 l 445 -301 l 431 -270 l 383 -162 l 355 -102 l 319 -20 l 277 74 q 201 -165 234 -77 q 145 -284 167 -252 q 108 -330 124 -321 q 70 -340 91 -338 q 19 -308 19 -340 q 49 -248 19 -295 q 154 -61 97 -187 q 237 166 210 65 l 196 261 l 157 346 l 128 408 l 111 443 l 74 523 l 48 576 l 33 605 l 30 617 q 34 640 30 634 q 57 645 39 645 "},"п":{"x_min":76,"x_max":651.0625,"ha":729,"o":"m 473 602 l 263 602 q 243 377 243 484 q 262 40 243 206 q 252 9 262 19 q 206 0 243 0 l 125 0 q 96 8 105 0 q 81 43 88 16 l 76 96 l 76 156 l 76 371 l 76 468 q 77 515 76 491 q 81 565 78 538 q 86 607 81 591 q 98 635 90 623 q 129 649 106 647 l 570 649 l 597 649 l 619 649 q 651 628 651 649 l 642 564 l 633 471 l 629 376 l 633 230 q 634 182 633 210 q 640 121 635 154 l 650 40 q 640 9 650 19 q 593 0 630 0 l 512 0 q 483 9 491 0 q 467 53 476 15 l 462 117 l 462 159 l 462 371 q 473 602 462 501 "},"7":{"x_min":76,"x_max":702.375,"ha":703,"o":"m 652 992 l 702 949 l 639 852 l 596 767 l 562 697 l 452 451 l 416 369 l 372 262 l 336 140 l 325 79 l 321 21 l 321 1 l 321 -24 q 328 -121 321 -73 q 251 -99 289 -107 l 194 -91 l 154 -88 q 185 44 167 -19 q 235 186 203 107 l 298 341 q 338 434 321 398 q 367 494 346 451 l 453 668 l 503 761 l 477 761 l 252 761 l 194 761 q 162 749 178 761 q 142 719 151 742 l 76 742 l 120 888 l 148 975 q 317 958 234 958 l 427 958 l 535 963 l 566 966 l 603 975 q 652 992 621 979 "},"K":{"x_min":54,"x_max":963,"ha":999,"o":"m 384 543 l 435 543 l 454 581 l 477 631 l 492 665 l 506 691 l 559 797 q 618 897 588 854 q 691 966 645 933 q 783 992 731 992 q 905 966 847 992 l 875 888 l 870 842 l 866 776 l 838 776 l 793 794 q 718 810 760 810 q 646 783 675 810 q 609 738 628 769 l 584 701 q 543 626 566 669 q 492 527 521 584 q 683 456 599 502 q 823 310 767 410 q 880 58 880 210 l 963 58 l 963 0 l 585 0 l 585 58 l 640 58 l 642 132 q 629 267 642 207 q 587 373 617 327 q 508 448 558 419 q 384 494 458 477 l 384 58 l 470 58 l 470 0 l 54 0 l 54 58 l 169 58 l 169 914 l 54 914 l 54 972 l 480 972 l 480 914 l 384 914 l 384 543 "},",":{"x_min":69,"x_max":259,"ha":346,"o":"m 95 -221 l 69 -192 q 155 -57 155 -116 q 149 4 155 -12 q 102 10 112 4 q 91 38 92 17 l 91 89 q 93 139 91 121 q 100 164 96 158 q 122 173 104 171 l 146 173 l 170 173 l 182 173 l 196 173 l 227 173 l 240 173 q 259 154 256 173 l 255 67 q 95 -221 255 -125 "},"d":{"x_min":0,"x_max":931.953125,"ha":932,"o":"m 584 47 l 703 47 l 793 47 l 865 51 q 915 44 901 51 q 931 19 931 39 q 891 -65 931 -12 l 838 -148 l 815 -193 l 783 -261 l 711 -251 q 750 -108 750 -156 q 729 -34 750 -72 q 647 0 706 0 l 537 0 q 462 -47 493 -47 q 362 0 411 -47 l 275 0 q 211 -25 240 0 q 183 -107 183 -51 q 220 -251 183 -156 l 148 -261 q 36 -60 100 -146 q 0 19 0 -5 q 66 48 0 48 l 95 48 l 120 47 l 173 47 l 310 47 q 258 108 279 77 q 239 140 248 123 q 225 173 230 156 q 200 296 200 239 q 244 481 200 391 q 291 562 265 524 q 350 634 316 600 q 454 694 412 694 q 520 673 474 694 q 612 610 567 652 q 688 506 657 567 q 699 478 693 495 q 712 432 704 462 q 720 362 720 402 q 690 218 720 308 q 584 47 660 128 m 350 539 q 315 428 315 493 q 348 282 315 354 q 439 160 380 210 q 577 113 503 113 q 587 167 583 140 q 591 218 591 194 q 561 364 591 294 q 477 481 532 433 q 350 539 423 528 "},"¨":{"x_min":58,"x_max":984.390625,"ha":1004,"o":"m 502 486 l 553 486 q 515 548 543 523 q 465 569 487 569 q 380 552 425 569 q 309 505 335 536 q 343 347 324 405 l 362 282 l 376 232 q 384 122 384 187 q 371 48 384 82 q 421 39 395 39 q 601 101 542 39 q 680 247 660 163 l 614 247 l 614 305 l 974 305 l 974 248 l 923 247 q 817 113 882 173 q 675 17 757 53 q 517 -19 593 -19 l 460 -19 q 426 -17 446 -19 q 378 -11 406 -15 q 332 -6 355 -11 q 287 6 309 -1 l 293 42 q 271 135 293 94 q 208 226 249 176 q 112 355 145 305 q 69 446 84 402 q 60 490 63 467 q 58 544 58 512 q 130 807 58 706 q 311 949 203 908 q 533 991 419 991 q 602 987 567 991 q 677 973 637 983 q 817 908 751 957 q 917 774 884 859 l 984 774 l 984 716 l 639 716 l 639 774 l 683 774 q 627 883 671 834 q 499 933 585 933 q 387 890 430 933 q 320 774 345 848 q 301 628 301 699 l 305 559 q 537 647 405 647 q 643 627 594 647 q 732 573 689 612 q 789 486 766 540 l 846 486 l 846 428 l 502 428 l 502 486 m 614 1173 q 620 1236 614 1224 q 644 1249 627 1249 l 690 1249 l 754 1249 l 771 1249 q 789 1229 786 1249 l 789 1173 l 789 1112 q 771 1089 789 1094 l 754 1089 l 689 1089 l 667 1089 l 643 1089 l 622 1089 l 614 1110 l 614 1173 m 258 1173 q 263 1233 258 1220 q 287 1249 269 1246 l 334 1249 l 399 1249 l 416 1249 q 434 1229 431 1249 l 434 1173 l 434 1112 q 415 1089 434 1094 l 399 1089 l 334 1089 l 312 1089 l 287 1089 q 267 1089 273 1089 l 258 1111 l 258 1173 "},"E":{"x_min":58,"x_max":984.390625,"ha":1004,"o":"m 502 486 l 553 486 q 515 548 543 523 q 465 569 487 569 q 380 552 425 569 q 309 505 335 535 q 343 347 324 405 l 362 282 l 376 232 q 384 122 384 187 q 371 48 384 82 q 422 39 395 39 q 601 101 542 39 q 680 247 660 163 l 610 247 l 610 305 l 974 305 l 974 248 l 923 247 q 818 113 883 173 q 677 17 758 53 q 519 -19 595 -19 l 463 -19 q 429 -17 449 -19 q 381 -11 409 -15 q 337 -6 359 -11 q 293 7 315 -1 l 293 43 q 271 135 293 94 q 208 226 249 176 q 112 355 145 305 q 69 447 84 402 q 60 490 63 468 q 58 544 58 512 q 130 807 58 707 q 311 950 203 908 q 533 992 419 992 q 602 987 567 992 q 677 973 637 983 q 817 908 751 957 q 917 774 884 860 l 984 774 l 984 716 l 639 716 l 639 774 l 683 774 q 627 883 671 835 q 499 934 585 934 q 387 891 430 934 q 320 775 345 849 q 301 628 301 699 l 305 559 q 537 647 405 647 q 642 627 594 647 q 733 573 690 612 q 789 486 767 540 l 846 486 l 846 428 l 502 428 l 502 486 "},"Y":{"x_min":37,"x_max":1153,"ha":1192,"o":"m 702 58 l 778 58 l 778 0 l 409 0 l 409 58 l 487 58 l 487 502 q 307 578 381 527 q 181 713 232 629 q 121 914 137 793 l 37 914 l 37 972 l 431 972 l 431 914 l 365 914 q 403 700 365 782 q 492 584 440 619 q 544 562 518 570 q 593 554 570 554 q 710 594 657 554 q 794 708 762 634 q 825 866 825 782 l 825 883 l 822 914 l 758 914 l 758 972 l 1153 972 l 1153 914 l 1068 914 q 702 502 1030 581 l 702 58 "},"Ô":{"x_min":57,"x_max":1244,"ha":1301,"o":"m 866 0 l 435 0 l 435 58 l 550 58 l 550 182 l 495 166 l 427 148 q 358 144 402 144 q 211 174 281 144 q 99 263 141 205 q 57 394 57 321 q 141 594 57 510 q 355 759 226 677 l 447 819 l 550 900 l 550 914 l 435 914 l 435 972 l 866 972 l 866 914 l 751 914 l 751 900 l 852 820 l 945 759 q 1159 595 1074 679 q 1244 394 1244 512 q 1200 264 1244 320 q 1085 176 1157 208 q 1015 152 1052 161 q 942 144 978 144 l 874 148 l 805 166 l 751 181 l 751 58 l 866 58 l 866 0 m 751 832 l 751 231 l 791 224 l 816 224 q 962 296 911 224 q 1013 459 1013 368 q 979 591 1013 528 q 893 704 945 654 q 751 832 849 748 m 550 832 l 439 734 q 361 651 407 705 l 329 607 l 307 561 q 288 459 288 509 q 308 350 288 403 q 374 260 329 297 q 484 224 419 224 l 515 224 l 550 229 l 550 832 "},"Ï":{"x_min":54,"x_max":1022,"ha":1076,"o":"m 384 914 l 384 58 l 480 58 l 480 0 l 54 0 l 54 58 l 169 58 l 169 914 l 54 914 l 54 972 l 1022 972 l 1022 914 l 907 914 l 907 58 l 1022 58 l 1022 0 l 596 0 l 596 58 l 692 58 l 692 914 l 384 914 "},"ê":{"x_min":73,"x_max":626.171875,"ha":654,"o":"m 240 350 l 251 350 q 562 661 424 661 q 603 654 591 661 q 622 638 620 649 q 610 609 622 624 l 592 569 l 584 537 l 581 496 l 580 479 l 580 467 l 544 465 q 480 508 524 508 q 399 469 443 508 q 321 377 360 438 l 292 336 q 451 266 381 310 q 559 171 521 221 q 609 80 592 125 q 626 12 626 35 q 574 -6 626 -6 l 548 -2 l 524 0 q 478 -6 487 0 l 453 -6 q 434 5 441 -6 l 423 53 l 410 109 l 390 162 q 326 249 366 213 q 240 301 288 287 q 253 40 240 135 l 253 24 q 189 0 253 0 l 124 0 q 95 7 105 0 q 79 55 86 15 q 73 159 73 95 l 73 369 q 78 555 73 505 q 82 602 78 583 l 94 634 q 125 648 103 647 l 142 647 l 160 645 l 230 650 l 245 650 q 262 627 262 645 l 253 563 l 244 465 l 240 350 "},"ч":{"x_min":34,"x_max":613,"ha":692,"o":"m 423 322 l 407 322 q 321 292 361 322 q 242 267 288 267 q 163 320 203 267 q 90 448 124 374 q 70 502 78 479 q 38 600 61 524 l 34 625 l 38 639 q 77 649 47 649 l 192 649 q 225 639 213 649 q 238 596 233 635 q 294 426 255 474 q 372 372 333 378 l 389 372 q 423 385 410 372 l 423 482 l 434 565 q 438 609 434 592 q 450 637 442 626 q 482 649 459 647 l 502 649 l 522 649 l 580 649 l 595 649 q 613 625 613 649 l 613 593 q 607 568 613 580 l 595 512 q 591 375 591 479 q 595 243 591 289 l 606 140 l 613 40 q 603 9 613 18 q 551 0 594 0 l 477 0 q 445 8 460 0 q 434 45 434 16 l 428 134 l 423 322 "},"Â":{"x_min":39,"x_max":817,"ha":903,"o":"m 154 58 l 154 498 q 160 643 154 580 q 184 766 167 707 q 296 933 213 875 q 527 992 379 992 q 646 975 593 992 q 739 923 700 958 q 797 850 779 889 q 811 811 805 832 q 817 768 817 790 q 753 618 817 666 q 601 570 689 570 q 475 615 542 570 l 414 538 q 512 473 464 498 q 605 440 560 452 q 655 433 630 435 q 707 430 679 430 l 719 430 q 785 419 764 430 q 811 392 805 410 l 817 366 l 817 333 l 817 112 l 817 97 l 817 74 q 812 36 817 51 q 783 8 807 20 q 709 0 759 0 l 39 0 l 39 58 l 154 58 m 369 58 l 540 58 q 588 75 574 58 q 602 151 602 92 l 602 307 q 593 353 602 339 q 542 389 585 366 q 435 452 476 425 q 369 512 405 471 l 369 58 m 369 561 l 449 671 q 514 647 490 649 q 573 679 544 647 q 602 790 602 712 q 571 899 602 864 q 492 934 540 934 q 395 855 421 934 q 369 655 369 776 l 369 609 l 369 561 "},"Í":{"x_min":54,"x_max":1022,"ha":1076,"o":"m 384 673 l 384 58 l 480 58 l 480 0 l 54 0 l 54 58 l 169 58 l 169 914 l 54 914 l 54 972 l 480 972 l 480 914 l 384 914 l 384 766 l 692 390 l 692 914 l 596 914 l 596 972 l 1022 972 l 1022 914 l 907 914 l 907 58 l 1022 58 l 1022 0 l 596 0 l 596 58 l 692 58 l 692 298 l 384 673 "},"ì":{"x_min":23,"x_max":938.28125,"ha":960,"o":"m 263 646 l 372 646 q 402 637 395 646 q 418 576 409 629 q 429 490 418 546 q 444 417 434 465 q 469 309 455 369 q 502 179 484 249 q 528 292 510 240 q 551 361 540 334 q 572 405 557 376 q 610 511 610 487 l 610 550 l 605 598 l 600 637 q 632 646 600 646 l 745 646 q 777 641 773 646 q 785 608 781 637 l 792 539 l 808 424 q 846 265 820 347 q 925 62 871 184 q 938 16 938 34 q 931 0 938 4 l 907 0 l 813 0 q 746 67 781 0 q 686 222 711 134 l 666 298 l 652 367 l 641 424 q 609 344 625 389 q 575 239 593 298 l 552 143 q 543 63 543 97 l 543 33 q 532 0 543 0 l 425 0 q 392 11 403 0 q 364 65 381 19 l 335 166 l 317 236 l 267 477 q 179 321 216 412 q 142 158 142 229 l 146 116 l 155 81 l 167 48 l 177 20 l 181 9 q 166 0 181 1 l 45 0 q 23 62 23 0 q 143 375 23 179 l 195 461 l 211 495 q 230 590 230 541 l 230 627 q 263 646 234 646 "},"Ú":{"x_min":22,"x_max":1097,"ha":1151,"o":"m 767 972 l 767 914 l 652 914 l 652 570 q 794 491 709 523 q 875 469 833 477 q 955 461 917 461 l 1012 463 q 1081 441 1065 463 q 1097 373 1097 419 l 1097 97 q 1085 30 1097 51 q 1060 4 1077 9 q 1013 0 1044 0 l 322 0 l 322 58 l 437 58 l 437 914 l 345 914 q 219 861 257 914 q 159 729 181 809 l 144 684 q 115 672 137 672 q 84 689 91 672 l 76 727 l 71 762 l 67 800 q 60 826 66 815 q 42 845 55 837 q 26 867 31 850 q 22 934 22 884 q 34 973 22 956 q 67 990 47 990 l 108 980 l 151 972 l 184 972 l 767 972 m 652 58 l 777 58 q 852 70 823 58 q 882 135 882 83 l 882 301 l 882 318 l 882 334 q 870 381 882 369 q 809 411 859 394 q 652 494 719 440 l 652 58 "},"Ý":{"x_min":19,"x_max":955,"ha":1014,"o":"m 19 716 l 19 774 l 85 774 q 184 906 118 858 q 326 973 249 954 q 470 992 403 992 q 691 953 585 992 q 876 803 798 915 q 955 484 955 691 q 916 227 955 327 q 811 66 878 126 q 666 -17 745 7 q 505 -43 587 -43 q 444 -34 484 -43 l 355 -5 q 280 15 296 15 q 226 -70 226 15 l 230 -119 l 230 -133 q 220 -140 224 -140 l 185 -137 l 133 -133 q 95 -143 109 -133 l 77 -153 l 73 -153 q 44 -126 56 -153 q 32 -56 32 -100 q 52 32 32 -8 q 105 94 73 72 q 140 112 125 107 q 176 117 155 117 q 215 110 201 117 l 271 87 l 326 63 q 432 36 403 36 l 478 40 q 527 54 502 44 q 616 112 574 71 q 684 226 657 153 q 712 402 712 299 l 712 434 l 645 397 q 599 386 622 386 l 571 384 l 543 383 l 508 386 l 453 406 l 390 429 q 352 435 363 434 q 333 436 340 436 q 188 386 272 436 l 156 427 q 263 544 213 505 q 386 583 313 583 q 531 542 464 583 q 663 484 631 484 q 712 506 688 484 l 712 532 l 712 555 q 645 851 712 768 q 484 934 578 934 q 369 885 407 934 q 320 774 331 836 l 363 774 l 363 716 l 19 716 "},"И":{"x_min":54,"x_max":1022,"ha":1076,"o":"m 692 673 l 384 298 l 384 58 l 480 58 l 480 0 l 54 0 l 54 58 l 169 58 l 169 914 l 54 914 l 54 972 l 480 972 l 480 914 l 384 914 l 384 390 l 692 766 l 692 914 l 596 914 l 596 972 l 1022 972 l 1022 914 l 907 914 l 907 58 l 1022 58 l 1022 0 l 596 0 l 596 58 l 692 58 l 692 673 "},"й":{"x_min":71,"x_max":658.28125,"ha":733,"o":"m 236 375 l 470 515 l 477 611 q 487 638 479 630 q 517 645 495 645 l 640 645 q 658 623 656 645 l 651 566 q 635 375 635 470 q 656 40 635 197 q 648 9 656 19 q 602 0 639 0 l 521 0 q 493 12 504 0 q 472 79 483 25 q 466 221 466 135 l 466 354 l 470 459 l 236 317 l 240 186 q 244 129 240 165 q 258 40 249 94 q 249 9 258 19 q 202 0 240 0 l 120 0 q 93 9 102 0 q 80 54 84 18 l 75 141 l 71 263 l 71 369 l 71 450 q 71 483 71 466 q 71 520 71 500 q 73 569 71 552 q 75 594 73 581 q 82 617 79 604 q 92 636 84 630 q 117 645 100 643 l 241 645 q 259 623 258 645 l 252 566 q 236 375 236 459 m 521 888 l 551 869 q 461 738 509 776 q 377 701 413 701 q 315 746 348 701 q 262 878 283 792 l 254 916 l 291 926 q 396 826 327 826 q 508 870 478 826 l 521 888 "},"b":{"x_min":79,"x_max":490,"ha":538,"o":"m 405 232 l 385 262 q 362 279 377 279 l 350 276 q 302 247 329 269 q 265 209 280 229 q 310 103 277 103 q 382 119 341 103 q 395 134 389 122 l 405 173 l 405 232 m 490 206 l 483 139 l 476 105 l 477 89 l 477 72 q 441 28 477 47 l 403 11 l 355 -2 l 255 -19 l 219 -19 q 187 0 198 -14 l 176 15 l 163 43 l 141 107 l 126 155 q 92 292 106 221 q 79 404 79 364 q 119 545 79 490 q 217 624 159 600 q 324 658 274 647 l 376 665 l 441 674 q 473 654 472 674 q 463 602 473 622 q 454 548 454 573 q 448 526 454 534 q 412 519 442 519 l 404 519 q 271 494 313 519 q 229 415 229 470 q 237 331 229 373 q 324 377 257 347 q 377 399 354 391 q 412 408 401 408 q 428 403 420 408 q 441 391 437 398 l 464 348 l 475 306 l 481 290 l 490 206 "},"q":{"x_min":54.171875,"x_max":584.71875,"ha":615,"o":"m 54 281 q 100 483 54 387 q 207 637 145 580 q 302 694 269 694 q 372 673 326 694 q 456 614 412 656 q 531 508 501 573 q 561 362 561 444 q 536 228 561 299 q 509 162 526 196 q 533 46 502 146 q 583 -97 552 -14 q 584 -106 584 -100 q 580 -112 584 -112 q 454 -31 579 -112 q 388 -8 401 3 q 309 -47 343 -47 q 206 2 263 -47 q 97 133 148 51 q 80 168 88 150 q 65 207 72 186 q 56 245 59 229 q 54 281 54 261 m 195 539 q 163 484 175 511 q 152 427 152 457 q 181 302 152 373 q 273 176 209 232 q 329 146 301 154 q 402 139 358 139 q 430 179 422 166 q 447 226 447 202 q 418 369 447 302 q 331 483 388 436 q 195 539 273 530 "},"р":{"x_min":72,"x_max":582,"ha":654,"o":"m 203 100 l 209 52 q 222 -169 222 -42 q 198 -314 222 -277 q 135 -355 178 -355 q 104 -341 109 -355 l 104 -332 l 104 -219 l 104 -195 l 104 -175 l 104 -157 l 104 -95 q 104 -59 104 -77 q 98 -34 99 -43 l 85 97 l 74 209 l 72 293 q 119 499 72 408 q 231 641 166 590 q 333 693 295 693 q 408 658 368 693 q 429 641 420 649 q 449 617 438 633 l 491 562 q 555 424 527 508 q 575 344 568 386 q 582 259 582 302 q 556 116 582 181 q 487 15 531 51 q 387 -21 443 -21 q 284 13 337 -21 q 203 100 234 49 m 242 562 q 199 466 213 518 q 184 347 184 414 q 211 201 184 265 q 282 100 238 137 q 358 64 326 64 q 405 87 383 64 q 423 119 414 97 q 433 170 433 141 l 433 222 q 424 273 433 241 l 403 345 q 334 479 373 425 q 242 562 295 537 "},"т":{"x_min":9,"x_max":867.34375,"ha":878,"o":"m 763 384 l 691 397 q 701 431 693 405 q 709 476 709 458 q 656 577 709 555 q 545 600 604 600 l 520 600 l 520 524 l 519 469 l 519 374 l 519 184 l 520 102 q 526 34 520 60 q 517 3 526 13 q 470 -6 508 -6 l 389 -6 q 360 5 371 -6 q 351 45 351 24 l 351 152 l 351 201 l 351 238 l 351 298 l 351 376 l 351 456 l 351 502 l 356 600 l 331 600 q 167 476 167 600 q 171 447 167 466 q 185 397 175 427 l 113 384 q 32 550 84 473 q 9 612 9 586 q 20 646 9 632 q 49 663 31 660 l 129 653 q 227 646 185 647 q 309 646 268 646 l 567 646 l 595 646 l 618 646 l 638 646 l 654 646 q 704 647 681 646 q 746 653 728 648 l 827 663 q 855 647 843 663 q 867 612 867 632 q 843 550 867 581 l 817 509 l 796 472 l 781 434 l 763 384 "},"П":{"x_min":54,"x_max":1022,"ha":1076,"o":"m 384 914 l 384 58 l 480 58 l 480 0 l 54 0 l 54 58 l 169 58 l 169 914 l 54 914 l 54 972 l 1022 972 l 1022 914 l 907 914 l 907 58 l 1022 58 l 1022 0 l 596 0 l 596 58 l 692 58 l 692 914 l 384 914 "},"Ö":{"x_min":54,"x_max":1145.65625,"ha":1146,"o":"m 1016 972 l 1016 914 l 901 914 l 901 58 l 948 58 l 994 58 l 1026 63 l 1081 71 q 1122 53 1099 71 q 1145 -4 1145 36 q 1122 -102 1145 -36 q 1079 -266 1085 -208 q 1076 -289 1079 -283 q 1066 -314 1076 -298 q 1035 -330 1059 -330 q 1008 -316 1020 -330 q 991 -271 999 -304 l 965 -166 q 933 -72 949 -104 q 881 -20 916 -41 q 780 0 845 0 l 54 0 l 54 58 l 169 58 l 169 914 l 54 914 l 54 972 l 480 972 l 480 914 l 384 914 l 384 58 l 686 58 l 686 914 l 590 914 l 590 972 l 1016 972 "},"z":{"x_min":22,"x_max":702.5625,"ha":731,"o":"m 280 411 l 198 411 q 142 538 178 482 q 105 617 105 593 q 148 653 105 653 l 225 653 q 320 646 258 646 l 555 646 l 579 646 l 600 646 q 670 636 647 646 q 697 602 697 632 q 635 510 697 569 l 585 465 l 523 411 l 386 289 l 293 202 q 225 88 225 130 q 243 61 225 71 l 301 56 l 387 56 q 538 47 469 56 q 653 0 604 36 q 702 -109 702 -36 q 622 -263 702 -197 q 441 -365 542 -329 l 422 -329 q 485 -268 460 -303 q 515 -208 509 -233 l 520 -187 l 522 -169 q 460 -31 522 -67 q 397 -6 428 -16 q 330 3 366 3 l 231 3 l 113 3 q 42 26 62 3 q 22 90 22 47 q 40 139 22 120 l 109 202 q 263 319 171 257 l 437 435 q 572 530 537 500 q 608 580 608 559 q 578 600 608 600 l 567 600 l 555 600 l 437 600 q 299 584 341 600 q 258 514 258 568 q 280 411 258 467 "},"Ж":{"x_min":37,"x_max":1344,"ha":1382,"o":"m 507 972 l 874 972 l 874 914 l 798 914 l 798 550 l 807 550 l 896 730 l 936 811 l 966 868 q 1039 954 991 910 q 1151 992 1087 992 q 1271 966 1217 992 q 1259 929 1271 956 l 1241 881 l 1235 817 l 1234 797 l 1232 776 l 1205 776 l 1161 794 q 1087 811 1123 811 q 1020 786 1056 811 q 952 702 989 762 q 863 527 915 641 q 908 520 894 523 q 951 508 922 518 q 992 493 981 498 q 1039 472 1004 488 q 1193 327 1128 430 q 1242 210 1225 277 q 1259 58 1259 144 l 1344 58 l 1344 0 l 950 0 l 950 58 l 1015 58 q 1008 201 1015 142 q 983 308 1001 259 q 906 443 953 402 q 798 492 859 483 l 798 58 l 869 58 l 869 0 l 512 0 l 512 58 l 583 58 l 583 492 q 530 480 556 492 q 477 444 503 468 q 396 309 429 405 q 374 199 382 263 q 366 58 366 135 l 431 58 l 431 0 l 37 0 l 37 58 l 122 58 q 245 403 122 299 q 518 527 369 506 q 427 701 465 644 q 391 754 408 734 l 358 787 q 291 811 326 811 q 217 794 258 811 l 173 776 l 145 776 l 143 797 l 142 817 q 137 883 142 861 l 122 929 l 106 966 q 227 992 160 992 q 339 954 289 992 q 413 868 384 915 l 444 811 l 484 730 l 573 550 l 583 550 l 583 914 l 507 914 l 507 972 "},"ã":{"x_min":73,"x_max":598.390625,"ha":600,"o":"m 340 599 l 256 599 q 240 375 240 491 l 244 226 l 256 112 l 263 40 q 254 9 263 19 q 208 0 245 0 l 124 0 q 94 11 101 0 q 80 46 85 19 l 73 105 l 73 163 l 73 367 l 73 465 q 73 518 73 491 q 78 553 77 542 q 82 605 78 589 q 91 632 86 621 q 124 650 102 650 l 182 643 l 281 643 l 410 643 l 533 650 q 580 645 563 650 q 598 620 597 640 q 574 558 598 602 l 548 503 l 524 443 l 510 401 l 452 406 l 460 477 q 438 567 460 536 q 340 599 416 599 "},"æ":{"x_min":23.0625,"x_max":975.71875,"ha":1000,"o":"m 581 286 l 580 227 l 584 145 l 596 40 l 596 26 q 587 7 596 12 q 570 1 578 2 q 542 0 561 0 l 464 0 q 438 4 449 0 q 423 22 428 4 l 416 69 l 416 170 l 416 229 l 416 286 q 232 59 306 264 l 211 3 q 190 -4 209 -1 l 160 0 l 130 0 l 113 0 l 97 -4 l 56 -4 q 34 -1 41 -4 q 23 20 27 1 q 45 86 23 41 q 154 241 86 173 q 360 329 222 309 q 264 459 317 423 q 175 494 211 494 q 132 476 154 494 q 106 464 120 464 q 89 494 89 464 q 84 552 89 534 l 77 581 q 67 608 77 590 l 59 637 q 68 652 59 647 q 99 661 77 658 q 188 624 135 661 q 302 512 241 587 q 414 336 357 441 l 416 434 l 416 495 l 416 548 q 425 629 416 612 q 460 645 435 645 l 559 645 q 592 624 592 645 l 586 588 l 580 488 l 580 433 l 580 390 l 580 336 l 609 386 q 642 441 628 419 q 678 491 656 463 q 757 580 711 534 q 897 661 841 661 q 927 654 920 661 q 938 637 935 648 l 929 608 l 914 561 l 907 494 q 891 464 907 466 q 866 476 878 464 q 822 494 846 491 q 638 329 722 494 q 872 212 774 312 q 944 105 913 168 q 975 21 975 43 q 940 -4 975 -4 l 901 -4 l 885 0 l 867 0 l 833 0 l 807 -4 q 787 1 794 -4 l 770 43 q 680 224 727 172 q 581 286 632 276 "},"É":{"x_min":54,"x_max":1022,"ha":1076,"o":"m 692 673 l 384 298 l 384 58 l 480 58 l 480 0 l 54 0 l 54 58 l 169 58 l 169 914 l 54 914 l 54 972 l 465 972 l 465 914 l 384 914 l 384 390 l 692 766 l 692 914 l 611 914 l 611 972 l 1022 972 l 1022 914 l 907 914 l 907 58 l 1022 58 l 1022 0 l 596 0 l 596 58 l 692 58 l 692 673 m 703 1238 l 763 1215 q 669 1071 734 1132 q 606 1026 637 1041 q 538 1012 574 1012 q 445 1042 485 1012 q 408 1080 424 1059 q 391 1102 397 1094 q 379 1124 385 1110 l 356 1176 l 342 1237 l 397 1253 q 529 1138 441 1138 q 636 1166 593 1138 q 703 1238 679 1194 "},"и":{"x_min":71,"x_max":658.28125,"ha":733,"o":"m 236 375 l 470 515 l 477 611 q 487 638 479 630 q 517 646 495 646 l 640 646 q 658 623 656 646 l 651 566 q 635 375 635 470 q 656 40 635 197 q 648 9 656 19 q 602 0 639 0 l 521 0 q 493 12 504 0 q 472 79 483 25 q 466 221 466 135 l 466 354 l 470 459 l 236 317 l 240 186 q 244 129 240 165 q 258 40 249 94 q 249 9 258 19 q 202 0 240 0 l 120 0 q 93 9 102 0 q 80 54 84 18 l 75 141 l 71 263 l 71 369 l 71 450 q 71 483 71 466 q 71 520 71 500 q 73 569 71 552 q 75 594 73 582 q 82 617 79 604 q 92 636 84 630 q 117 646 100 643 l 241 646 q 259 623 258 646 l 252 566 q 236 375 236 459 "},"Н":{"x_min":54,"x_max":1022,"ha":1076,"o":"m 384 673 l 384 58 l 480 58 l 480 0 l 54 0 l 54 58 l 169 58 l 169 914 l 54 914 l 54 972 l 480 972 l 480 914 l 384 914 l 384 766 l 692 390 l 692 914 l 596 914 l 596 972 l 1022 972 l 1022 914 l 907 914 l 907 58 l 1022 58 l 1022 0 l 596 0 l 596 58 l 692 58 l 692 298 l 384 673 "},"~":{"x_min":76,"x_max":718.0625,"ha":769,"o":"m 243 349 l 339 349 q 347 411 339 379 q 373 475 355 443 q 455 572 402 532 q 579 640 508 613 q 605 649 595 647 q 650 660 615 652 q 718 668 684 668 l 718 627 q 614 566 650 602 q 557 476 577 530 l 540 414 l 535 349 l 706 349 l 706 296 l 535 296 q 580 118 535 187 q 718 17 625 49 l 718 -24 q 634 -7 680 -19 q 590 3 604 0 q 548 20 576 8 q 404 123 468 51 q 355 201 376 155 q 339 296 339 245 l 243 296 q 244 218 243 255 q 248 147 245 182 l 265 40 q 252 8 265 19 q 193 0 239 0 l 126 0 q 97 8 105 0 q 81 43 88 16 l 76 95 l 76 155 l 76 369 l 76 522 l 76 566 l 84 605 q 100 637 91 629 q 126 645 108 645 l 169 645 l 234 647 l 248 647 q 268 625 266 641 q 260 584 268 609 l 248 502 l 243 349 "},"ф":{"x_min":54,"x_max":975,"ha":1029,"o":"m 457 -357 l 457 32 q 294 -15 390 -15 q 125 47 197 -15 q 54 209 54 109 q 69 301 54 261 l 88 341 l 115 379 q 146 413 130 397 q 190 452 162 429 l 241 494 l 308 544 q 405 627 368 590 q 442 687 433 659 q 447 714 446 702 q 449 751 449 726 l 442 859 l 441 888 l 438 909 l 438 924 l 438 935 q 484 967 438 951 q 568 983 534 983 q 585 971 579 983 q 591 927 591 959 l 582 751 q 596 667 582 699 q 640 608 611 634 l 720 544 q 858 434 815 474 q 941 334 911 392 q 975 209 975 277 q 949 111 975 162 q 869 20 923 61 q 734 -15 816 -15 q 572 31 637 -15 l 572 -357 l 457 -357 m 457 80 l 449 584 l 394 534 l 299 449 q 250 381 273 424 q 228 279 228 337 q 252 160 228 208 q 317 90 276 112 q 357 72 339 77 q 399 68 376 68 q 457 80 427 68 m 581 584 l 572 80 q 629 68 599 68 q 706 88 666 68 q 775 161 746 109 q 801 279 801 209 q 783 375 801 337 q 739 438 766 413 q 701 474 721 458 q 672 499 676 495 l 616 551 l 581 584 "},"л":{"x_min":23,"x_max":632.71875,"ha":654,"o":"m 298 538 l 289 511 q 276 476 281 490 q 257 436 271 462 q 195 275 211 330 q 179 172 179 221 q 203 68 179 119 l 223 36 q 232 13 229 26 q 206 -3 232 -3 l 170 -3 l 132 -3 l 99 -3 l 67 -3 q 32 5 42 -3 q 23 44 23 13 q 60 201 23 119 l 107 287 l 174 394 l 216 458 l 249 519 q 266 575 266 552 q 258 616 266 591 l 258 633 q 285 646 262 646 l 410 646 q 444 639 437 646 q 454 610 451 633 q 513 344 454 529 q 539 263 526 305 q 578 156 562 198 l 599 100 l 617 59 q 632 16 629 33 q 624 0 632 3 l 593 -3 l 536 1 l 481 -3 q 453 3 467 -3 q 431 36 443 12 l 406 106 l 364 257 l 353 297 l 346 326 l 317 442 l 307 491 l 298 538 "},"[":{"x_min":219,"x_max":645.828125,"ha":769,"o":"m 219 1088 l 645 1088 l 645 1030 l 434 1030 l 434 -218 l 645 -218 l 645 -276 l 219 -276 l 219 1088 "},"Щ":{"x_min":54,"x_max":1608.15625,"ha":1615,"o":"m 384 58 l 665 58 l 665 914 l 569 914 l 569 972 l 976 972 l 976 914 l 880 914 l 880 58 l 1161 58 l 1161 914 l 1065 914 l 1065 972 l 1491 972 l 1491 914 l 1376 914 l 1376 58 l 1423 58 l 1459 58 l 1488 63 l 1544 71 q 1585 53 1562 71 q 1608 -4 1608 36 q 1584 -102 1608 -36 q 1541 -252 1548 -207 q 1529 -314 1537 -297 q 1498 -330 1522 -330 q 1470 -314 1483 -330 l 1456 -279 l 1444 -233 q 1403 -100 1420 -141 q 1346 -29 1385 -58 q 1231 0 1306 0 l 54 0 l 54 58 l 169 58 l 169 914 l 54 914 l 54 972 l 480 972 l 480 914 l 384 914 l 384 58 "},"L":{"x_min":25,"x_max":512.890625,"ha":500,"o":"m 25 646 l 25 799 l 30 962 q 34 1035 30 1009 q 50 1088 38 1062 q 88 1115 61 1115 l 114 1115 l 138 1111 l 214 1115 l 231 1115 q 253 1077 253 1110 l 240 948 l 230 811 l 226 655 l 226 453 l 230 253 q 242 164 230 204 q 279 138 256 138 q 315 140 303 138 l 345 149 q 361 157 356 154 q 390 182 373 165 l 409 201 l 431 213 q 489 226 443 221 q 512 194 512 226 q 455 87 512 131 q 419 63 437 73 q 392 48 401 52 l 313 22 q 152 -1 222 -1 q 59 30 87 -1 q 37 67 45 47 q 30 110 30 86 l 25 206 l 25 361 l 25 472 l 25 646 "},"К":{"x_min":54,"x_max":963,"ha":999,"o":"m 384 543 l 435 543 l 454 581 l 477 631 l 492 665 l 506 691 l 559 797 q 618 897 588 854 q 691 966 645 933 q 783 992 731 992 q 905 966 847 992 l 875 888 l 870 842 l 866 776 l 838 776 l 793 794 q 718 810 760 810 q 646 783 675 810 q 609 738 628 769 l 584 701 q 543 626 566 669 q 492 527 521 584 q 683 456 599 502 q 823 310 767 410 q 880 58 880 210 l 963 58 l 963 0 l 585 0 l 585 58 l 640 58 l 642 132 q 629 267 642 207 q 587 373 617 327 q 508 448 558 419 q 384 494 458 477 l 384 58 l 470 58 l 470 0 l 54 0 l 54 58 l 169 58 l 169 914 l 54 914 l 54 972 l 480 972 l 480 914 l 384 914 l 384 543 "}," ":{"x_min":0,"x_max":0,"ha":488},"P":{"x_min":54,"x_max":860,"ha":921,"o":"m 384 370 l 384 58 l 499 58 l 499 0 l 54 0 l 54 58 l 169 58 l 169 566 l 173 777 q 306 934 213 876 q 508 992 399 992 q 610 982 561 992 q 697 955 659 973 q 816 854 773 921 q 848 788 837 822 q 860 714 860 754 q 831 579 860 638 q 745 480 802 520 q 624 444 690 444 q 570 452 591 444 l 510 480 l 480 495 l 384 370 m 384 455 l 473 566 l 499 550 l 523 543 q 585 580 554 543 q 616 717 616 616 q 590 875 616 821 q 498 934 567 934 q 423 900 446 934 q 393 819 399 867 q 385 748 386 770 q 384 676 384 726 l 384 643 l 384 455 "},"À":{"x_min":50,"x_max":950,"ha":960,"o":"m 383 934 l 276 934 l 276 992 l 708 992 l 708 934 l 598 934 l 854 58 l 950 58 l 950 0 l 533 0 l 533 58 l 638 58 l 534 417 q 488 273 522 353 q 416 130 461 199 q 316 20 372 60 q 262 -9 291 1 q 236 -16 250 -13 q 205 -19 222 -19 q 97 22 144 -19 q 50 147 50 64 q 83 310 50 218 q 118 396 97 350 q 165 489 138 442 q 284 680 225 596 l 326 743 q 362 804 341 766 q 376 829 375 825 q 387 891 387 859 l 383 934 m 494 550 l 431 771 q 298 561 351 658 l 262 493 l 233 429 q 200 300 208 369 l 200 264 q 279 196 211 196 q 378 259 331 196 q 454 402 425 323 q 494 550 483 480 "},"ñ":{"x_min":58.328125,"x_max":519.4375,"ha":578,"o":"m 473 228 l 519 191 q 407 25 475 97 q 297 -47 340 -47 q 275 -42 286 -47 q 225 -10 252 -34 q 144 84 183 22 q 81 212 105 145 q 58 334 58 279 q 97 496 58 410 q 191 637 137 581 q 283 694 245 694 q 331 680 295 694 l 409 645 q 477 605 447 627 q 506 564 506 582 q 468 510 506 551 l 434 473 l 419 448 l 411 438 l 406 434 l 398 441 q 377 464 386 451 q 315 528 352 501 q 213 569 279 555 q 190 448 190 517 q 218 317 190 384 q 293 195 247 249 q 394 122 337 146 q 454 198 422 152 l 462 211 l 473 228 "},"‚":{"x_min":69,"x_max":259,"ha":346,"o":"m 95 -221 l 69 -192 q 155 -57 155 -116 q 149 4 155 -12 q 102 10 112 4 q 91 38 92 17 l 91 89 q 93 139 91 121 q 100 164 96 158 q 122 173 104 171 l 146 173 l 170 173 l 182 173 l 196 173 l 227 173 l 240 173 q 259 154 256 173 l 255 67 q 95 -221 255 -125 "},"Æ":{"x_min":37,"x_max":1344,"ha":1382,"o":"m 507 972 l 874 972 l 874 914 l 798 914 l 798 550 l 807 550 l 896 730 l 936 811 l 966 868 q 1039 954 991 910 q 1151 992 1087 992 q 1271 966 1217 992 q 1259 929 1271 956 l 1241 881 l 1235 817 l 1234 797 l 1232 776 l 1205 776 l 1161 794 q 1087 811 1123 811 q 1020 786 1056 811 q 952 702 989 762 q 863 527 915 641 q 908 520 894 523 q 951 508 922 518 q 992 493 981 498 q 1039 472 1004 488 q 1193 327 1128 430 q 1242 210 1225 277 q 1259 58 1259 144 l 1344 58 l 1344 0 l 950 0 l 950 58 l 1015 58 q 1008 201 1015 142 q 983 308 1001 259 q 906 443 953 402 q 798 492 859 483 l 798 58 l 869 58 l 869 0 l 512 0 l 512 58 l 583 58 l 583 492 q 530 480 556 492 q 477 444 503 468 q 396 309 429 405 q 374 199 382 263 q 366 58 366 135 l 431 58 l 431 0 l 37 0 l 37 58 l 122 58 q 245 403 122 299 q 518 527 369 506 q 427 701 465 644 q 391 754 408 734 l 358 787 q 291 811 326 811 q 217 794 258 811 l 173 776 l 145 776 l 143 797 l 142 817 q 137 883 142 861 l 122 929 l 106 966 q 227 992 160 992 q 339 954 289 992 q 413 868 384 915 l 444 811 l 484 730 l 573 550 l 583 550 l 583 914 l 507 914 l 507 972 "},"Ë":{"x_min":54,"x_max":902.609375,"ha":922,"o":"m 495 58 l 585 58 q 520 277 552 155 l 475 477 l 442 646 l 418 762 q 339 637 385 723 q 260 453 287 537 q 233 302 233 369 q 237 210 233 241 q 249 171 241 179 q 268 164 256 164 l 273 163 q 300 136 291 163 q 310 19 310 108 q 290 -9 310 1 l 259 -15 l 234 -15 l 212 -9 l 175 -8 l 130 -10 q 76 -1 94 -10 q 54 38 58 6 l 54 87 q 66 185 54 131 q 105 305 78 238 q 184 472 137 380 l 247 597 l 275 650 l 346 784 q 374 879 374 844 q 362 908 374 902 l 327 914 l 231 914 l 231 972 l 690 972 l 690 914 l 605 914 q 675 529 630 731 q 723 335 698 434 q 774 153 748 237 l 801 58 l 902 58 l 902 0 l 495 0 l 495 58 "},"ы":{"x_min":76,"x_max":885,"ha":964,"o":"m 484 -3 l 124 -3 q 76 51 76 -3 l 76 236 l 76 462 q 76 493 76 478 q 76 527 76 509 l 81 588 q 97 632 86 618 q 130 649 108 647 l 150 649 l 173 649 l 237 649 l 252 649 q 270 626 269 649 l 263 583 l 251 490 l 251 418 l 251 394 q 251 376 251 384 q 247 357 247 362 q 333 351 291 357 q 410 333 374 345 q 532 273 483 312 q 643 53 643 184 q 623 6 643 17 q 563 -3 601 -3 l 539 -3 l 516 -3 l 499 -3 l 484 -3 m 695 370 l 695 467 q 695 520 695 493 q 700 556 698 545 q 704 604 700 584 l 716 635 q 748 649 726 649 l 767 649 l 789 649 l 852 649 l 867 649 q 885 626 883 649 l 878 566 l 866 478 l 863 375 q 885 37 863 185 q 872 5 885 16 q 814 -3 859 -3 l 748 -3 q 715 9 723 -3 l 704 44 l 704 100 l 695 262 l 695 370 m 247 44 l 405 44 l 429 44 l 430 89 q 418 169 430 127 q 363 248 405 210 q 245 294 322 285 l 243 219 l 247 122 q 247 85 247 102 q 247 44 247 67 "},"Р":{"x_min":54,"x_max":860,"ha":921,"o":"m 384 370 l 384 58 l 499 58 l 499 0 l 54 0 l 54 58 l 169 58 l 169 566 l 173 777 q 306 934 213 876 q 508 992 399 992 q 610 982 561 992 q 697 955 659 973 q 816 854 773 921 q 848 788 837 822 q 860 714 860 754 q 831 579 860 638 q 745 480 802 520 q 624 444 690 444 q 570 452 591 444 l 510 480 l 480 495 l 384 370 m 384 455 l 473 566 l 499 550 l 523 543 q 585 580 554 543 q 616 717 616 616 q 590 875 616 821 q 498 934 567 934 q 423 900 446 934 q 393 819 399 867 q 385 748 386 770 q 384 676 384 726 l 384 643 l 384 455 "},"щ":{"x_min":76,"x_max":1176,"ha":1192,"o":"m 641 47 l 857 47 l 852 111 l 847 223 l 847 371 l 847 474 q 847 513 847 494 q 847 557 847 531 q 851 603 847 584 q 862 632 855 622 q 896 649 870 649 l 918 649 l 938 649 l 1002 649 l 1017 649 q 1035 626 1034 649 l 1031 597 l 1021 546 q 1014 471 1017 512 q 1012 379 1012 429 l 1012 201 q 1014 152 1012 166 l 1024 105 q 1049 71 1030 77 l 1073 71 l 1101 77 l 1136 83 q 1163 73 1153 83 q 1176 49 1173 63 q 1149 -43 1176 27 l 1119 -130 l 1080 -256 l 1003 -256 q 1019 -151 1019 -187 q 971 -27 1019 -58 q 876 0 924 0 l 128 0 q 100 9 109 0 q 85 45 91 18 l 80 98 l 77 158 l 76 371 l 76 467 q 76 520 76 494 q 81 557 80 545 q 85 603 81 584 q 98 635 89 621 q 128 649 106 649 l 149 649 l 170 649 l 234 649 l 249 649 q 267 626 266 649 l 262 596 l 253 546 l 246 462 l 244 376 l 252 188 l 256 47 l 473 47 q 460 371 460 147 l 462 483 q 463 529 462 505 q 469 576 464 552 q 484 635 473 623 q 514 649 492 647 l 534 649 l 556 649 l 620 649 l 634 649 q 652 626 651 649 l 641 560 q 634 376 634 459 l 634 276 l 639 181 l 639 113 l 641 47 "},"ð":{"x_min":72,"x_max":582,"ha":654,"o":"m 203 100 l 209 52 q 222 -169 222 -42 q 198 -314 222 -277 q 135 -355 178 -355 q 104 -341 109 -355 l 104 -332 l 104 -219 l 104 -195 l 104 -175 l 104 -157 l 104 -95 q 104 -59 104 -77 q 98 -34 99 -43 l 85 97 l 74 209 l 72 293 q 119 499 72 408 q 231 641 166 590 q 333 693 295 693 q 408 658 368 693 q 429 641 420 649 q 449 617 438 633 l 491 562 q 555 424 527 508 q 575 344 568 386 q 582 259 582 302 q 556 116 582 181 q 487 15 531 51 q 387 -21 443 -21 q 284 13 337 -21 q 203 100 234 49 m 242 562 q 199 466 213 518 q 184 347 184 414 q 211 201 184 265 q 282 100 238 137 q 358 64 326 64 q 405 87 383 64 q 423 119 414 97 q 433 170 433 141 l 433 222 q 424 273 433 241 l 403 345 q 334 479 373 425 q 242 562 295 537 "},"T":{"x_min":34,"x_max":1041,"ha":1076,"o":"m 430 58 l 430 914 l 370 914 l 338 914 q 276 902 300 914 q 231 846 252 890 q 186 711 210 802 l 178 679 l 168 655 q 140 641 164 641 q 109 661 118 641 q 100 705 100 681 q 99 732 100 718 q 93 763 97 745 q 86 793 89 780 q 75 826 84 805 l 52 883 q 34 939 36 919 q 49 975 34 958 q 95 992 64 992 q 134 983 111 992 l 193 972 q 281 972 227 972 l 307 972 l 331 972 l 743 972 l 768 972 l 793 972 q 881 972 847 972 l 942 983 l 979 992 q 1025 976 1009 992 q 1041 939 1041 958 q 1024 884 1041 926 l 999 826 q 972 705 972 755 q 934 641 972 641 q 907 652 917 641 l 896 677 l 875 757 q 833 862 858 822 q 781 904 810 895 q 704 914 751 914 l 645 914 l 645 58 l 760 58 l 760 0 l 315 0 l 315 58 l 430 58 "},"Þ":{"x_min":53,"x_max":1329.390625,"ha":1386,"o":"m 383 556 l 569 556 q 603 662 577 610 q 667 763 628 715 q 745 851 705 811 l 787 890 l 830 926 l 890 978 q 952 1010 919 1010 q 969 1004 962 1010 l 990 984 l 1011 962 l 1066 908 l 1143 840 l 1221 764 q 1280 684 1251 729 q 1329 493 1329 607 q 1296 323 1329 393 q 1215 202 1262 254 l 1038 30 l 980 -23 q 945 -37 961 -34 q 904 -18 931 -37 l 863 13 l 792 73 q 674 180 706 148 q 594 296 633 222 q 567 373 577 331 q 558 461 558 415 l 558 498 l 383 498 l 383 58 l 498 58 l 498 0 l 53 0 l 53 58 l 168 58 l 168 914 l 53 914 l 53 972 l 498 972 l 498 914 l 383 914 l 383 556 m 861 826 q 773 788 811 820 q 714 713 736 759 q 693 622 693 666 q 733 498 693 569 q 901 302 773 427 l 953 250 l 986 211 q 1018 139 1007 184 q 1128 215 1078 165 q 1189 334 1179 266 l 1189 382 q 1157 457 1184 418 l 1130 498 l 1103 532 l 1004 642 l 946 706 l 900 760 l 878 791 l 861 826 "},"j":{"x_min":34,"x_max":886.78125,"ha":922,"o":"m 487 -1 l 487 -355 l 373 -355 l 373 -1 l 177 -1 q 156 3 163 -1 q 150 25 153 7 l 150 55 q 150 96 150 75 q 143 151 146 125 q 138 199 140 178 q 125 266 135 221 q 95 422 113 354 q 55 552 77 490 q 34 631 34 615 q 45 648 34 641 l 64 648 l 134 645 l 203 645 q 220 636 211 645 q 234 595 228 627 l 252 500 l 267 404 l 281 325 l 295 230 l 313 95 l 318 46 l 372 46 l 362 748 l 354 855 l 349 932 l 345 983 q 352 1020 345 1012 q 382 1031 360 1028 l 403 1031 l 423 1031 l 486 1031 l 502 1031 q 513 1026 509 1031 l 518 1022 l 515 997 l 511 924 l 505 748 l 487 46 l 553 46 l 565 145 q 569 234 565 190 q 584 334 573 279 q 620 462 595 390 q 710 617 660 579 q 761 650 735 640 q 820 661 788 661 q 886 633 886 661 q 874 598 886 623 l 860 570 q 853 508 853 543 l 853 484 l 853 466 l 850 453 l 818 453 q 764 487 807 487 q 682 431 709 487 q 660 373 671 410 l 644 301 l 615 96 q 601 -1 615 7 l 585 -1 l 487 -1 "},"1":{"x_min":75,"x_max":516,"ha":614,"o":"m 516 0 l 108 0 l 108 43 l 212 43 l 212 722 q 202 795 212 775 q 154 816 193 816 q 83 804 133 816 l 75 854 q 248 901 172 871 q 413 992 325 932 l 413 43 l 516 43 l 516 0 "},"Т":{"x_min":34,"x_max":1041,"ha":1076,"o":"m 430 58 l 430 914 l 370 914 l 338 914 q 276 902 300 914 q 231 846 252 890 q 186 711 210 802 l 178 679 l 168 655 q 140 641 164 641 q 109 661 118 641 q 100 705 100 681 q 99 732 100 718 q 93 763 97 745 q 86 793 89 780 q 75 826 84 805 l 52 883 q 34 939 36 919 q 49 975 34 958 q 95 992 64 992 q 134 983 111 992 l 193 972 q 281 972 227 972 l 307 972 l 331 972 l 743 972 l 768 972 l 793 972 q 881 972 847 972 l 942 983 l 979 992 q 1025 976 1009 992 q 1041 939 1041 958 q 1024 884 1041 926 l 999 826 q 972 705 972 755 q 934 641 972 641 q 907 652 917 641 l 896 677 l 875 757 q 833 862 858 822 q 781 904 810 895 q 704 914 751 914 l 645 914 l 645 58 l 760 58 l 760 0 l 315 0 l 315 58 l 430 58 "},"ä":{"x_min":0,"x_max":768.0625,"ha":768,"o":"m 426 -1 l 320 -1 q 217 -28 255 -1 q 179 -108 179 -55 q 182 -140 179 -123 q 190 -173 186 -156 l 216 -251 l 145 -261 q 94 -151 120 -198 q 38 -65 68 -104 q 0 20 0 -10 q 8 37 0 27 q 38 51 16 46 l 65 51 q 118 58 101 51 q 145 83 134 66 q 172 135 156 100 l 205 217 l 237 311 l 266 409 q 286 492 279 459 q 293 547 293 525 q 291 579 293 569 q 282 601 290 589 q 271 634 273 618 q 302 646 271 646 l 344 646 l 385 646 l 441 646 l 487 650 q 507 645 502 650 q 515 618 512 641 q 576 329 515 520 q 630 170 608 229 q 640 139 635 152 q 649 118 645 126 l 666 87 q 691 55 677 65 l 715 50 l 727 51 q 755 43 745 51 q 768 20 765 34 q 731 -59 768 -6 q 620 -261 672 -140 l 550 -251 q 587 -108 587 -159 q 534 -22 587 -44 q 426 -1 481 -1 m 190 46 l 505 46 l 481 91 l 458 151 q 373 460 393 327 l 369 487 l 363 522 l 343 522 q 268 241 326 422 q 243 170 255 204 q 223 119 230 136 q 190 46 208 77 "},"Ц":{"x_min":54,"x_max":1145.65625,"ha":1146,"o":"m 1016 972 l 1016 914 l 901 914 l 901 58 l 948 58 l 994 58 l 1026 63 l 1081 71 q 1122 53 1099 71 q 1145 -4 1145 36 q 1122 -102 1145 -36 q 1079 -266 1085 -208 q 1076 -289 1079 -283 q 1066 -314 1076 -298 q 1035 -330 1059 -330 q 1008 -316 1020 -330 q 991 -271 999 -304 l 965 -166 q 933 -72 949 -104 q 881 -20 916 -41 q 780 0 845 0 l 54 0 l 54 58 l 169 58 l 169 914 l 54 914 l 54 972 l 480 972 l 480 914 l 384 914 l 384 58 l 686 58 l 686 914 l 590 914 l 590 972 l 1016 972 "},"t":{"x_min":15,"x_max":612.21875,"ha":768,"o":"m 330 126 l 336 83 l 336 40 q 324 9 336 19 q 264 0 312 0 l 213 0 q 182 6 193 0 q 172 34 178 12 l 165 102 l 165 237 l 172 327 l 172 408 l 181 590 l 15 590 l 16 643 l 184 642 l 194 799 l 203 962 q 215 1012 203 997 q 248 1028 226 1028 l 269 1028 l 290 1028 l 353 1028 l 368 1028 q 385 1006 385 1025 l 375 930 l 356 783 q 350 687 351 715 q 349 643 349 659 l 612 643 l 612 590 l 344 590 l 341 552 l 340 530 l 338 508 l 336 453 l 336 385 q 331 289 333 366 q 330 126 330 212 "},"ù":{"x_min":76,"x_max":1176,"ha":1192,"o":"m 641 47 l 857 47 l 852 111 l 847 223 l 847 371 l 847 474 q 847 513 847 494 q 847 557 847 531 q 851 603 847 584 q 862 632 855 622 q 896 649 870 649 l 918 649 l 938 649 l 1002 649 l 1017 649 q 1035 626 1034 649 l 1031 597 l 1021 546 q 1014 471 1017 512 q 1012 379 1012 429 l 1012 201 q 1014 152 1012 166 l 1024 105 q 1049 71 1030 77 l 1073 71 l 1101 77 l 1136 83 q 1163 73 1153 83 q 1176 49 1173 63 q 1149 -43 1176 27 l 1119 -130 l 1080 -256 l 1003 -256 q 1019 -151 1019 -187 q 971 -27 1019 -58 q 876 0 924 0 l 128 0 q 100 9 109 0 q 85 45 91 18 l 80 98 l 77 158 l 76 371 l 76 467 q 76 520 76 494 q 81 557 80 545 q 85 603 81 584 q 98 635 89 621 q 128 649 106 649 l 149 649 l 170 649 l 234 649 l 249 649 q 267 626 266 649 l 262 596 l 253 546 l 246 462 l 244 376 l 252 188 l 256 47 l 473 47 q 460 371 460 147 l 462 483 q 463 529 462 505 q 469 576 464 552 q 484 635 473 623 q 514 649 492 647 l 534 649 l 556 649 l 620 649 l 634 649 q 652 626 651 649 l 641 560 q 634 376 634 459 l 634 276 l 639 181 l 639 113 l 641 47 "},"W":{"x_min":51,"x_max":1333,"ha":1383,"o":"m 715 284 q 571 80 623 145 q 449 -38 518 14 q 248 157 329 47 q 125 381 167 268 q 66 591 82 495 q 55 677 59 632 q 51 756 51 721 l 57 884 q 57 913 57 901 q 61 944 57 926 q 75 972 66 963 l 104 972 l 151 972 l 188 972 l 253 972 q 277 967 268 972 q 280 958 278 965 q 282 947 282 952 l 280 905 l 276 833 l 276 751 l 280 687 q 284 640 282 654 q 291 605 285 627 l 312 519 q 387 332 337 425 q 523 161 436 240 q 605 257 559 197 q 646 314 629 287 q 675 365 663 342 q 603 570 627 461 l 583 682 q 578 739 579 717 q 577 805 577 760 l 577 870 l 577 914 l 579 946 q 586 967 579 963 q 618 972 592 972 l 665 972 l 694 972 l 708 972 l 758 972 q 792 966 782 972 q 803 937 803 960 l 803 913 l 803 895 l 802 876 l 802 827 l 803 723 q 806 678 803 698 q 818 616 810 658 l 839 520 q 868 436 849 483 q 947 284 905 347 q 1049 178 989 221 l 1087 236 l 1118 289 q 1160 397 1146 343 q 1170 451 1166 419 q 1174 510 1174 482 l 1174 536 q 1174 556 1174 546 q 1171 575 1171 570 q 1170 595 1171 588 q 1159 641 1168 602 q 1136 720 1154 674 l 1095 826 l 1071 891 q 1063 937 1063 919 q 1073 964 1063 956 q 1107 972 1083 972 l 1275 972 q 1321 963 1309 972 q 1333 921 1333 952 l 1333 892 l 1328 813 l 1326 735 l 1319 664 l 1313 624 q 1303 570 1313 604 q 1257 397 1287 478 q 1185 244 1227 317 q 1090 105 1143 171 l 967 -38 q 715 284 808 105 "},"а":{"x_min":55,"x_max":661,"ha":692,"o":"m 325 646 l 467 646 q 484 637 480 646 l 485 622 l 488 601 l 494 572 l 505 534 l 514 493 l 526 451 q 595 193 572 265 q 641 66 624 105 q 661 12 658 27 q 633 0 661 0 l 491 0 q 476 22 484 0 q 476 41 476 36 l 460 94 l 443 147 l 436 175 q 425 210 434 191 q 204 -15 355 -15 q 117 12 148 -15 q 68 83 85 40 q 55 165 55 129 q 71 241 55 201 q 91 280 80 259 q 118 325 102 300 l 167 389 l 228 458 l 271 504 l 303 540 q 311 562 311 552 q 302 609 311 580 l 298 637 q 325 646 298 646 m 336 508 q 227 354 256 419 q 198 254 198 288 q 218 189 198 218 q 279 160 238 160 q 343 178 314 160 q 384 223 371 197 l 393 248 l 398 272 q 375 373 398 298 l 357 434 l 348 474 q 336 508 345 491 "},"Ф":{"x_min":57,"x_max":1244,"ha":1301,"o":"m 866 0 l 435 0 l 435 58 l 550 58 l 550 182 l 495 166 l 427 148 q 358 144 402 144 q 211 174 281 144 q 99 263 141 205 q 57 394 57 321 q 141 594 57 510 q 355 759 226 677 l 447 819 l 550 900 l 550 914 l 435 914 l 435 972 l 866 972 l 866 914 l 751 914 l 751 900 l 852 820 l 945 759 q 1159 595 1074 679 q 1244 394 1244 512 q 1200 264 1244 320 q 1085 176 1157 208 q 1015 152 1052 161 q 942 144 978 144 l 874 148 l 805 166 l 751 181 l 751 58 l 866 58 l 866 0 m 751 832 l 751 231 l 791 224 l 816 224 q 962 296 911 224 q 1013 459 1013 368 q 979 591 1013 528 q 893 704 945 654 q 751 832 849 748 m 550 832 l 439 734 q 361 651 407 705 l 329 607 l 307 561 q 288 459 288 509 q 308 350 288 403 q 374 260 329 297 q 484 224 419 224 l 515 224 l 550 229 l 550 832 "},"ï":{"x_min":76,"x_max":651.0625,"ha":729,"o":"m 473 602 l 263 602 q 243 377 243 484 q 262 40 243 206 q 252 9 262 19 q 206 0 243 0 l 125 0 q 96 8 105 0 q 81 43 88 16 l 76 96 l 76 156 l 76 371 l 76 468 q 77 515 76 491 q 81 565 78 538 q 86 607 81 591 q 98 635 90 623 q 129 649 106 647 l 570 649 l 597 649 l 619 649 q 651 628 651 649 l 642 564 l 633 471 l 629 376 l 633 230 q 634 182 633 210 q 640 121 635 154 l 650 40 q 640 9 650 19 q 593 0 630 0 l 512 0 q 483 9 491 0 q 467 53 476 15 l 462 117 l 462 159 l 462 371 q 473 602 462 501 "},"v":{"x_min":33.71875,"x_max":694.828125,"ha":696,"o":"m 660 453 l 625 453 q 572 488 616 488 q 508 458 532 488 q 472 387 484 428 l 451 301 l 430 172 l 422 96 l 422 71 q 422 54 422 62 q 417 30 419 43 q 412 10 416 18 q 391 -1 408 1 l 176 -1 q 155 3 162 -1 q 150 25 152 7 l 150 55 l 150 75 q 150 90 150 82 q 150 107 150 101 l 137 201 l 101 387 q 54 552 83 477 q 33 631 33 611 q 44 648 33 641 l 64 648 l 133 645 l 179 645 q 214 643 210 645 l 224 629 q 268 393 233 597 l 283 300 l 300 191 l 311 97 l 315 65 l 318 46 l 361 46 q 369 139 365 98 q 383 246 374 179 q 392 309 387 275 q 411 393 397 343 q 628 663 478 663 q 694 633 694 663 l 692 600 l 678 585 q 664 561 669 576 l 660 508 l 660 453 "},"û":{"x_min":76,"x_max":885,"ha":964,"o":"m 484 -3 l 124 -3 q 76 51 76 -3 l 76 236 l 76 462 q 76 493 76 478 q 76 527 76 509 l 81 588 q 97 632 86 618 q 130 649 108 647 l 150 649 l 173 649 l 237 649 l 252 649 q 270 626 269 649 l 263 583 l 251 490 l 251 418 l 251 394 q 251 376 251 384 q 247 357 247 362 q 333 351 291 357 q 410 333 374 345 q 532 273 483 312 q 643 53 643 184 q 623 6 643 17 q 563 -3 601 -3 l 539 -3 l 516 -3 l 499 -3 l 484 -3 m 695 370 l 695 467 q 695 520 695 493 q 700 556 698 545 q 704 604 700 584 l 716 635 q 748 649 726 649 l 767 649 l 789 649 l 852 649 l 867 649 q 885 626 883 649 l 878 566 l 866 478 l 863 375 q 885 37 863 185 q 872 5 885 16 q 814 -3 859 -3 l 748 -3 q 715 9 723 -3 l 704 44 l 704 100 l 695 262 l 695 370 m 247 44 l 405 44 l 429 44 l 430 89 q 418 169 430 127 q 363 248 405 210 q 245 294 322 285 l 243 219 l 247 122 q 247 85 247 102 q 247 44 247 67 "},"Ò":{"x_min":34,"x_max":1041,"ha":1076,"o":"m 430 58 l 430 914 l 370 914 l 338 914 q 276 902 300 914 q 231 846 252 890 q 186 711 210 802 l 178 679 l 168 655 q 140 641 164 641 q 109 661 118 641 q 100 705 100 681 q 99 732 100 718 q 93 763 97 745 q 86 793 89 780 q 75 826 84 805 l 52 883 q 34 939 36 919 q 49 975 34 958 q 95 992 64 992 q 134 983 111 992 l 193 972 q 281 972 227 972 l 307 972 l 331 972 l 743 972 l 768 972 l 793 972 q 881 972 847 972 l 942 983 l 979 992 q 1025 976 1009 992 q 1041 939 1041 958 q 1024 884 1041 926 l 999 826 q 972 705 972 755 q 934 641 972 641 q 907 652 917 641 l 896 677 l 875 757 q 833 862 858 822 q 781 904 810 895 q 704 914 751 914 l 645 914 l 645 58 l 760 58 l 760 0 l 315 0 l 315 58 l 430 58 "},"О":{"x_min":57,"x_max":827.78125,"ha":885,"o":"m 451 1010 q 473 1001 461 1010 l 509 962 q 641 840 559 909 l 719 764 q 779 684 750 729 q 827 493 827 607 q 793 324 827 398 q 715 205 759 251 l 626 115 l 537 30 l 479 -23 q 444 -37 459 -34 q 404 -19 431 -37 l 302 63 l 200 155 q 137 226 172 181 q 77 336 102 272 q 57 470 57 397 q 329 926 57 712 l 355 947 l 388 978 q 451 1010 418 1010 m 359 826 q 273 788 311 819 q 213 712 235 758 q 192 622 192 666 q 205 554 192 587 q 219 518 211 534 q 246 479 228 502 l 272 440 l 308 398 l 401 301 q 490 207 470 233 q 514 142 507 180 q 625 217 573 162 q 687 333 676 272 l 687 380 q 666 438 683 405 q 627 498 650 471 l 575 562 l 502 641 l 439 711 l 398 758 l 375 793 l 359 826 "},"I":{"x_min":65,"x_max":510,"ha":576,"o":"m 180 58 l 180 914 l 65 914 l 65 972 l 510 972 l 510 914 l 395 914 l 395 58 l 510 58 l 510 0 l 65 0 l 65 58 l 180 58 "},"Ð":{"x_min":54,"x_max":860,"ha":921,"o":"m 384 370 l 384 58 l 499 58 l 499 0 l 54 0 l 54 58 l 169 58 l 169 566 l 173 777 q 306 934 213 876 q 508 992 399 992 q 610 982 561 992 q 697 955 659 973 q 816 854 773 921 q 848 788 837 822 q 860 714 860 754 q 831 579 860 638 q 745 480 802 520 q 624 444 690 444 q 570 452 591 444 l 510 480 l 480 495 l 384 370 m 384 455 l 473 566 l 499 550 l 523 543 q 585 580 554 543 q 616 717 616 616 q 590 875 616 821 q 498 934 567 934 q 423 900 446 934 q 393 819 399 867 q 385 748 386 770 q 384 676 384 726 l 384 643 l 384 455 "},"G":{"x_min":54,"x_max":980.609375,"ha":999,"o":"m 980 -310 l 936 -346 l 877 -321 l 809 -298 q 687 -281 733 -281 q 645 -281 665 -281 q 611 -281 626 -281 l 566 -288 l 509 -304 l 459 -317 l 394 -330 q 338 -337 361 -336 q 301 -338 315 -338 q 171 -312 224 -338 q 84 -239 117 -286 q 54 -134 54 -190 q 79 -51 54 -93 l 106 -15 q 142 13 123 1 q 220 39 183 39 q 449 -5 333 39 q 588 -35 537 -35 q 647 2 626 -35 q 668 120 668 40 l 668 173 q 666 222 668 200 q 660 271 665 244 q 640 333 655 298 q 576 406 619 386 q 471 427 533 427 q 351 382 390 427 q 317 271 317 335 l 317 232 l 75 232 q 125 393 75 337 q 243 468 175 448 l 319 483 q 404 492 363 492 q 448 493 434 492 q 486 503 461 494 q 559 537 523 515 q 621 715 621 578 q 465 913 621 913 q 329 843 369 913 q 289 640 289 773 l 75 640 q 103 788 75 718 q 199 908 131 858 q 272 948 229 930 q 356 964 313 964 l 222 1141 l 422 1141 l 476 993 l 498 1051 l 516 1091 q 560 1149 534 1124 q 629 1172 591 1172 q 751 1123 710 1172 l 727 1095 q 685 983 685 1046 l 645 983 q 597 1019 634 1019 q 556 1005 580 1019 q 526 964 541 994 q 615 957 576 964 q 694 932 654 950 q 812 845 767 900 q 854 729 854 791 q 824 606 854 655 q 747 527 795 558 q 617 472 705 505 l 617 455 q 794 378 733 422 q 883 275 855 334 q 912 137 912 216 q 877 -17 912 41 q 793 -102 843 -76 q 698 -128 742 -128 q 587 -118 632 -128 q 503 -99 541 -109 q 416 -72 464 -88 l 377 -58 l 331 -44 q 266 -36 302 -36 q 167 -67 203 -36 q 133 -144 133 -102 q 155 -204 133 -176 q 213 -251 173 -232 q 252 -265 231 -259 q 295 -271 273 -271 q 455 -254 398 -271 q 540 -221 487 -246 l 626 -187 q 708 -178 665 -178 q 980 -310 852 -178 "},"Х":{"x_min":19.4375,"x_max":980.5625,"ha":1000,"o":"m 352 914 l 498 677 l 531 752 l 555 805 q 614 914 587 877 q 684 971 641 950 q 797 992 726 992 q 884 976 838 992 q 933 948 933 964 q 922 919 933 937 l 909 893 l 898 870 q 881 809 881 826 l 881 798 l 877 763 l 837 763 l 802 787 l 776 802 q 725 811 752 811 q 650 785 675 811 q 588 690 625 759 l 580 673 l 570 653 l 545 602 l 862 57 l 980 57 l 980 0 l 485 0 l 485 57 l 616 57 l 401 425 l 320 271 q 279 174 300 236 q 258 90 258 112 q 320 57 258 57 l 357 57 l 357 0 l 19 0 l 19 57 q 121 83 81 57 q 188 155 161 110 q 254 284 216 200 l 273 326 l 356 498 l 113 914 l 22 914 l 22 972 l 455 972 l 455 914 l 352 914 "},"r":{"x_min":72.21875,"x_max":557.1875,"ha":654,"o":"m 97 -34 l 84 96 l 75 209 l 72 292 q 119 499 72 407 q 231 641 166 590 q 333 693 295 693 q 408 658 368 693 q 429 641 420 649 q 450 618 438 633 l 491 562 q 555 424 527 508 q 516 363 565 393 q 465 341 501 355 q 458 338 461 338 q 427 331 440 331 q 404 345 409 331 q 334 479 373 425 q 243 562 295 537 q 199 465 213 518 q 184 347 184 413 q 197 268 184 318 q 211 196 209 219 q 214 154 213 174 q 215 120 215 134 l 215 79 l 212 54 q 200 -20 206 1 q 195 -31 198 -24 q 180 -34 186 -32 q 122 -44 136 -44 q 97 -34 98 -44 "},"ж":{"x_min":23.0625,"x_max":975.71875,"ha":1000,"o":"m 581 286 l 580 227 l 584 145 l 596 40 l 596 26 q 587 7 596 12 q 570 1 578 2 q 542 0 561 0 l 464 0 q 438 4 449 0 q 423 22 428 4 l 416 69 l 416 170 l 416 229 l 416 286 q 232 59 306 264 l 211 3 q 190 -4 209 -1 l 160 0 l 130 0 l 113 0 l 97 -4 l 56 -4 q 34 -1 41 -4 q 23 20 27 1 q 45 86 23 41 q 154 241 86 173 q 360 329 222 309 q 264 459 317 423 q 175 494 211 494 q 132 476 154 494 q 106 464 120 464 q 89 494 89 464 q 84 552 89 534 l 77 581 q 67 608 77 590 l 59 637 q 68 652 59 647 q 99 661 77 658 q 188 624 135 661 q 302 512 241 587 q 414 336 357 441 l 416 434 l 416 495 l 416 548 q 425 629 416 612 q 460 645 435 645 l 559 645 q 592 624 592 645 l 586 588 l 580 488 l 580 433 l 580 390 l 580 336 l 609 386 q 642 441 628 419 q 678 491 656 463 q 757 580 711 534 q 897 661 841 661 q 927 654 920 661 q 938 637 935 648 l 929 608 l 914 561 l 907 494 q 891 464 907 466 q 866 476 878 464 q 822 494 846 491 q 638 329 722 494 q 872 212 774 312 q 944 105 913 168 q 975 21 975 43 q 940 -4 975 -4 l 901 -4 l 885 0 l 867 0 l 833 0 l 807 -4 q 787 1 794 -4 l 770 43 q 680 224 727 172 q 581 286 632 276 "},"ý":{"x_min":29,"x_max":628,"ha":686,"o":"m 29 81 l 55 111 q 152 59 99 79 q 239 42 209 42 q 376 113 337 42 q 432 318 415 184 q 261 243 353 243 q 215 249 235 243 l 181 262 l 157 276 q 112 292 128 292 q 58 272 87 292 l 29 306 q 181 404 126 404 q 224 394 205 404 l 281 361 q 355 340 318 340 q 432 377 398 340 q 375 543 432 490 q 248 596 318 596 q 63 527 169 596 l 37 555 q 163 636 102 611 q 294 657 220 657 q 444 627 377 657 q 548 554 511 597 q 583 505 568 533 q 608 454 600 480 q 628 346 628 398 q 615 241 628 304 q 598 183 609 208 q 568 123 590 160 q 464 24 534 67 q 286 -19 393 -19 q 29 81 131 -19 "},"x":{"x_min":19.4375,"x_max":637.5,"ha":653,"o":"m 57 645 l 147 645 l 166 648 l 182 650 q 200 641 188 650 l 227 579 l 308 384 l 333 327 q 405 541 375 477 q 434 597 420 576 q 466 633 448 619 q 541 661 498 661 q 569 658 554 661 q 609 644 584 656 q 637 616 634 631 q 629 587 637 598 l 615 567 l 606 540 l 604 499 l 605 442 l 579 426 q 506 465 544 465 q 458 445 477 465 q 418 380 438 426 l 369 252 l 421 129 l 489 -21 l 532 -111 q 582 -209 560 -168 q 619 -274 603 -251 q 637 -320 634 -297 q 619 -340 637 -338 l 490 -340 q 459 -326 469 -340 l 445 -301 l 431 -270 l 383 -162 l 355 -102 l 319 -20 l 277 74 q 201 -165 234 -77 q 145 -284 167 -252 q 108 -330 124 -321 q 70 -340 91 -338 q 19 -308 19 -340 q 49 -248 19 -295 q 154 -61 97 -187 q 237 166 210 65 l 196 261 l 157 346 l 128 408 l 111 443 l 74 523 l 48 576 l 33 605 l 30 617 q 34 640 30 634 q 57 645 39 645 "},"è":{"x_min":71,"x_max":658.28125,"ha":733,"o":"m 236 375 l 470 515 l 477 611 q 487 638 479 630 q 517 646 495 646 l 640 646 q 658 623 656 646 l 651 566 q 635 375 635 470 q 656 40 635 197 q 648 9 656 19 q 602 0 639 0 l 521 0 q 493 12 504 0 q 472 79 483 25 q 466 221 466 135 l 466 354 l 470 459 l 236 317 l 240 186 q 244 129 240 165 q 258 40 249 94 q 249 9 258 19 q 202 0 240 0 l 120 0 q 93 9 102 0 q 80 54 84 18 l 75 141 l 71 263 l 71 369 l 71 450 q 71 483 71 466 q 71 520 71 500 q 73 569 71 552 q 75 594 73 582 q 82 617 79 604 q 92 636 84 630 q 117 646 100 643 l 241 646 q 259 623 258 646 l 252 566 q 236 375 236 459 "},"Ø":{"x_min":95.828125,"x_max":1151.390625,"ha":1244,"o":"m 1147 1016 l 1136 962 q 1125 775 1125 888 q 1128 647 1125 704 q 1137 530 1131 591 l 1148 444 l 1150 405 q 1136 368 1150 376 q 1070 361 1122 361 l 709 361 l 716 208 l 733 65 l 733 51 q 688 22 733 22 l 616 22 q 580 38 593 25 q 554 129 568 51 l 541 223 q 536 301 536 276 q 536 361 536 326 l 154 361 q 122 370 134 361 q 106 412 111 383 l 100 469 q 97 504 97 490 q 97 534 97 519 l 95 769 l 97 891 l 101 972 q 106 1025 101 1005 q 120 1059 111 1045 q 154 1073 131 1073 l 176 1072 l 200 1072 l 222 1072 l 269 1075 l 287 1075 q 306 1050 306 1069 l 300 1016 l 291 962 l 281 863 l 280 775 l 287 627 q 290 525 287 601 q 294 413 294 448 l 533 413 q 519 769 519 526 q 527 980 519 913 q 545 1059 536 1047 q 579 1073 555 1070 l 598 1072 l 625 1072 l 694 1075 l 709 1075 q 730 1050 730 1069 l 720 977 q 712 922 715 944 q 708 875 709 901 l 704 775 l 706 694 l 711 561 l 715 484 l 718 413 l 955 413 l 950 483 l 944 606 l 940 769 q 944 801 940 780 q 944 831 944 816 l 944 868 l 945 972 q 954 1025 950 1001 q 962 1055 959 1048 q 998 1073 975 1073 l 1022 1072 l 1044 1072 l 1068 1072 l 1115 1075 l 1131 1075 q 1151 1050 1151 1069 l 1147 1016 "},"с":{"x_min":58.328125,"x_max":519.4375,"ha":578,"o":"m 473 228 l 519 191 q 407 25 475 97 q 297 -47 340 -47 q 275 -42 286 -47 q 225 -10 252 -34 q 144 84 183 22 q 81 212 105 145 q 58 334 58 279 q 97 496 58 410 q 191 637 137 581 q 283 694 245 694 q 331 680 295 694 l 409 645 q 477 605 447 627 q 506 564 506 582 q 468 510 506 551 l 434 473 l 419 448 l 411 438 l 406 434 l 398 441 q 377 464 386 451 q 315 528 352 501 q 213 569 279 555 q 190 448 190 517 q 218 317 190 384 q 293 195 247 249 q 394 122 337 146 q 454 198 422 152 l 462 211 l 473 228 "},"÷":{"x_min":34,"x_max":613,"ha":692,"o":"m 423 322 l 407 322 q 321 292 361 322 q 242 267 288 267 q 163 320 203 267 q 90 448 124 374 q 70 502 78 479 q 38 600 61 524 l 34 625 l 38 639 q 77 649 47 649 l 192 649 q 225 639 213 649 q 238 596 233 635 q 294 426 255 474 q 372 372 333 378 l 389 372 q 423 385 410 372 l 423 482 l 434 565 q 438 609 434 592 q 450 637 442 626 q 482 649 459 647 l 502 649 l 522 649 l 580 649 l 595 649 q 613 625 613 649 l 613 593 q 607 568 613 580 l 595 512 q 591 375 591 479 q 595 243 591 289 l 606 140 l 613 40 q 603 9 613 18 q 551 0 594 0 l 477 0 q 445 8 460 0 q 434 45 434 16 l 428 134 l 423 322 "},"h":{"x_min":15,"x_max":729,"ha":768,"o":"m 612 590 l 344 590 l 341 552 l 340 530 l 338 508 l 336 454 l 336 387 q 496 365 426 387 q 619 302 566 343 q 729 54 729 217 q 715 12 729 25 q 649 0 702 0 l 570 0 q 546 8 553 0 l 541 26 l 541 61 q 541 107 541 83 q 534 149 536 126 q 521 203 531 172 q 456 295 504 260 q 334 331 408 331 q 330 126 330 285 l 336 83 l 336 40 q 324 9 336 19 q 264 0 312 0 l 213 0 q 182 6 193 0 q 172 34 178 12 l 165 102 l 165 237 l 172 327 l 172 408 l 181 590 l 15 590 l 16 643 l 184 642 l 194 799 l 203 962 q 215 1012 203 997 q 248 1028 226 1028 l 269 1028 l 290 1028 l 353 1028 l 368 1028 q 385 1006 385 1025 l 375 930 l 356 783 q 350 687 351 715 q 349 643 349 659 l 612 643 l 612 590 "},"я":{"x_min":69,"x_max":659.546875,"ha":736,"o":"m 251 647 l 599 647 l 629 647 l 642 647 q 659 626 659 647 l 654 541 l 648 398 l 644 254 l 648 153 l 654 98 l 659 40 l 659 26 q 646 5 659 13 q 629 1 638 2 q 599 0 620 0 l 527 0 q 492 12 505 0 q 483 54 483 31 l 476 201 l 476 234 l 476 260 l 476 284 l 476 305 q 283 65 283 263 q 271 14 283 29 q 203 0 259 0 l 148 0 q 82 6 96 0 q 69 36 71 15 q 89 116 69 70 q 148 208 110 162 q 243 287 186 254 q 370 328 300 320 l 370 335 q 261 363 306 346 q 178 406 217 379 q 108 545 108 454 q 141 628 108 608 q 184 642 156 635 q 251 647 209 647 m 405 600 q 334 593 355 600 q 306 572 314 586 l 302 553 l 302 527 q 350 408 302 457 q 476 361 402 361 q 478 495 476 458 q 487 600 480 531 l 405 600 "},"Ё":{"x_min":58,"x_max":984.390625,"ha":1004,"o":"m 502 486 l 553 486 q 515 548 543 523 q 465 569 487 569 q 380 552 425 569 q 309 505 335 536 q 343 347 324 405 l 362 282 l 376 232 q 384 122 384 187 q 371 48 384 82 q 421 39 395 39 q 601 101 542 39 q 680 247 660 163 l 614 247 l 614 305 l 974 305 l 974 248 l 923 247 q 817 113 882 173 q 675 17 757 53 q 517 -19 593 -19 l 460 -19 q 426 -17 446 -19 q 378 -11 406 -15 q 332 -6 355 -11 q 287 6 309 -1 l 293 42 q 271 135 293 94 q 208 226 249 176 q 112 355 145 305 q 69 446 84 402 q 60 490 63 467 q 58 544 58 512 q 130 807 58 706 q 311 949 203 908 q 533 991 419 991 q 602 987 567 991 q 677 973 637 983 q 817 908 751 957 q 917 774 884 859 l 984 774 l 984 716 l 639 716 l 639 774 l 683 774 q 627 883 671 834 q 499 933 585 933 q 387 890 430 933 q 320 774 345 848 q 301 628 301 699 l 305 559 q 537 647 405 647 q 643 627 594 647 q 732 573 689 612 q 789 486 766 540 l 846 486 l 846 428 l 502 428 l 502 486 m 614 1173 q 620 1236 614 1224 q 644 1249 627 1249 l 690 1249 l 754 1249 l 771 1249 q 789 1229 786 1249 l 789 1173 l 789 1112 q 771 1089 789 1094 l 754 1089 l 689 1089 l 667 1089 l 643 1089 l 622 1089 l 614 1110 l 614 1173 m 258 1173 q 263 1233 258 1220 q 287 1249 269 1246 l 334 1249 l 399 1249 l 416 1249 q 434 1229 431 1249 l 434 1173 l 434 1112 q 415 1089 434 1094 l 399 1089 l 334 1089 l 312 1089 l 287 1089 q 267 1089 273 1089 l 258 1111 l 258 1173 "},".":{"x_min":87,"x_max":254,"ha":346,"o":"m 87 87 l 87 146 q 97 168 91 163 q 117 173 103 173 l 164 173 l 222 173 l 236 173 q 254 152 251 173 l 254 117 l 254 85 l 254 55 l 254 20 q 236 0 254 1 l 222 0 l 165 0 l 119 0 q 92 11 97 0 q 87 87 87 22 "},"f":{"x_min":0,"x_max":1086.109375,"ha":1086,"o":"m 808 329 l 961 329 l 988 333 l 1018 336 q 1086 304 1086 336 q 1050 223 1086 273 q 937 20 986 138 l 865 30 q 902 173 902 118 q 873 255 902 226 q 800 281 843 281 q 756 166 787 226 q 688 59 726 106 q 615 -17 651 12 q 554 -47 579 -47 q 471 -16 515 -47 q 386 65 427 13 q 319 175 347 116 q 294 281 294 233 q 213 255 244 281 q 183 176 183 229 l 186 148 l 197 104 l 220 33 l 148 23 q 36 226 95 145 q 0 306 0 281 q 66 336 0 336 l 105 333 l 134 329 l 293 329 q 353 514 308 434 q 454 644 398 594 q 545 694 509 694 q 613 673 569 694 q 700 617 658 655 q 779 512 741 579 q 809 366 809 448 l 808 329 m 416 329 l 668 329 q 620 425 655 380 q 540 501 590 470 q 441 538 494 533 q 405 427 405 487 q 407 375 405 391 q 416 329 409 359 m 677 281 l 434 281 q 527 160 463 208 q 668 112 590 112 q 683 220 683 176 q 677 281 683 254 "},";":{"x_min":87,"x_max":278.671875,"ha":383,"o":"m 108 573 l 113 633 q 123 655 117 651 q 141 660 130 660 l 169 660 l 188 660 l 246 660 l 262 660 q 278 639 278 657 l 278 606 l 277 575 l 278 545 l 278 512 q 262 492 278 496 l 247 492 l 189 492 l 142 492 l 123 492 l 113 515 q 108 573 108 534 m 113 -221 l 87 -192 q 173 -59 173 -117 q 167 1 173 -15 q 119 9 131 1 q 108 44 108 20 l 108 86 q 110 130 108 119 q 119 157 112 145 q 141 170 123 170 l 166 170 l 188 170 l 245 170 l 259 170 q 277 151 274 170 l 273 64 l 273 24 l 264 -32 q 220 -124 260 -65 q 113 -221 187 -178 "},"Г":{"x_min":54,"x_max":826.21875,"ha":838,"o":"m 54 972 l 576 972 q 646 973 623 972 q 726 985 669 975 l 758 992 l 780 992 q 826 939 826 992 q 813 898 826 927 l 799 861 l 784 815 l 776 758 q 771 724 773 736 q 765 698 769 712 q 733 675 760 675 q 706 684 712 675 l 696 705 l 688 733 q 638 852 667 814 q 574 905 609 890 l 539 914 l 498 914 l 463 914 l 384 914 l 384 58 l 499 58 l 499 0 l 54 0 l 54 58 l 169 58 l 169 914 l 54 914 l 54 972 "},"6":{"x_min":58.328125,"x_max":713.890625,"ha":769,"o":"m 525 1023 l 565 985 l 487 906 l 419 837 l 362 773 l 309 704 l 265 629 q 225 474 225 552 q 261 328 225 388 q 344 232 298 269 q 411 183 363 217 q 506 117 483 132 l 551 160 l 583 198 q 608 278 608 232 q 583 361 608 315 q 522 445 561 407 q 442 507 483 483 q 366 532 401 532 q 319 529 326 532 l 291 551 q 373 639 311 584 q 468 694 436 694 q 564 647 506 694 q 668 526 622 600 q 713 380 713 452 q 675 254 713 325 q 580 121 637 183 q 526 66 551 89 q 469 19 501 43 q 388 -19 413 -19 q 261 44 343 -19 q 118 201 179 107 q 58 377 58 295 q 86 516 58 442 q 120 588 98 550 q 139 619 126 599 q 169 663 152 639 q 202 707 186 686 q 236 749 218 728 q 316 835 268 787 q 525 1023 404 923 "},"A":{"x_min":50,"x_max":950,"ha":960,"o":"m 383 934 l 276 934 l 276 992 l 708 992 l 708 934 l 598 934 l 854 58 l 950 58 l 950 0 l 533 0 l 533 58 l 638 58 l 534 417 q 488 273 522 353 q 416 130 461 199 q 316 20 372 60 q 262 -9 291 1 q 236 -16 250 -13 q 205 -19 222 -19 q 97 22 144 -19 q 50 147 50 64 q 83 310 50 218 q 118 396 97 350 q 165 489 138 442 q 284 680 225 596 l 326 743 q 362 804 341 766 q 376 829 375 825 q 387 891 387 859 l 383 934 m 494 550 l 431 771 q 298 561 351 658 l 262 493 l 233 429 q 200 300 208 369 l 200 264 q 279 196 211 196 q 378 259 331 196 q 454 402 425 323 q 494 550 483 480 "},"Ь":{"x_min":54,"x_max":829,"ha":883,"o":"m 499 972 l 499 914 l 384 914 l 384 570 q 477 509 418 537 q 529 488 503 497 q 594 469 555 479 l 644 459 l 686 455 l 743 458 q 808 441 788 458 q 829 368 829 425 l 829 97 q 819 31 829 50 q 794 5 810 12 l 744 0 l 54 0 l 54 58 l 169 58 l 169 914 l 54 914 l 54 972 l 499 972 m 384 58 l 509 58 q 584 70 555 58 q 614 135 614 83 l 614 301 l 614 317 l 614 334 q 603 381 614 367 q 541 411 592 394 q 384 494 454 440 l 384 58 "},"O":{"x_min":57,"x_max":827.78125,"ha":885,"o":"m 451 1010 q 473 1001 461 1010 l 509 962 q 641 840 559 909 l 719 764 q 779 684 750 729 q 827 493 827 607 q 793 324 827 398 q 715 205 759 251 l 626 115 l 537 30 l 479 -23 q 444 -37 459 -34 q 404 -19 431 -37 l 302 63 l 200 155 q 137 226 172 181 q 77 336 102 272 q 57 470 57 397 q 329 926 57 712 l 355 947 l 388 978 q 451 1010 418 1010 m 359 826 q 273 788 311 819 q 213 712 235 758 q 192 622 192 666 q 205 554 192 587 q 219 518 211 534 q 246 479 228 502 l 272 440 l 308 398 l 401 301 q 490 207 470 233 q 514 142 507 180 q 625 217 573 162 q 687 333 676 272 l 687 380 q 666 438 683 405 q 627 498 650 471 l 575 562 l 502 641 l 439 711 l 398 758 l 375 793 l 359 826 "},"n":{"x_min":71,"x_max":653.34375,"ha":725,"o":"m 465 313 l 238 435 l 238 348 q 247 151 238 220 l 257 40 q 246 6 257 13 q 183 0 235 0 l 118 0 q 90 12 103 0 q 76 66 82 25 q 71 169 71 108 l 71 369 l 71 478 q 71 516 71 497 q 71 560 71 535 q 75 609 71 593 q 86 636 79 625 q 116 649 93 647 l 139 649 l 160 649 l 220 649 l 235 649 q 253 626 252 649 q 249 575 253 586 l 241 543 l 238 492 l 464 368 l 465 430 q 470 579 465 539 q 485 633 475 619 q 516 649 494 647 l 534 649 l 556 649 l 620 649 l 635 649 q 653 626 651 649 l 648 596 l 637 546 l 630 466 l 630 375 l 630 301 q 630 258 630 279 q 635 225 634 236 l 639 162 l 645 113 l 651 40 q 640 9 651 18 q 579 0 629 0 l 514 0 q 486 7 494 0 q 470 48 478 15 l 465 126 l 465 313 "},"3":{"x_min":47,"x_max":691,"ha":768,"o":"m 117 714 l 47 762 q 215 938 113 891 q 407 985 317 985 q 521 964 467 985 q 605 907 573 947 q 637 812 637 868 q 497 579 637 707 l 502 569 q 589 552 552 569 q 649 504 625 535 q 691 389 691 450 q 623 210 691 307 q 432 39 556 114 q 148 -65 309 -35 l 117 8 q 331 91 252 41 q 443 198 410 141 q 474 307 474 257 q 443 411 474 364 q 334 458 413 458 q 277 451 295 458 l 208 425 l 180 476 q 363 595 294 516 q 417 673 399 636 q 436 744 436 711 q 408 807 436 775 q 315 839 383 839 q 202 802 255 839 q 117 714 148 769 "},"9":{"x_min":54.5625,"x_max":709,"ha":768,"o":"m 242 -53 l 197 0 q 356 151 276 62 q 488 335 437 240 q 540 507 540 430 q 518 620 540 571 q 459 707 496 669 q 382 772 423 746 l 260 855 q 185 775 212 815 q 158 693 158 735 q 199 582 158 641 q 299 481 239 523 q 400 439 358 439 q 447 443 432 439 l 475 421 q 389 328 444 376 q 300 279 333 279 q 203 328 261 279 q 99 448 144 376 q 65 519 76 485 q 54 592 54 554 q 90 723 54 660 l 128 780 q 167 825 143 804 l 251 903 l 329 966 q 379 985 354 985 q 413 978 394 985 q 459 954 431 971 q 515 917 488 937 q 572 866 542 897 q 670 740 631 812 q 699 669 689 703 q 709 596 709 635 q 668 427 709 512 q 563 261 628 342 q 505 194 536 228 q 433 121 474 160 l 242 -53 "},"℗":{"x_min":52.78125,"x_max":1022.21875,"ha":1104,"o":"m 704 526 l 545 836 q 451 686 502 776 l 388 583 q 297 402 319 444 q 262 323 275 359 q 204 193 250 287 q 169 98 187 148 q 133 12 140 15 l 93 8 l 52 13 l 70 62 l 86 108 l 108 169 l 127 211 l 156 279 q 212 391 187 343 q 280 533 237 440 q 362 690 313 611 l 391 745 l 413 798 l 434 837 l 458 863 l 473 904 l 494 934 l 398 934 l 398 993 l 688 993 l 854 605 l 952 316 l 1022 1 l 855 2 l 794 270 l 704 526 m 465 1 l 465 370 l 263 370 l 275 430 l 359 430 l 469 429 l 570 429 l 719 430 l 780 430 l 790 370 l 576 370 l 576 1 l 465 1 "},"l":{"x_min":76,"x_max":483.328125,"ha":500,"o":"m 76 370 l 76 469 q 76 525 76 497 q 83 585 80 552 q 97 632 86 618 q 129 649 107 647 l 150 649 l 170 649 l 234 649 l 248 649 q 266 626 265 649 l 256 550 l 247 467 l 243 375 l 243 254 l 247 135 q 255 86 247 105 q 288 67 264 67 q 340 72 323 67 q 379 93 358 77 l 416 112 q 463 119 434 119 q 483 99 481 119 q 437 38 483 63 q 319 -1 391 14 q 253 -10 290 -6 q 184 -15 216 -15 q 108 4 127 -15 q 83 50 87 21 l 79 107 l 76 200 l 76 267 l 76 370 "},"4":{"x_min":26,"x_max":810,"ha":846,"o":"m 470 43 l 470 272 l 350 275 q 49 229 153 275 l 26 323 l 100 427 l 188 548 l 281 662 q 402 787 334 723 l 474 853 l 554 918 q 638 992 614 962 l 703 962 q 662 861 674 903 l 652 795 l 652 726 l 652 408 q 810 442 737 408 l 762 256 l 712 267 l 690 270 l 652 275 l 652 43 l 749 43 l 749 0 l 359 0 l 359 43 l 470 43 m 470 401 l 470 753 q 347 628 415 707 q 231 488 278 549 q 165 390 185 427 l 301 397 l 470 401 "},"p":{"x_min":72,"x_max":582,"ha":654,"o":"m 203 100 l 209 52 q 222 -169 222 -42 q 198 -314 222 -277 q 135 -355 178 -355 q 104 -341 109 -355 l 104 -332 l 104 -219 l 104 -195 l 104 -175 l 104 -157 l 104 -95 q 104 -59 104 -77 q 98 -34 99 -43 l 85 97 l 74 209 l 72 293 q 119 499 72 408 q 231 641 166 590 q 333 693 295 693 q 408 658 368 693 q 429 641 420 649 q 449 617 438 633 l 491 562 q 555 424 527 508 q 575 344 568 386 q 582 259 582 302 q 556 116 582 181 q 487 15 531 51 q 387 -21 443 -21 q 284 13 337 -21 q 203 100 234 49 m 242 562 q 199 466 213 518 q 184 347 184 414 q 211 201 184 265 q 282 100 238 137 q 358 64 326 64 q 405 87 383 64 q 423 119 414 97 q 433 170 433 141 l 433 222 q 424 273 433 241 l 403 345 q 334 479 373 425 q 242 562 295 537 "},"Ъ":{"x_min":22,"x_max":1097,"ha":1151,"o":"m 767 972 l 767 914 l 652 914 l 652 570 q 794 491 709 523 q 875 469 833 477 q 955 461 917 461 l 1012 463 q 1081 441 1065 463 q 1097 373 1097 419 l 1097 97 q 1085 30 1097 51 q 1060 4 1077 9 q 1013 0 1044 0 l 322 0 l 322 58 l 437 58 l 437 914 l 345 914 q 219 861 257 914 q 159 729 181 809 l 144 684 q 115 672 137 672 q 84 689 91 672 l 76 727 l 71 762 l 67 800 q 60 826 66 815 q 42 845 55 837 q 26 867 31 850 q 22 934 22 884 q 34 973 22 956 q 67 990 47 990 l 108 980 l 151 972 l 184 972 l 767 972 m 652 58 l 777 58 q 852 70 823 58 q 882 135 882 83 l 882 301 l 882 318 l 882 334 q 870 381 882 369 q 809 411 859 394 q 652 494 719 440 l 652 58 "},"Ü":{"x_min":54,"x_max":829,"ha":883,"o":"m 499 972 l 499 914 l 384 914 l 384 570 q 477 509 418 537 q 529 488 503 497 q 594 469 555 479 l 644 459 l 686 455 l 743 458 q 808 441 788 458 q 829 368 829 425 l 829 97 q 819 31 829 50 q 794 5 810 12 l 744 0 l 54 0 l 54 58 l 169 58 l 169 914 l 54 914 l 54 972 l 499 972 m 384 58 l 509 58 q 584 70 555 58 q 614 135 614 83 l 614 301 l 614 317 l 614 334 q 603 381 614 367 q 541 411 592 394 q 384 494 454 440 l 384 58 "},"à":{"x_min":55,"x_max":661,"ha":692,"o":"m 325 646 l 467 646 q 484 637 480 646 l 485 622 l 488 601 l 494 572 l 505 534 l 514 493 l 526 451 q 595 193 572 265 q 641 66 624 105 q 661 12 658 27 q 633 0 661 0 l 491 0 q 476 22 484 0 q 476 41 476 36 l 460 94 l 443 147 l 436 175 q 425 210 434 191 q 204 -15 355 -15 q 117 12 148 -15 q 68 83 85 40 q 55 165 55 129 q 71 241 55 201 q 91 280 80 259 q 118 325 102 300 l 167 389 l 228 458 l 271 504 l 303 540 q 311 562 311 552 q 302 609 311 580 l 298 637 q 325 646 298 646 m 336 508 q 227 354 256 419 q 198 254 198 288 q 218 189 198 218 q 279 160 238 160 q 343 178 314 160 q 384 223 371 197 l 393 248 l 398 272 q 375 373 398 298 l 357 434 l 348 474 q 336 508 345 491 "},"ó":{"x_min":26,"x_max":702.453125,"ha":703,"o":"m 308 47 l 366 47 q 384 233 366 137 q 396 296 389 265 q 420 392 403 327 l 437 459 l 456 513 q 522 615 477 569 q 637 661 567 661 q 702 633 702 661 l 699 615 l 688 590 l 677 570 q 669 507 669 546 l 666 453 l 634 453 q 581 487 623 487 q 513 449 549 487 q 484 400 496 432 q 456 303 471 367 q 433 -3 433 189 q 437 -169 433 -128 l 451 -250 q 458 -292 455 -269 q 461 -346 461 -315 q 341 -378 461 -378 q 320 -370 324 -378 q 316 -346 316 -362 l 320 -234 l 329 -147 l 342 -69 l 352 0 l 271 0 l 189 0 l 156 -4 q 145 0 149 -4 l 142 23 l 142 54 q 138 139 142 107 q 128 207 134 171 q 109 311 123 243 q 41 570 78 466 q 30 606 35 590 q 26 631 26 623 q 35 644 26 643 l 76 647 l 137 645 l 171 645 q 205 638 196 645 q 223 590 214 630 l 232 543 l 242 490 l 256 417 l 287 238 l 299 149 q 308 70 308 101 l 308 47 "},"Ю":{"x_min":53,"x_max":1329.390625,"ha":1386,"o":"m 383 556 l 569 556 q 603 662 577 610 q 667 763 628 715 q 745 851 705 811 l 787 890 l 830 926 l 890 978 q 952 1010 919 1010 q 969 1004 962 1010 l 990 984 l 1011 962 l 1066 908 l 1143 840 l 1221 764 q 1280 684 1251 729 q 1329 493 1329 607 q 1296 323 1329 393 q 1215 202 1262 254 l 1038 30 l 980 -23 q 945 -37 961 -34 q 904 -18 931 -37 l 863 13 l 792 73 q 674 180 706 148 q 594 296 633 222 q 567 373 577 331 q 558 461 558 415 l 558 498 l 383 498 l 383 58 l 498 58 l 498 0 l 53 0 l 53 58 l 168 58 l 168 914 l 53 914 l 53 972 l 498 972 l 498 914 l 383 914 l 383 556 m 861 826 q 773 788 811 820 q 714 713 736 759 q 693 622 693 666 q 733 498 693 569 q 901 302 773 427 l 953 250 l 986 211 q 1018 139 1007 184 q 1128 215 1078 165 q 1189 334 1179 266 l 1189 382 q 1157 457 1184 418 l 1130 498 l 1103 532 l 1004 642 l 946 706 l 900 760 l 878 791 l 861 826 "}}}
